<svg width="453" height="488" viewBox="0 0 453 488" fill="none" xmlns="http://www.w3.org/2000/svg">
<path fill-rule="evenodd" clip-rule="evenodd" d="M195.839 32.7392C195.839 14.7 210.607 0.0773926 228.646 0.0773926C246.686 0.0773926 261.454 14.7 261.454 32.7392V131.383C261.454 149.422 246.686 164.045 228.646 164.045C210.607 164.045 195.839 149.422 195.839 131.383V32.7392ZM452.014 273.4C445.9 389.563 351.045 482.799 234.793 486.883C106.705 491.385 0.7659 388.481 0.7659 261.367C0.7659 192.435 32.9684 130.631 81.2581 89.2073C100.352 72.8272 129.867 86.3296 129.867 111.486C129.867 120.175 125.972 128.36 119.357 133.996C83.5476 164.516 60.1069 210.27 60.1069 261.365C60.1069 353.049 135.212 427.641 226.896 427.641C318.58 427.641 393.085 353.049 393.085 261.365C393.085 211.864 372.372 167.354 337.032 136.867C330.466 131.203 326.604 123.034 326.604 114.363C326.604 88.9659 356.599 75.351 375.634 92.1646C425.257 135.997 455.807 201.297 452.014 273.4Z" fill="rgba(0,0,0,0.2)"/>
<rect x="191.832" y="0.0773926" width="69.4329" height="286.196" rx="34.7165" fill="rgba(0,0,0,0.2)"/>
</svg>
