<svg width="453" height="488" viewBox="0 0 453 488" fill="none" xmlns="http://www.w3.org/2000/svg">
<path id="Power_Button" fill-rule="evenodd" clip-rule="evenodd" d="M261.265 134.9V251.556C261.265 270.73 245.722 286.273 226.548 286.273C207.375 286.273 191.832 270.73 191.832 251.557V34.7939C191.832 15.6205 207.375 0.0773926 226.548 0.0773926C226.904 0.0773926 227.26 0.0827598 227.613 0.0934177C227.956 0.0827605 228.301 0.0773926 228.646 0.0773926C246.686 0.0773926 261.454 14.7 261.454 32.7392V131.383C261.454 132.571 261.389 133.744 261.265 134.9ZM234.793 486.883C351.045 482.799 445.9 389.563 452.014 273.4C455.807 201.297 425.257 135.997 375.634 92.1646C356.599 75.351 326.604 88.9659 326.604 114.363C326.604 123.034 330.466 131.203 337.032 136.867C372.372 167.354 393.085 211.864 393.085 261.365C393.085 353.049 318.58 427.641 226.896 427.641C135.212 427.641 60.1069 353.049 60.1069 261.365C60.1069 210.27 83.5476 164.516 119.357 133.996C125.972 128.36 129.867 120.175 129.867 111.486C129.867 86.3296 100.352 72.8272 81.2581 89.2073C32.9684 130.631 0.7659 192.435 0.7659 261.367C0.7659 388.481 106.705 491.385 234.793 486.883Z" fill="rgba(0,0,0,0.12)"/>
</svg>


