<svg width="1728" height="1117" viewBox="0 0 1728 1117" fill="none" xmlns="http://www.w3.org/2000/svg">
<g clip-path="url(#clip0_19_25)">
<rect width="1728" height="1117" fill="#D767A0"/>
<rect width="1728" height="1117" fill="#D6669F"/>
<path d="M1728 0L1452.38 680.002L692 744L1728 0Z" fill="#940BDD"/>
<path d="M1728 0L1046.02 489.766L1313 0H1728Z" fill="#C848AC"/>
<path d="M724 0H0L723.644 338.579L724 0Z" fill="#D2BED7"/>
<path d="M0 0L1452.38 680.002L692 744L0 0Z" fill="#9E1EBC"/>
<path d="M0 1117L1452.38 680.002L692 744L0 1117Z" fill="#3F07B8"/>
<path d="M0 1117L1452.38 680.002L1728 1117H0Z" fill="#221272"/>
<path d="M1728 0L1452.38 680.002L1728 1117V0Z" fill="#5605E0"/>
<path d="M0 0L692 744L0 1117V0Z" fill="#610ACD"/>
<path d="M724 0L462 216L1313 0H724Z" fill="#C848AC"/>
<path d="M462 216L1046 490L1313 0L462 216Z" fill="#D17FB9"/>
</g>
<defs>
<clipPath id="clip0_19_25">
<rect width="1728" height="1117" fill="white"/>
</clipPath>
</defs>
</svg>
