<svg width="117" height="47" viewBox="0 0 117 47" fill="none" xmlns="http://www.w3.org/2000/svg">
<path d="M108.218 21H107.782C107.35 21 107 21.3173 107 21.7088V25.2912C107 25.6827 107.35 26 107.782 26H108.218C108.65 26 109 25.6827 109 25.2912V21.7088C109 21.3173 108.65 21 108.218 21Z" fill="black" fill-opacity="0.4"/>
<path d="M16.8555 31H15.0977V19.7988C14.6745 20.2025 14.1178 20.6061 13.4277 21.0098C12.7441 21.4134 12.1289 21.7161 11.582 21.918V20.2188C12.5651 19.7565 13.4245 19.1966 14.1602 18.5391C14.8958 17.8815 15.4167 17.2435 15.7227 16.625H16.8555V31ZM21.3672 23.9395C21.3672 22.2467 21.5397 20.8861 21.8848 19.8574C22.2363 18.8223 22.7539 18.0247 23.4375 17.4648C24.1276 16.9049 24.9935 16.625 26.0352 16.625C26.8034 16.625 27.4772 16.7812 28.0566 17.0938C28.6361 17.3997 29.1146 17.8457 29.4922 18.4316C29.8698 19.0111 30.166 19.7207 30.3809 20.5605C30.5957 21.3939 30.7031 22.5202 30.7031 23.9395C30.7031 25.6191 30.5306 26.9766 30.1855 28.0117C29.8405 29.0404 29.3229 29.8379 28.6328 30.4043C27.9492 30.9642 27.0833 31.2441 26.0352 31.2441C24.6549 31.2441 23.571 30.7493 22.7832 29.7598C21.8392 28.5684 21.3672 26.6283 21.3672 23.9395ZM23.1738 23.9395C23.1738 26.2897 23.4473 27.8555 23.9941 28.6367C24.5475 29.4115 25.2279 29.7988 26.0352 29.7988C26.8424 29.7988 27.5195 29.4082 28.0664 28.627C28.6198 27.8457 28.8965 26.2832 28.8965 23.9395C28.8965 21.5827 28.6198 20.0169 28.0664 19.2422C27.5195 18.4674 26.8359 18.0801 26.0156 18.0801C25.2083 18.0801 24.5638 18.4219 24.082 19.1055C23.4766 19.9779 23.1738 21.5892 23.1738 23.9395ZM32.5 23.9395C32.5 22.2467 32.6725 20.8861 33.0176 19.8574C33.3691 18.8223 33.8867 18.0247 34.5703 17.4648C35.2604 16.9049 36.1263 16.625 37.168 16.625C37.9362 16.625 38.61 16.7812 39.1895 17.0938C39.7689 17.3997 40.2474 17.8457 40.625 18.4316C41.0026 19.0111 41.2988 19.7207 41.5137 20.5605C41.7285 21.3939 41.8359 22.5202 41.8359 23.9395C41.8359 25.6191 41.6634 26.9766 41.3184 28.0117C40.9733 29.0404 40.4557 29.8379 39.7656 30.4043C39.082 30.9642 38.2161 31.2441 37.168 31.2441C35.7878 31.2441 34.7038 30.7493 33.916 29.7598C32.972 28.5684 32.5 26.6283 32.5 23.9395ZM34.3066 23.9395C34.3066 26.2897 34.5801 27.8555 35.127 28.6367C35.6803 29.4115 36.3607 29.7988 37.168 29.7988C37.9753 29.7988 38.6523 29.4082 39.1992 28.627C39.7526 27.8457 40.0293 26.2832 40.0293 23.9395C40.0293 21.5827 39.7526 20.0169 39.1992 19.2422C38.6523 18.4674 37.9688 18.0801 37.1484 18.0801C36.3411 18.0801 35.6966 18.4219 35.2148 19.1055C34.6094 19.9779 34.3066 21.5892 34.3066 23.9395ZM43.9648 20.1211C43.9648 19.099 44.222 18.2298 44.7363 17.5137C45.2507 16.7975 45.9961 16.4395 46.9727 16.4395C47.8711 16.4395 48.6133 16.7617 49.1992 17.4062C49.7917 18.0443 50.0879 18.985 50.0879 20.2285C50.0879 21.4395 49.7884 22.3737 49.1895 23.0312C48.597 23.6823 47.8646 24.0078 46.9922 24.0078C46.1263 24.0078 45.4036 23.6855 44.8242 23.041C44.2513 22.3965 43.9648 21.4232 43.9648 20.1211ZM47.0215 17.6504C46.5853 17.6504 46.2207 17.8392 45.9277 18.2168C45.6413 18.5944 45.498 19.2878 45.498 20.2969C45.498 21.2148 45.6445 21.8626 45.9375 22.2402C46.2305 22.6113 46.5918 22.7969 47.0215 22.7969C47.4642 22.7969 47.8288 22.6081 48.1152 22.2305C48.4082 21.8529 48.5547 21.1628 48.5547 20.1602C48.5547 19.2357 48.4082 18.5879 48.1152 18.2168C47.8223 17.8392 47.4577 17.6504 47.0215 17.6504ZM47.0312 31.5273L54.8633 16.4395H56.2891L48.4863 31.5273H47.0312ZM53.2227 27.6406C53.2227 26.612 53.4798 25.7428 53.9941 25.0332C54.5085 24.3171 55.2572 23.959 56.2402 23.959C57.1387 23.959 57.8809 24.2812 58.4668 24.9258C59.0592 25.5638 59.3555 26.5046 59.3555 27.748C59.3555 28.959 59.056 29.8932 58.457 30.5508C57.8646 31.2018 57.1289 31.5273 56.25 31.5273C55.3841 31.5273 54.6615 31.2051 54.082 30.5605C53.5091 29.9095 53.2227 28.9362 53.2227 27.6406ZM56.2891 25.1699C55.8464 25.1699 55.4785 25.3587 55.1855 25.7363C54.8991 26.1139 54.7559 26.8073 54.7559 27.8164C54.7559 28.7279 54.9023 29.3724 55.1953 29.75C55.4883 30.1276 55.8496 30.3164 56.2793 30.3164C56.7285 30.3164 57.0964 30.1276 57.3828 29.75C57.6758 29.3724 57.8223 28.6823 57.8223 27.6797C57.8223 26.7552 57.6758 26.1074 57.3828 25.7363C57.0898 25.3587 56.7253 25.1699 56.2891 25.1699Z" fill="black" fill-opacity="0.4"/>
<path fill-rule="evenodd" clip-rule="evenodd" d="M77.6455 22.6012L76.8803 22.3467L77.4847 21.8197L86.4367 14.0143L94.4814 7L90.3628 14.0143L87.3999 19.0603L87.0423 19.6694L87.7198 19.8947L98.2541 23.3988L99.0193 23.6533L98.4155 24.1803L88.5215 32.8067L81.4185 39L85.055 32.8067L88.4999 26.9397L88.8576 26.3306L88.18 26.1053L77.6455 22.6012ZM75.5107 22.6191L76.6555 22.9999L87.8223 26.7144L84.2451 32.8067H70.1041C68.9421 32.8067 68 31.8805 68 30.7378V16.0831C68 14.9406 68.9421 14.0143 70.1041 14.0143H85.3796L76.415 21.8307L75.5107 22.6191ZM103.896 32.8067H89.5786L99.485 24.1693L100.389 23.3809L99.2445 23.0001L88.0774 19.2857L91.1726 14.0143H103.896C105.058 14.0143 106 14.9406 106 16.0831V30.7378C106 31.8805 105.058 32.8067 103.896 32.8067Z" fill="black" fill-opacity="0.4"/>
</svg>
