<svg width="49" height="48" viewBox="0 0 49 48" fill="none" xmlns="http://www.w3.org/2000/svg">
<rect width="49" height="48" rx="10" fill="url(#paint0_linear_226_114)"/>
<rect x="6.5" y="6.5" width="36" height="36" rx="5.5" stroke="url(#paint1_linear_226_114)"/>
<rect x="42.5" y="42" width="36" height="36" rx="5.5" transform="rotate(-180 42.5 42)" stroke="url(#paint2_linear_226_114)"/>
<ellipse cx="10.7116" cy="10.3852" rx="4.62158" ry="3.24245" transform="rotate(-45 10.7116 10.3852)" fill="#BBBBBB"/>
<path d="M7.44336 13.6528C7.44336 13.6528 9.88578 13.9262 12.3357 12.0093C14.7856 10.0924 17.6461 10.7838 17.6461 10.7838L14.2634 20.4729L7.44336 13.6528Z" fill="#CACACA"/>
<path fill-rule="evenodd" clip-rule="evenodd" d="M21.9821 15.1198L20.6426 13.7803L12.7297 5.86742C12.7297 5.86742 12.4044 10.0479 13.4182 13.0918C13.9188 14.5945 14.0929 16.3742 14.1409 17.7912C14.0841 18.2235 14.0885 18.6623 14.1539 19.0936C14.1437 19.8407 14.1067 20.3162 14.1067 20.3162L18.4336 24.6431L18.4336 24.6431L33.8716 40.081C35.6764 41.8859 38.6026 41.8859 40.4075 40.081C42.2123 38.2762 42.2123 35.35 40.4075 33.5451L21.9909 15.1285C21.9879 15.1256 21.985 15.1227 21.9821 15.1198Z" fill="#D9D9D9"/>
<path fill-rule="evenodd" clip-rule="evenodd" d="M23.3656 23.038C25.6216 20.7819 26.719 18.2215 25.8165 17.3191C25.8165 17.319 25.8164 17.3189 25.8163 17.3188L25.8163 17.3188L24.9993 16.5018L24.4524 17.0487C23.2578 17.2668 21.6094 18.2583 20.0976 19.77C18.5859 21.2818 17.5944 22.9302 17.3763 24.1248L16.8295 24.6717L17.6391 25.4813C17.6416 25.4838 17.6441 25.4864 17.6467 25.489C18.5491 26.3914 21.1095 25.294 23.3656 23.038Z" fill="#B00000"/>
<ellipse cx="20.9137" cy="20.5871" rx="5.77697" ry="2.31079" transform="rotate(-45 20.9137 20.5871)" fill="#DD0000"/>
<path fill-rule="evenodd" clip-rule="evenodd" d="M20.9138 14.0515L14.3779 20.5874L17.2372 23.4467C17.2373 23.4467 17.2373 23.4468 17.2374 23.4469C17.9144 24.1233 19.926 23.2089 21.7306 21.4042C23.5353 19.5995 24.4498 17.5879 23.7733 16.911C23.7732 16.9109 23.7732 16.9108 23.7731 16.9108L20.9138 14.0515Z" fill="#D9D9D9"/>
<path d="M32.0983 23.8009L23.3098 22.9826L24.9528 19.802L32.0983 23.8009Z" fill="#B00000"/>
<path d="M24.3004 31.5987L23.4821 22.8102L20.3016 24.4533L24.3004 31.5987Z" fill="#B00000"/>
<ellipse cx="23.471" cy="23.1441" rx="1.73309" ry="1.30502" transform="rotate(-45 23.471 23.1441)" fill="#DD0000"/>
<rect x="14.6943" y="31.8896" width="3.74452" height="3.43155" rx="1" transform="rotate(-31.9949 14.6943 31.8896)" fill="#BA66C8"/>
<rect x="8.21484" y="26.3062" width="3.74452" height="3.43155" rx="1" transform="rotate(-31.9949 8.21484 26.3062)" fill="#C0C866"/>
<rect x="6.87256" y="34.5537" width="3.74452" height="3.43155" rx="1" transform="rotate(-31.9949 6.87256 34.5537)" fill="#23DC83"/>
<defs>
<linearGradient id="paint0_linear_226_114" x1="25" y1="-7" x2="25" y2="82" gradientUnits="userSpaceOnUse">
<stop stop-color="#0091E2"/>
<stop offset="1" stop-color="#0078BC"/>
</linearGradient>
<linearGradient id="paint1_linear_226_114" x1="-20" y1="82" x2="89" y2="-49.5" gradientUnits="userSpaceOnUse">
<stop offset="0.0135543" stop-color="white"/>
<stop offset="0.359375" stop-color="white" stop-opacity="0"/>
</linearGradient>
<linearGradient id="paint2_linear_226_114" x1="17" y1="118.5" x2="126" y2="-13" gradientUnits="userSpaceOnUse">
<stop offset="0.0135543" stop-color="white"/>
<stop offset="0.359375" stop-color="white" stop-opacity="0"/>
</linearGradient>
</defs>
</svg>