<svg width="70" height="40" viewBox="0 0 70 40" fill="none" xmlns="http://www.w3.org/2000/svg">
<rect x="27" y="28" width="16" height="4" rx="2" fill="black" fill-opacity="0.4"/>
<path fill-rule="evenodd" clip-rule="evenodd" d="M48.8433 32C47.7919 32 47 31.0513 47 30C47 28.9487 47.7919 28 48.8433 28H54C55.1046 28 56 28.8954 56 30C56 31.1046 55.1046 32 54 32H48.8433ZM46.2023 21.6262C45.4589 22.3695 44.2287 22.2581 43.4853 21.5147C42.742 20.7714 42.6305 19.5411 43.3739 18.7978L47.0208 15.1508C47.8019 14.3697 49.0682 14.3697 49.8493 15.1508C50.6303 15.9318 50.6303 17.1982 49.8493 17.9792L46.2023 21.6262ZM37 16.1567C37 17.2081 36.0513 18 35 18C33.9487 18 33 17.2081 33 16.1567V11C33 9.89543 33.8954 9 35 9C36.1046 9 37 9.89543 37 11V16.1567ZM26.626 18.7979C27.3694 19.5412 27.2579 20.7715 26.5146 21.5148C25.7712 22.2582 24.5409 22.3697 23.7976 21.6263L20.1507 17.9795C19.3697 17.1984 19.3697 15.9321 20.1507 15.151C20.9318 14.37 22.1981 14.37 22.9792 15.151L26.626 18.7979ZM21.1567 28C22.2081 28 23 28.9487 23 30C23 31.0513 22.2081 32 21.1567 32H16C14.8954 32 14 31.1046 14 30C14 28.8954 14.8954 28 16 28H21.1567Z" fill="black" fill-opacity="0.4"/>
</svg>
