<svg width="347" height="348" viewBox="0 0 347 348" fill="none" xmlns="http://www.w3.org/2000/svg">
<path fill-rule="evenodd" clip-rule="evenodd" d="M0.32666 60.6152C0.32666 27.4782 27.1896 0.615234 60.3267 0.615234H286.327C319.464 0.615234 346.327 27.4781 346.327 60.6152V287.615C346.327 320.752 319.464 347.615 286.327 347.615H60.3267C27.1896 347.615 0.32666 320.752 0.32666 287.615V60.6152Z" fill="url(#paint0_linear_252_29)"/>
<path fill-rule="evenodd" clip-rule="evenodd" d="M134.223 164.458C122.579 152.67 122.696 133.676 134.484 122.032L203 54.3527C214.787 42.7091 233.782 42.8258 245.425 54.6132L278.276 87.8702C289.92 99.6576 289.803 118.652 278.016 130.296L220.619 186.992L225.391 191.823C237.035 203.611 236.918 222.605 225.131 234.249L156.615 301.928C144.827 313.572 125.833 313.455 114.189 301.668L81.3383 268.411C69.6947 256.623 69.8114 237.629 81.5988 225.985L138.996 169.289L134.223 164.458ZM149.535 179.96L92.1374 236.657C86.2437 242.479 86.1853 251.976 92.0071 257.87L124.861 291.129C130.682 297.023 140.18 297.081 146.073 291.26L214.592 223.578C220.486 217.756 220.544 208.259 214.722 202.365L209.948 197.532L209.5 197.975C197.712 209.619 178.717 209.502 167.074 197.715L149.535 179.96ZM199.408 186.862L198.958 187.306C193.064 193.128 183.567 193.07 177.745 187.176L160.206 169.42L160.656 168.975C166.55 163.153 176.047 163.211 181.869 169.105L199.408 186.862ZM210.079 176.321L192.541 158.566C180.897 146.779 161.902 146.662 150.115 158.306L149.666 158.749L144.892 153.916C139.07 148.023 139.128 138.525 145.022 132.704L213.541 65.0217C219.434 59.2 228.932 59.2583 234.753 65.152L267.607 98.4117C273.429 104.305 273.37 113.803 267.477 119.625L210.079 176.321Z" fill="black" fill-opacity="0.2"/>
<path fill-rule="evenodd" clip-rule="evenodd" d="M121.262 156.407C109.618 144.62 109.735 125.625 121.522 113.981L190.039 46.3019C201.826 34.6583 220.821 34.775 232.464 46.5625L265.315 79.8194C276.959 91.6068 276.842 110.601 265.054 122.245L207.658 178.941L212.43 183.772C224.074 195.56 223.957 214.555 212.17 226.198L143.654 293.878C131.866 305.521 112.871 305.405 101.228 293.617L68.3771 260.36C56.7335 248.573 56.8502 229.578 68.6377 217.935L126.034 161.239L121.262 156.407ZM136.574 171.909L79.1762 228.606C73.2825 234.428 73.2241 243.925 79.0459 249.819L111.899 283.078C117.721 288.972 127.219 289.031 133.112 283.209L201.631 215.527C207.524 209.705 207.583 200.208 201.761 194.314L196.987 189.481L196.538 189.925C184.751 201.568 165.756 201.451 154.113 189.664L136.574 171.909ZM186.447 178.811L185.997 179.256C180.103 185.077 170.606 185.019 164.784 179.125L147.244 161.369L147.695 160.924C153.588 155.102 163.086 155.161 168.907 161.054L186.447 178.811ZM197.118 168.271L179.579 150.516C167.936 138.728 148.941 138.611 137.154 150.255L136.705 150.699L131.931 145.866C126.109 139.972 126.167 130.475 132.061 124.653L200.579 56.971C206.473 51.1492 215.97 51.2075 221.792 57.1013L254.646 90.3609C260.468 96.2547 260.409 105.752 254.516 111.574L197.118 168.271Z" fill="#D9D9D9"/>
<defs>
<linearGradient id="paint0_linear_252_29" x1="173.327" y1="-301.267" x2="173.327" y2="438.093" gradientUnits="userSpaceOnUse">
<stop stop-color="#00F571"/>
<stop offset="1" stop-color="#0098ED"/>
</linearGradient>
</defs>
</svg>
