<svg width="347" height="348" viewBox="0 0 347 348" fill="none" xmlns="http://www.w3.org/2000/svg">
<path fill-rule="evenodd" clip-rule="evenodd" d="M0.615723 60.5979C0.615723 27.4608 27.4786 0.5979 60.6157 0.5979H286.616C319.753 0.5979 346.616 27.4608 346.616 60.5979V287.598C346.616 320.735 319.753 347.598 286.616 347.598H60.6157C27.4786 347.598 0.615723 320.735 0.615723 287.598V60.5979Z" fill="url(#paint0_linear_247_320)"/>
<path fill-rule="evenodd" clip-rule="evenodd" d="M173.616 279.56C240.794 279.56 295.253 234.924 295.253 179.863C295.253 124.802 240.794 80.166 173.616 80.166C106.437 80.166 51.9785 124.802 51.9785 179.863C51.9785 209.91 68.1954 236.852 93.8465 255.13C90.4207 263.833 86.4894 270.861 82.8727 277.326C81.1806 280.351 79.5573 283.252 78.087 286.145C78.087 286.145 100.819 287.344 123.18 270.613C138.545 276.359 155.624 279.56 173.616 279.56Z" fill="black" fill-opacity="0.18"/>
<path fill-rule="evenodd" clip-rule="evenodd" d="M173.616 263.795C240.794 263.795 295.253 219.159 295.253 164.098C295.253 109.037 240.794 64.4009 173.616 64.4009C106.437 64.4009 51.9785 109.037 51.9785 164.098C51.9785 194.144 68.1954 221.087 93.8465 239.365C90.4207 248.068 86.4894 255.096 82.8727 261.561C81.1806 264.586 79.5573 267.487 78.087 270.38C78.087 270.38 100.819 271.579 123.18 254.848C138.545 260.593 155.624 263.795 173.616 263.795Z" fill="#D9D9D9"/>
<circle cx="126.798" cy="167.4" r="15.6061" fill="#17A3EE"/>
<circle cx="126.798" cy="167.4" r="15.6061" fill="#17A3EE"/>
<circle cx="126.798" cy="167.4" r="15.6061" fill="#17A3EE"/>
<circle cx="126.798" cy="167.4" r="15.6061" fill="#17A3EE"/>
<circle cx="173.615" cy="167.4" r="15.6061" fill="#17A3EE"/>
<circle cx="173.615" cy="167.4" r="15.6061" fill="#17A3EE"/>
<circle cx="173.615" cy="167.4" r="15.6061" fill="#17A3EE"/>
<circle cx="173.615" cy="167.4" r="15.6061" fill="#17A3EE"/>
<circle cx="173.615" cy="167.4" r="15.6061" fill="#17A3EE"/>
<circle cx="173.615" cy="167.4" r="15.6061" fill="#17A3EE"/>
<circle cx="173.615" cy="167.4" r="15.6061" fill="#17A3EE"/>
<circle cx="173.615" cy="167.4" r="15.6061" fill="#17A3EE"/>
<circle cx="220.434" cy="167.4" r="15.6061" fill="#17A3EE"/>
<circle cx="220.434" cy="167.4" r="15.6061" fill="#17A3EE"/>
<circle cx="220.434" cy="167.4" r="15.6061" fill="#17A3EE"/>
<circle cx="220.434" cy="167.4" r="15.6061" fill="#17A3EE"/>
<defs>
<linearGradient id="paint0_linear_247_320" x1="173.616" y1="-250.818" x2="173.616" y2="502.564" gradientUnits="userSpaceOnUse">
<stop stop-color="#17B2F0"/>
<stop offset="1" stop-color="#176EE5"/>
</linearGradient>
</defs>
</svg>
