<svg width="401" height="401" viewBox="0 0 401 401" fill="none" xmlns="http://www.w3.org/2000/svg">
<rect x="0.380142" y="0.0466309" width="400" height="400" fill="#D8D8D8"/>
<g filter="url(#filter0_d_212_264)">
<path d="M113.996 304.047V89.3005H205.255C228.204 89.3005 244.855 91.2537 255.206 95.1599C265.656 98.9685 274.005 105.804 280.255 115.668C286.505 125.531 289.63 136.81 289.63 149.506C289.63 165.619 284.894 178.949 275.421 189.496C265.949 199.945 251.788 206.537 232.941 209.271C242.316 214.74 250.031 220.746 256.085 227.289C262.238 233.832 270.49 245.453 280.841 262.152L307.062 304.047H255.206L223.859 257.318C212.726 240.619 205.109 230.121 201.007 225.824C196.906 221.429 192.56 218.451 187.97 216.888C183.38 215.228 176.105 214.398 166.144 214.398H157.355V304.047H113.996ZM157.355 180.121H189.435C210.236 180.121 223.224 179.242 228.4 177.484C233.576 175.726 237.628 172.699 240.558 168.402C243.488 164.105 244.953 158.734 244.953 152.289C244.953 145.062 242.999 139.252 239.093 134.857C235.285 130.365 229.865 127.533 222.833 126.361C219.318 125.873 208.771 125.629 191.193 125.629H157.355V180.121Z" fill="url(#paint0_linear_212_264)"/>
<path d="M113.996 304.047H103.996V314.047H113.996V304.047ZM113.996 89.3005V79.3005H103.996V89.3005H113.996ZM255.206 95.1599L251.676 104.516L251.729 104.536L251.782 104.555L255.206 95.1599ZM275.421 189.496L282.83 196.212L282.846 196.195L282.861 196.178L275.421 189.496ZM232.941 209.271L231.505 199.375L203.175 203.485L227.902 217.909L232.941 209.271ZM256.085 227.289L248.746 234.081L248.773 234.11L248.8 234.139L256.085 227.289ZM280.841 262.152L272.342 267.421L272.353 267.439L272.365 267.457L280.841 262.152ZM307.062 304.047V314.047H325.118L315.539 298.741L307.062 304.047ZM255.206 304.047L246.902 309.618L249.873 314.047H255.206V304.047ZM223.859 257.318L215.538 262.865L215.546 262.877L215.554 262.889L223.859 257.318ZM201.007 225.824L193.697 232.647L193.735 232.688L193.774 232.729L201.007 225.824ZM187.97 216.888L184.569 226.292L184.658 226.324L184.747 226.355L187.97 216.888ZM157.355 214.398V204.398H147.355V214.398H157.355ZM157.355 304.047V314.047H167.355V304.047H157.355ZM157.355 180.121H147.355V190.121H157.355V180.121ZM239.093 134.857L231.466 141.324L231.541 141.413L231.619 141.501L239.093 134.857ZM222.833 126.361L224.477 116.497L224.344 116.475L224.209 116.456L222.833 126.361ZM157.355 125.629V115.629H147.355V125.629H157.355ZM123.996 304.047V89.3005H103.996V304.047H123.996ZM113.996 99.3005H205.255V79.3005H113.996V99.3005ZM205.255 99.3005C228.011 99.3005 243.119 101.287 251.676 104.516L258.737 85.8039C246.591 81.2206 228.398 79.3005 205.255 79.3005V99.3005ZM251.782 104.555C260.048 107.568 266.677 112.922 271.808 121.02L288.702 110.315C281.334 98.6866 271.263 90.3688 258.631 85.7645L251.782 104.555ZM271.808 121.02C276.956 129.143 279.63 138.534 279.63 149.506H299.63C299.63 135.087 296.055 121.919 288.702 110.315L271.808 121.02ZM279.63 149.506C279.63 163.513 275.58 174.354 267.982 182.814L282.861 196.178C294.208 183.544 299.63 167.725 299.63 149.506H279.63ZM268.013 182.779C260.572 190.987 248.859 196.857 231.505 199.375L234.377 219.168C254.718 216.217 271.325 208.903 282.83 196.212L268.013 182.779ZM227.902 217.909C236.602 222.984 243.49 228.401 248.746 234.081L263.425 220.497C256.571 213.091 248.03 206.496 237.98 200.633L227.902 217.909ZM248.8 234.139C254.217 239.9 262.029 250.784 272.342 267.421L289.341 256.883C278.95 240.122 270.258 227.763 263.371 220.439L248.8 234.139ZM272.365 267.457L298.585 309.352L315.539 298.741L289.318 256.847L272.365 267.457ZM307.062 294.047H255.206V314.047H307.062V294.047ZM263.511 298.476L232.163 251.747L215.554 262.889L246.902 309.618L263.511 298.476ZM232.179 251.771C221.171 235.259 213.062 223.97 208.241 218.919L193.774 232.729C197.155 236.271 204.281 245.978 215.538 262.865L232.179 251.771ZM208.318 219.001C203.358 213.686 197.673 209.628 191.193 207.422L184.747 226.355C187.447 227.274 190.454 229.173 193.697 232.647L208.318 219.001ZM191.371 207.485C185.059 205.201 176.315 204.398 166.144 204.398V224.398C175.894 224.398 181.702 225.255 184.569 226.292L191.371 207.485ZM166.144 204.398H157.355V224.398H166.144V204.398ZM147.355 214.398V304.047H167.355V214.398H147.355ZM157.355 294.047H113.996V314.047H157.355V294.047ZM157.355 190.121H189.435V170.121H157.355V190.121ZM189.435 190.121C199.945 190.121 208.641 189.9 215.452 189.439C221.95 188.999 227.666 188.294 231.616 186.953L225.184 168.015C223.957 168.432 220.592 169.045 214.102 169.484C207.924 169.903 199.726 170.121 189.435 170.121V190.121ZM231.616 186.953C238.733 184.536 244.604 180.22 248.82 174.035L232.296 162.769C230.653 165.178 228.418 166.917 225.184 168.015L231.616 186.953ZM248.82 174.035C253.127 167.718 254.953 160.26 254.953 152.289H234.953C234.953 157.209 233.848 160.492 232.296 162.769L248.82 174.035ZM254.953 152.289C254.953 143.199 252.452 134.833 246.567 128.214L231.619 141.501C233.547 143.67 234.953 146.926 234.953 152.289H254.953ZM246.721 128.39C241.077 121.734 233.331 117.973 224.477 116.497L221.189 136.225C226.398 137.093 229.492 138.996 231.466 141.324L246.721 128.39ZM224.209 116.456C219.832 115.848 208.415 115.629 191.193 115.629V135.629C209.127 135.629 218.803 135.897 221.458 136.266L224.209 116.456ZM191.193 115.629H157.355V135.629H191.193V115.629ZM147.355 125.629V180.121H167.355V125.629H147.355Z" fill="#B3B4DA"/>
</g>
<defs>
<filter id="filter0_d_212_264" x="93.9955" y="79.3005" width="233.066" height="254.746" filterUnits="userSpaceOnUse" color-interpolation-filters="sRGB">
<feFlood flood-opacity="0" result="BackgroundImageFix"/>
<feColorMatrix in="SourceAlpha" type="matrix" values="0 0 0 0 0 0 0 0 0 0 0 0 0 0 0 0 0 0 127 0" result="hardAlpha"/>
<feOffset dy="10"/>
<feGaussianBlur stdDeviation="10"/>
<feComposite in2="hardAlpha" operator="out"/>
<feColorMatrix type="matrix" values="0 0 0 0 0 0 0 0 0 0 0 0 0 0 0 0 0 0 0.25 0"/>
<feBlend mode="normal" in2="BackgroundImageFix" result="effect1_dropShadow_212_264"/>
<feBlend mode="normal" in="SourceGraphic" in2="effect1_dropShadow_212_264" result="shape"/>
</filter>
<linearGradient id="paint0_linear_212_264" x1="90.5" y1="81" x2="325" y2="339.5" gradientUnits="userSpaceOnUse">
<stop stop-color="#60B1CB"/>
<stop offset="0.517777" stop-color="#8664CE"/>
<stop offset="1" stop-color="#9B5BB9"/>
</linearGradient>
</defs>
</svg>
