<svg width="458" height="458" viewBox="0 0 458 458" fill="none" xmlns="http://www.w3.org/2000/svg">
<path d="M219.023 256.595C219.023 262.118 223.5 266.595 229.023 266.595C234.546 266.595 239.023 262.118 239.023 256.595L219.023 256.595ZM236.094 36.1033C232.189 32.1981 225.857 32.1981 221.952 36.1033L158.312 99.743C154.407 103.648 154.407 109.98 158.312 113.885C162.218 117.79 168.549 117.79 172.454 113.885L229.023 57.3165L285.592 113.885C289.497 117.79 295.828 117.79 299.734 113.885C303.639 109.98 303.639 103.648 299.734 99.7429L236.094 36.1033ZM239.023 256.595L239.023 43.1744L219.023 43.1744L219.023 256.595L239.023 256.595Z" fill="white" fill-opacity="0.2"/>
<path fill-rule="evenodd" clip-rule="evenodd" d="M199.023 153.595C199.023 148.072 194.546 143.595 189.023 143.595H151.023C123.409 143.595 101.023 165.981 101.023 193.595V349.595C101.023 377.209 123.409 399.595 151.023 399.595H307.023C334.637 399.595 357.023 377.209 357.023 349.595V193.595C357.023 165.981 334.637 143.595 307.023 143.595H269.023C263.5 143.595 259.023 148.072 259.023 153.595V153.595C259.023 159.118 263.5 163.595 269.023 163.595H307.023C323.592 163.595 337.023 177.026 337.023 193.595V349.595C337.023 366.164 323.592 379.595 307.023 379.595H151.023C134.454 379.595 121.023 366.164 121.023 349.595V193.595C121.023 177.026 134.454 163.595 151.023 163.595H189.023C194.546 163.595 199.023 159.118 199.023 153.595V153.595Z" fill="white" fill-opacity="0.2"/>
</svg>
