<svg width="347" height="347" viewBox="0 0 347 347" fill="none" xmlns="http://www.w3.org/2000/svg">
<path fill-rule="evenodd" clip-rule="evenodd" d="M0.360962 60C0.360962 26.8629 27.2239 0 60.361 0H286.361C319.498 0 346.361 26.8629 346.361 60V287C346.361 320.137 319.498 347 286.361 347H60.361C27.2239 347 0.360962 320.137 0.360962 287V60Z" fill="#333333"/>
<path fill-rule="evenodd" clip-rule="evenodd" d="M213.168 109.051C213.168 90.148 228.696 74.8243 247.851 74.8243C267.005 74.8243 282.533 90.148 282.533 109.051C282.533 127.954 267.005 143.277 247.851 143.277C228.696 143.277 213.168 127.954 213.168 109.051ZM239.433 109.05C239.433 104.463 243.202 100.743 247.851 100.743C252.5 100.743 256.268 104.463 256.268 109.05C256.268 113.638 252.5 117.357 247.851 117.357C243.202 117.357 239.433 113.638 239.433 109.05ZM247.851 92.6101C238.771 92.6101 231.411 99.9706 231.411 109.05C231.411 118.13 238.771 125.491 247.851 125.491C256.93 125.491 264.291 118.13 264.291 109.05C264.291 99.9706 256.93 92.6101 247.851 92.6101ZM247.851 95.4743C255.349 95.4743 261.427 101.552 261.427 109.05C261.427 116.548 255.349 122.626 247.851 122.626C240.353 122.626 234.275 116.548 234.275 109.05C234.275 101.552 240.353 95.4743 247.851 95.4743Z" fill="#6B6A6A"/>
<path fill-rule="evenodd" clip-rule="evenodd" d="M183.205 311.36C184.689 313.13 187.532 312.628 188.322 310.458L190.549 304.34C192.615 298.663 199.205 296.1 204.564 298.89L210.549 302.006C212.598 303.072 215.032 301.521 214.931 299.214L214.647 292.709C214.384 286.673 219.491 281.784 225.509 282.31L232.232 282.899C234.532 283.1 236.188 280.735 235.212 278.642L232.46 272.74C229.907 267.265 232.754 260.794 238.516 258.977L244.952 256.948C247.154 256.253 247.779 253.435 246.076 251.875L241.275 247.476C236.821 243.394 236.975 236.326 241.603 232.442L246.773 228.105C248.542 226.62 248.04 223.777 245.87 222.987L239.752 220.761C234.075 218.694 231.512 212.105 234.302 206.746L237.417 200.761C238.484 198.713 236.933 196.278 234.626 196.379L228.121 196.663C222.085 196.926 217.196 191.819 217.722 185.801L218.311 179.079C218.512 176.778 216.147 175.122 214.054 176.098L208.153 178.85C202.678 181.403 196.206 178.556 194.389 172.794L192.36 166.358C191.666 164.155 188.847 163.531 187.287 165.233L182.888 170.034C178.807 174.488 171.738 174.334 167.855 169.706L163.518 164.538C162.033 162.768 159.19 163.27 158.401 165.44L156.174 171.558C154.107 177.235 147.518 179.798 142.159 177.008L136.174 173.892C134.125 172.826 131.691 174.377 131.791 176.684L132.075 183.19C132.339 189.225 127.232 194.114 121.213 193.588L114.491 193C112.19 192.798 110.535 195.163 111.511 197.256L114.262 203.156C116.815 208.632 113.968 215.103 108.206 216.92L101.771 218.949C99.5681 219.643 98.9433 222.462 100.646 224.022L105.447 228.421C109.901 232.503 109.747 239.571 105.119 243.455L99.9494 247.792C98.1803 249.277 98.6816 252.12 100.852 252.91L106.97 255.137C112.647 257.203 115.21 263.792 112.42 269.151L109.304 275.137C108.238 277.185 109.789 279.62 112.096 279.519L118.602 279.235C124.637 278.972 129.527 284.079 129 290.097L128.412 296.819C128.211 299.12 130.575 300.775 132.668 299.799L138.57 297.048C144.045 294.495 150.516 297.342 152.333 303.104L154.362 309.539C155.056 311.741 157.875 312.366 159.435 310.663L163.834 305.863C167.915 301.409 174.984 301.563 178.867 306.191L183.205 311.36ZM164.811 189.46C138.032 194.182 120.151 219.719 124.872 246.499C129.594 273.278 155.131 291.16 181.911 286.438C208.691 281.716 226.572 256.179 221.85 229.399C217.128 202.619 191.591 184.738 164.811 189.46Z" fill="#6B6A6A"/>
<path fill-rule="evenodd" clip-rule="evenodd" d="M138.679 237.949C138.679 219.046 154.207 203.723 173.361 203.723C192.516 203.723 208.044 219.046 208.044 237.949C208.044 256.852 192.516 272.176 173.361 272.176C154.207 272.176 138.679 256.852 138.679 237.949ZM164.944 237.949C164.944 233.361 168.712 229.642 173.361 229.642C178.01 229.642 181.779 233.361 181.779 237.949C181.779 242.537 178.01 246.256 173.361 246.256C168.712 246.256 164.944 242.537 164.944 237.949ZM173.361 221.508C164.281 221.508 156.921 228.869 156.921 237.949C156.921 247.028 164.281 254.389 173.361 254.389C182.441 254.389 189.801 247.028 189.801 237.949C189.801 228.869 182.441 221.508 173.361 221.508ZM173.361 224.373C180.859 224.373 186.937 230.451 186.937 237.949C186.937 245.447 180.859 251.525 173.361 251.525C165.863 251.525 159.785 245.447 159.785 237.949C159.785 230.451 165.863 224.373 173.361 224.373Z" fill="#6B6A6A"/>
<path fill-rule="evenodd" clip-rule="evenodd" d="M257.694 182.462C259.179 184.231 262.022 183.73 262.812 181.559L265.039 175.441C267.105 169.764 273.694 167.201 279.053 169.991L285.039 173.107C287.087 174.173 289.522 172.622 289.421 170.315L289.137 163.809C288.873 157.774 293.981 152.885 299.999 153.411L306.721 153.999C309.021 154.201 310.677 151.836 309.701 149.743L306.949 143.841C304.396 138.366 307.244 131.895 313.005 130.078L319.441 128.049C321.644 127.354 322.268 124.536 320.566 122.976L315.765 118.577C311.311 114.496 311.465 107.427 316.093 103.544L321.262 99.2066C323.031 97.7221 322.53 94.8792 320.36 94.0894L314.241 91.8622C308.564 89.796 306.001 83.2065 308.791 77.8478L311.907 71.8623C312.973 69.8138 311.422 67.3792 309.115 67.4799L302.61 67.7639C296.575 68.0274 291.685 62.9201 292.212 56.9019L292.8 50.1797C293.001 47.8791 290.637 46.2233 288.544 47.1993L282.642 49.9511C277.167 52.5043 270.696 49.6568 268.879 43.8951L266.85 37.4596C266.155 35.2571 263.337 34.6323 261.777 36.3349L257.378 41.1357C253.296 45.5898 246.228 45.4355 242.344 40.8077L238.007 35.6389C236.523 33.8698 233.68 34.371 232.89 36.5412L230.663 42.6595C228.597 48.3364 222.007 50.8989 216.649 48.1094L210.663 44.9935C208.615 43.9271 206.18 45.4782 206.281 47.7854L206.565 54.2906C206.828 60.3261 201.721 65.2153 195.703 64.6888L188.98 64.1006C186.68 63.8993 185.024 66.264 186 68.3571L188.752 74.2581C191.305 79.7333 188.457 86.2048 182.696 88.0214L176.26 90.0505C174.058 90.7449 173.433 93.5633 175.136 95.1235L179.937 99.5228C184.391 103.604 184.237 110.673 179.609 114.556L174.439 118.894C172.67 120.378 173.171 123.221 175.341 124.011L181.46 126.238C187.137 128.304 189.699 134.894 186.91 140.252L183.794 146.238C182.727 148.286 184.279 150.721 186.586 150.62L193.091 150.336C199.127 150.073 204.016 155.18 203.489 161.198L202.901 167.92C202.7 170.221 205.065 171.877 207.158 170.901L213.059 168.149C218.534 165.596 225.006 168.443 226.822 174.205L228.852 180.64C229.546 182.843 232.364 183.467 233.925 181.765L238.323 176.964C242.405 172.51 249.473 172.664 253.357 177.292L257.694 182.462ZM239.301 60.5614C212.521 65.2834 194.64 90.8205 199.362 117.6C204.084 144.38 229.621 162.261 256.401 157.539C283.18 152.817 301.061 127.28 296.339 100.5C291.618 73.7207 266.08 55.8395 239.301 60.5614Z" fill="#6B6A6A"/>
<path fill-rule="evenodd" clip-rule="evenodd" d="M95.8178 183.056C96.9725 185.056 99.8593 185.056 101.014 183.056L104.27 177.417C107.29 172.185 114.225 170.806 119.017 174.484L124.371 178.592C126.203 179.997 128.87 178.893 129.172 176.603L130.022 170.147C130.81 164.157 136.689 160.229 142.524 161.793L149.042 163.539C151.273 164.137 153.314 162.096 152.716 159.865L151.031 153.576C149.467 147.74 153.395 141.862 159.385 141.073L166.075 140.192C168.364 139.891 169.469 137.224 168.063 135.392L164.1 130.226C160.422 125.433 161.801 118.499 167.033 115.478L172.877 112.104C174.877 110.949 174.877 108.063 172.877 106.908L167.238 103.652C162.006 100.632 160.626 93.6972 164.304 88.9043L168.412 83.5508C169.818 81.7186 168.713 79.0516 166.424 78.7502L159.968 77.9003C153.979 77.1118 150.051 71.2331 151.614 65.3977L153.361 58.8797C153.958 56.649 151.917 54.6078 149.686 55.2055L143.397 56.8908C137.561 58.4544 131.683 54.5264 130.894 48.5368L130.013 41.8466C129.712 39.557 127.045 38.4523 125.213 39.8582L120.047 43.822C115.254 47.4997 108.32 46.1204 105.299 40.8885L101.925 35.0451C100.771 33.0451 97.8839 33.0452 96.7292 35.0452L93.4737 40.6838C90.453 45.9157 83.5186 47.2951 78.7258 43.6174L73.3722 39.5094C71.54 38.1035 68.873 39.2082 68.5715 41.4979L67.7216 47.9536C66.9331 53.9432 61.0544 57.8712 55.219 56.3076L48.7009 54.5611C46.4702 53.9634 44.4289 56.0046 45.0267 58.2353L46.7119 64.5247C48.2755 70.3601 44.3475 76.2388 38.3579 77.0273L31.6676 77.9081C29.3779 78.2095 28.2732 80.8766 29.6791 82.7087L33.6432 87.8749C37.3209 92.6678 35.9416 99.6021 30.7097 102.623L24.8656 105.997C22.8656 107.152 22.8656 110.038 24.8656 111.193L30.5044 114.449C35.7363 117.469 37.1156 124.404 33.4379 129.196L29.3302 134.55C27.9243 136.382 29.029 139.049 31.3187 139.35L37.7747 140.2C43.7643 140.989 47.6923 146.868 46.1287 152.703L44.3823 159.221C43.7846 161.451 45.8258 163.493 48.0565 162.895L54.3459 161.21C60.1813 159.646 66.06 163.574 66.8486 169.564L67.7293 176.254C68.0308 178.543 70.6978 179.648 72.5299 178.242L77.6957 174.278C82.4886 170.601 89.4229 171.98 92.4436 177.212L95.8178 183.056ZM98.8714 59.8137C71.6787 59.8137 49.6347 81.8578 49.6347 109.05C49.6347 136.243 71.6787 158.287 98.8714 158.287C126.064 158.287 148.108 136.243 148.108 109.05C148.108 81.8578 126.064 59.8137 98.8714 59.8137Z" fill="#6B6A6A"/>
<path fill-rule="evenodd" clip-rule="evenodd" d="M64.189 109.051C64.189 90.148 79.7168 74.8243 98.8714 74.8243C118.026 74.8243 133.554 90.148 133.554 109.051C133.554 127.954 118.026 143.277 98.8714 143.277C79.7168 143.277 64.189 127.954 64.189 109.051ZM90.4538 109.05C90.4538 104.463 94.2225 100.743 98.8714 100.743C103.52 100.743 107.289 104.463 107.289 109.05C107.289 113.638 103.52 117.357 98.8714 117.357C94.2225 117.357 90.4538 113.638 90.4538 109.05ZM98.8714 92.6101C89.7917 92.6101 82.4312 99.9706 82.4312 109.05C82.4312 118.13 89.7917 125.491 98.8714 125.491C107.951 125.491 115.312 118.13 115.312 109.05C115.312 99.9706 107.951 92.6101 98.8714 92.6101ZM98.8714 95.4743C106.369 95.4743 112.447 101.552 112.447 109.05C112.447 116.548 106.369 122.626 98.8714 122.626C91.3736 122.626 85.2954 116.548 85.2954 109.05C85.2954 101.552 91.3736 95.4743 98.8714 95.4743Z" fill="#6B6A6A"/>
</svg>
