<svg width="347" height="348" viewBox="0 0 347 348" fill="none" xmlns="http://www.w3.org/2000/svg">
<path fill-rule="evenodd" clip-rule="evenodd" d="M0.360962 60.5991C0.360962 27.462 27.2239 0.599121 60.361 0.599121H286.361C319.498 0.599121 346.361 27.462 346.361 60.5991V287.599C346.361 320.736 319.498 347.599 286.361 347.599H60.361C27.2239 347.599 0.360962 320.736 0.360962 287.599V60.5991Z" fill="url(#paint0_linear_247_297)"/>
<path fill-rule="evenodd" clip-rule="evenodd" d="M234.81 213.906C253.713 213.906 269.037 229.434 269.037 248.589C269.037 267.743 253.713 283.271 234.81 283.271C215.907 283.271 200.584 267.743 200.584 248.589C200.584 229.434 215.907 213.906 234.81 213.906ZM234.811 240.171C239.398 240.171 243.117 243.94 243.117 248.589C243.117 253.238 239.398 257.006 234.811 257.006C230.223 257.006 226.504 253.238 226.504 248.589C226.504 243.94 230.223 240.171 234.811 240.171ZM251.251 248.589C251.251 239.509 243.89 232.149 234.811 232.149C225.731 232.149 218.37 239.509 218.37 248.589C218.37 257.668 225.731 265.029 234.811 265.029C243.89 265.029 251.251 257.668 251.251 248.589ZM248.387 248.589C248.387 256.087 242.308 262.165 234.811 262.165C227.313 262.165 221.235 256.087 221.235 248.589C221.235 241.091 227.313 235.013 234.811 235.013C242.308 235.013 248.387 241.091 248.387 248.589Z" fill="#D2D2D2"/>
<path fill-rule="evenodd" clip-rule="evenodd" d="M31.9218 177.508C30.0301 178.832 30.2817 181.708 32.3747 182.684L38.2759 185.436C43.7511 187.989 45.7296 194.777 42.4836 199.872L38.8579 205.563C37.6171 207.511 38.9501 210.071 41.2573 210.172L47.7624 210.456C53.7979 210.719 58.2234 216.233 57.1743 222.183L56.0025 228.828C55.6015 231.103 57.8129 232.958 59.983 232.168L66.1022 229.941C71.7791 227.875 77.9778 231.276 79.2853 237.174L80.7459 243.762C81.2457 246.016 83.9988 246.884 85.7015 245.324L90.5025 240.925C94.9566 236.843 101.985 237.613 105.45 242.562L109.321 248.089C110.645 249.981 113.521 249.73 114.497 247.637L117.249 241.735C119.802 236.26 126.59 234.282 131.685 237.528L137.375 241.153C139.323 242.394 141.884 241.061 141.984 238.754L142.268 232.249C142.532 226.213 148.046 221.788 153.995 222.837L160.641 224.009C162.915 224.41 164.771 222.198 163.981 220.028L161.754 213.909C159.687 208.232 163.088 202.034 168.986 200.726L175.575 199.266C177.829 198.766 178.697 196.013 177.137 194.31L172.738 189.509C168.657 185.055 169.426 178.027 174.375 174.562L179.902 170.692C181.794 169.367 181.542 166.491 179.449 165.515L173.548 162.764C168.073 160.21 166.094 153.423 169.34 148.328L172.966 142.636C174.207 140.689 172.874 138.128 170.566 138.027L164.061 137.743C158.026 137.48 153.6 131.966 154.649 126.016L155.821 119.371C156.222 117.097 154.011 115.241 151.841 116.031L145.723 118.258C140.046 120.324 133.847 116.923 132.54 111.025L131.079 104.437C130.579 102.183 127.826 101.315 126.124 102.875L121.322 107.274C116.868 111.356 109.84 110.586 106.375 105.637L102.504 100.109C101.18 98.2174 98.3038 98.469 97.3278 100.562L94.576 106.463C92.0229 111.939 85.2351 113.917 80.1399 110.671L74.4486 107.045C72.5009 105.804 69.9403 107.137 69.8396 109.445L69.5555 115.95C69.292 121.986 63.778 126.411 57.8286 125.362L51.1834 124.19C48.9091 123.789 47.0536 126.001 47.8434 128.171L50.0704 134.289C52.1367 139.966 48.7359 146.165 42.8379 147.473L36.2504 148.933C33.9958 149.433 33.1277 152.186 34.6879 153.889L39.0869 158.689C43.1683 163.143 42.3986 170.172 37.4499 173.637L31.9218 177.508ZM154.961 169.808C152.591 142.719 128.71 122.68 101.621 125.05C74.5315 127.42 54.4926 151.302 56.8626 178.391C59.2326 205.48 83.114 225.519 110.203 223.149C137.293 220.779 157.331 196.897 154.961 169.808Z" fill="#D2D2D2"/>
<path fill-rule="evenodd" clip-rule="evenodd" d="M105.912 139.417C124.815 139.417 140.138 154.945 140.138 174.1C140.138 193.254 124.815 208.782 105.912 208.782C87.0089 208.782 71.6852 193.254 71.6852 174.1C71.6852 154.945 87.0089 139.417 105.912 139.417ZM105.912 165.682C110.5 165.682 114.219 169.451 114.219 174.1C114.219 178.748 110.5 182.517 105.912 182.517C101.324 182.517 97.6049 178.748 97.6049 174.1C97.6049 169.451 101.324 165.682 105.912 165.682ZM122.352 174.1C122.352 165.02 114.992 157.659 105.912 157.659C96.8326 157.659 89.472 165.02 89.472 174.1C89.472 183.179 96.8326 190.54 105.912 190.54C114.992 190.54 122.352 183.179 122.352 174.1ZM119.488 174.1C119.488 181.597 113.41 187.676 105.912 187.676C98.4145 187.676 92.3363 181.597 92.3363 174.1C92.3363 166.602 98.4145 160.524 105.912 160.524C113.41 160.524 119.488 166.602 119.488 174.1Z" fill="#D2D2D2"/>
<path fill-rule="evenodd" clip-rule="evenodd" d="M161.898 261.625C160.195 263.186 160.82 266.004 163.023 266.698L169.232 268.656C174.994 270.473 177.842 276.945 175.288 282.42L172.437 288.536C171.461 290.629 173.116 292.993 175.417 292.792L181.904 292.224C187.922 291.698 193.03 296.587 192.766 302.623L192.472 309.364C192.371 311.671 194.806 313.222 196.854 312.156L202.63 309.149C207.989 306.359 214.578 308.922 216.645 314.599L218.952 320.94C219.742 323.11 222.585 323.611 224.07 321.842L228.255 316.854C232.138 312.227 239.207 312.072 243.288 316.526L247.847 321.501C249.407 323.204 252.225 322.579 252.92 320.377L254.878 314.166C256.694 308.405 263.166 305.557 268.641 308.11L274.757 310.962C276.85 311.938 279.215 310.282 279.013 307.982L278.446 301.495C277.919 295.477 282.808 290.37 288.844 290.633L295.585 290.928C297.893 291.028 299.444 288.594 298.377 286.545L295.371 280.77C292.581 275.411 295.144 268.821 300.821 266.755L307.161 264.447C309.332 263.657 309.833 260.814 308.064 259.33L303.076 255.144C298.448 251.261 298.294 244.193 302.748 240.111L307.722 235.553C309.425 233.993 308.8 231.174 306.598 230.48L300.388 228.522C294.626 226.705 291.779 220.234 294.332 214.759L297.184 208.643C298.16 206.55 296.504 204.185 294.204 204.386L287.717 204.954C281.699 205.48 276.591 200.591 276.855 194.556L277.149 187.814C277.25 185.507 274.815 183.956 272.767 185.022L266.991 188.028C261.633 190.818 255.043 188.255 252.977 182.579L250.669 176.238C249.879 174.068 247.036 173.567 245.552 175.336L241.366 180.324C237.483 184.952 230.414 185.106 226.333 180.652L221.774 175.676C220.214 173.974 217.395 174.599 216.701 176.801L214.743 183.011C212.926 188.772 206.455 191.62 200.979 189.067L194.864 186.215C192.771 185.239 190.406 186.895 190.608 189.196L191.175 195.683C191.702 201.701 186.812 206.808 180.777 206.545L174.036 206.25C171.729 206.15 170.177 208.584 171.244 210.633L174.25 216.408C177.04 221.767 174.477 228.357 168.801 230.423L162.46 232.731C160.29 233.52 159.788 236.363 161.558 237.848L166.545 242.033C171.173 245.916 171.327 252.985 166.873 257.066L161.898 261.625ZM284.047 248.589C284.047 221.396 262.003 199.352 234.81 199.352C207.618 199.352 185.574 221.396 185.574 248.589C185.574 275.782 207.618 297.826 234.81 297.826C262.003 297.826 284.047 275.782 284.047 248.589Z" fill="#D2D2D2"/>
<path fill-rule="evenodd" clip-rule="evenodd" d="M160.805 96.5561C158.805 97.7108 158.805 100.598 160.805 101.752L166.444 105.008C171.675 108.029 173.055 114.963 169.377 119.756L165.269 125.109C163.863 126.941 164.968 129.608 167.258 129.91L173.714 130.76C179.703 131.548 183.631 137.427 182.068 143.262L180.321 149.78C179.724 152.011 181.765 154.052 183.996 153.455L190.285 151.769C196.121 150.206 201.999 154.134 202.788 160.123L203.669 166.813C203.97 169.103 206.637 170.207 208.469 168.802L213.635 164.838C218.428 161.16 225.362 162.54 228.383 167.771L231.757 173.615C232.911 175.615 235.798 175.615 236.953 173.615L240.209 167.976C243.229 162.744 250.164 161.365 254.956 165.042L260.31 169.15C262.142 170.556 264.809 169.452 265.111 167.162L265.961 160.706C266.749 154.717 272.628 150.789 278.463 152.352L284.981 154.099C287.212 154.697 289.253 152.655 288.655 150.425L286.97 144.135C285.406 138.3 289.334 132.421 295.324 131.632L302.014 130.752C304.304 130.45 305.409 127.783 304.003 125.951L300.039 120.785C296.361 115.992 297.74 109.058 302.972 106.037L308.816 102.664C310.816 101.509 310.816 98.6221 308.816 97.4674L303.177 94.2119C297.945 91.1913 296.566 84.2569 300.243 79.4641L304.351 74.1104C305.757 72.2783 304.653 69.6113 302.363 69.3098L295.907 68.4599C289.918 67.6714 285.99 61.7927 287.553 55.9573L289.3 49.4392C289.897 47.2085 287.856 45.1672 285.626 45.7649L279.336 47.4502C273.501 49.0138 267.622 45.0857 266.834 39.0962L265.953 32.4058C265.651 30.1162 262.984 29.0115 261.152 30.4174L255.986 34.3815C251.193 38.0592 244.259 36.6799 241.238 31.448L237.864 25.6039C236.709 23.6039 233.823 23.6039 232.668 25.6039L229.412 31.2427C226.392 36.4745 219.457 37.8539 214.664 34.1762L209.311 30.0685C207.479 28.6626 204.812 29.7673 204.51 32.0569L203.661 38.513C202.872 44.5026 196.993 48.4306 191.158 46.867L184.64 45.1206C182.409 44.5229 180.368 46.5641 180.966 48.7948L182.651 55.0842C184.215 60.9196 180.287 66.7983 174.297 67.5869L167.607 68.4676C165.318 68.769 164.213 71.4361 165.619 73.2682L169.583 78.434C173.26 83.2268 171.881 90.1612 166.649 93.1818L160.805 96.5561ZM284.047 99.6097C284.047 72.417 262.003 50.373 234.81 50.373C207.618 50.373 185.574 72.417 185.574 99.6097C185.574 126.802 207.618 148.846 234.81 148.846C262.003 148.846 284.047 126.802 284.047 99.6097Z" fill="#D2D2D2"/>
<path fill-rule="evenodd" clip-rule="evenodd" d="M234.81 64.9271C253.713 64.9271 269.037 80.455 269.037 99.6096C269.037 118.764 253.713 134.292 234.81 134.292C215.907 134.292 200.584 118.764 200.584 99.6096C200.584 80.455 215.907 64.9271 234.81 64.9271ZM234.811 91.192C239.398 91.192 243.117 94.9606 243.117 99.6095C243.117 104.258 239.398 108.027 234.811 108.027C230.223 108.027 226.504 104.258 226.504 99.6095C226.504 94.9606 230.223 91.192 234.811 91.192ZM251.251 99.6096C251.251 90.5299 243.89 83.1694 234.811 83.1694C225.731 83.1694 218.37 90.5299 218.37 99.6096C218.37 108.689 225.731 116.05 234.811 116.05C243.89 116.05 251.251 108.689 251.251 99.6096ZM248.387 99.6096C248.387 107.107 242.308 113.186 234.811 113.186C227.313 113.186 221.235 107.107 221.235 99.6096C221.235 92.1118 227.313 86.0336 234.811 86.0336C242.308 86.0336 248.387 92.1118 248.387 99.6096Z" fill="#D2D2D2"/>
<path d="M155.912 174.104C155.912 201.719 133.526 224.104 105.912 224.104C78.2974 224.104 55.9116 201.719 55.9116 174.104C55.9116 146.49 78.2974 124.104 105.912 124.104C133.526 124.104 155.912 146.49 155.912 174.104ZM62.4428 174.104C62.4428 198.112 81.9044 217.573 105.912 217.573C129.919 217.573 149.38 198.112 149.38 174.104C149.38 150.097 129.919 130.636 105.912 130.636C81.9044 130.636 62.4428 150.097 62.4428 174.104Z" fill="#58596F"/>
<path d="M284.81 99.6099C284.81 127.224 262.424 149.61 234.81 149.61C207.196 149.61 184.81 127.224 184.81 99.6099C184.81 71.9956 207.196 49.6099 234.81 49.6099C262.424 49.6099 284.81 71.9956 284.81 99.6099ZM191.341 99.6099C191.341 123.617 210.803 143.079 234.81 143.079C258.817 143.079 278.279 123.617 278.279 99.6099C278.279 75.6027 258.817 56.141 234.81 56.141C210.803 56.141 191.341 75.6027 191.341 99.6099Z" fill="#58596F"/>
<path d="M284.81 248.589C284.81 276.203 262.424 298.589 234.81 298.589C207.196 298.589 184.81 276.203 184.81 248.589C184.81 220.975 207.196 198.589 234.81 198.589C262.424 198.589 284.81 220.975 284.81 248.589ZM191.341 248.589C191.341 272.596 210.803 292.058 234.81 292.058C258.817 292.058 278.279 272.596 278.279 248.589C278.279 224.582 258.817 205.12 234.81 205.12C210.803 205.12 191.341 224.582 191.341 248.589Z" fill="#58596F"/>
<circle cx="105.912" cy="174.099" r="6.13858" fill="#58596E"/>
<circle cx="234.81" cy="248.589" r="6.13858" fill="#58596E"/>
<circle cx="234.81" cy="99.6098" r="6.13858" fill="#58596E"/>
<path d="M141.728 174.263C141.728 194.044 125.692 210.079 105.912 210.079C86.1309 210.079 70.0955 194.044 70.0955 174.263C70.0955 154.482 86.1309 138.447 105.912 138.447C125.692 138.447 141.728 154.482 141.728 174.263ZM75.1853 174.263C75.1853 191.233 88.9419 204.989 105.912 204.989C122.881 204.989 136.638 191.233 136.638 174.263C136.638 157.293 122.881 143.537 105.912 143.537C88.9419 143.537 75.1853 157.293 75.1853 174.263Z" fill="#ADADAD"/>
<path d="M164.96 174.099C164.96 206.71 138.523 233.147 105.912 233.147C73.3006 233.147 46.864 206.71 46.864 174.099C46.864 141.488 73.3006 115.051 105.912 115.051C138.523 115.051 164.96 141.488 164.96 174.099ZM56.3128 174.099C56.3128 201.492 78.5191 223.698 105.912 223.698C133.305 223.698 155.511 201.492 155.511 174.099C155.511 146.706 133.305 124.5 105.912 124.5C78.5191 124.5 56.3128 146.706 56.3128 174.099Z" fill="#ADADAD"/>
<path d="M270.627 99.7737C270.627 119.554 254.591 135.59 234.81 135.59C215.03 135.59 198.994 119.554 198.994 99.7737C198.994 79.993 215.03 63.9575 234.81 63.9575C254.591 63.9575 270.627 79.993 270.627 99.7737ZM204.084 99.7737C204.084 116.743 217.841 130.5 234.81 130.5C251.78 130.5 265.537 116.743 265.537 99.7737C265.537 82.804 251.78 69.0474 234.81 69.0474C217.841 69.0474 204.084 82.804 204.084 99.7737Z" fill="#ADADAD"/>
<path d="M293.859 99.6099C293.859 132.221 267.422 158.658 234.811 158.658C202.199 158.658 175.763 132.221 175.763 99.6099C175.763 66.9986 202.199 40.562 234.811 40.562C267.422 40.562 293.859 66.9986 293.859 99.6099ZM185.212 99.6099C185.212 127.003 207.418 149.209 234.811 149.209C262.204 149.209 284.41 127.003 284.41 99.6099C284.41 72.217 262.204 50.0108 234.811 50.0108C207.418 50.0108 185.212 72.217 185.212 99.6099Z" fill="#ADADAD"/>
<path d="M270.627 248.753C270.627 268.533 254.591 284.569 234.81 284.569C215.03 284.569 198.994 268.533 198.994 248.753C198.994 228.972 215.03 212.937 234.81 212.937C254.591 212.937 270.627 228.972 270.627 248.753ZM204.084 248.753C204.084 265.722 217.841 279.479 234.81 279.479C251.78 279.479 265.537 265.722 265.537 248.753C265.537 231.783 251.78 218.026 234.81 218.026C217.841 218.026 204.084 231.783 204.084 248.753Z" fill="#ADADAD"/>
<path d="M293.859 248.589C293.859 281.2 267.422 307.637 234.811 307.637C202.199 307.637 175.763 281.2 175.763 248.589C175.763 215.978 202.199 189.541 234.811 189.541C267.422 189.541 293.859 215.978 293.859 248.589ZM185.212 248.589C185.212 275.982 207.418 298.188 234.811 298.188C262.204 298.188 284.41 275.982 284.41 248.589C284.41 221.196 262.204 198.99 234.811 198.99C207.418 198.99 185.212 221.196 185.212 248.589Z" fill="#ADADAD"/>
<rect x="73.9332" y="171.033" width="16.1534" height="6.46038" fill="#ADADAD"/>
<rect x="121.737" y="171.033" width="16.1534" height="6.46038" fill="#ADADAD"/>
<rect x="102.681" y="206.242" width="16.1534" height="6.46038" transform="rotate(-90 102.681 206.242)" fill="#ADADAD"/>
<rect x="102.682" y="158.438" width="16.1534" height="6.46038" transform="rotate(-90 102.682 158.438)" fill="#ADADAD"/>
<rect x="81.0153" y="194.591" width="16.1534" height="6.46038" transform="rotate(-45 81.0153 194.591)" fill="#ADADAD"/>
<rect x="114.818" y="160.789" width="16.1534" height="6.46038" transform="rotate(-45 114.818 160.789)" fill="#ADADAD"/>
<rect x="126.24" y="199.159" width="16.1534" height="6.46038" transform="rotate(-135 126.24 199.159)" fill="#ADADAD"/>
<rect x="92.4377" y="165.356" width="16.1534" height="6.46038" transform="rotate(-135 92.4377 165.356)" fill="#ADADAD"/>
<path d="M122.778 174.029C122.817 183.344 115.297 190.927 105.981 190.966C96.6662 191.005 89.0833 183.485 89.0445 174.17C89.0058 164.854 96.5259 157.271 105.841 157.233C115.156 157.194 122.739 164.714 122.778 174.029ZM92.6662 174.154C92.6966 181.47 98.6513 187.375 105.966 187.344C113.281 187.314 119.187 181.359 119.156 174.044C119.126 166.729 113.171 160.824 105.856 160.854C98.5411 160.885 92.6357 166.839 92.6662 174.154Z" fill="#58596E"/>
<rect x="202.832" y="245.522" width="16.1534" height="6.46038" fill="#ADADAD"/>
<rect x="250.636" y="245.523" width="16.1534" height="6.46038" fill="#ADADAD"/>
<rect x="231.58" y="280.731" width="16.1534" height="6.46038" transform="rotate(-90 231.58 280.731)" fill="#ADADAD"/>
<rect x="231.581" y="232.927" width="16.1534" height="6.46038" transform="rotate(-90 231.581 232.927)" fill="#ADADAD"/>
<rect x="209.914" y="269.08" width="16.1534" height="6.46038" transform="rotate(-45 209.914 269.08)" fill="#ADADAD"/>
<rect x="243.717" y="235.279" width="16.1534" height="6.46038" transform="rotate(-45 243.717 235.279)" fill="#ADADAD"/>
<rect x="255.139" y="273.649" width="16.1534" height="6.46038" transform="rotate(-135 255.139 273.649)" fill="#ADADAD"/>
<rect x="221.337" y="239.846" width="16.1534" height="6.46038" transform="rotate(-135 221.337 239.846)" fill="#ADADAD"/>
<path d="M251.677 248.519C251.716 257.834 244.196 265.417 234.88 265.456C225.565 265.494 217.982 257.974 217.944 248.659C217.905 239.344 225.425 231.761 234.74 231.722C244.055 231.683 251.638 239.203 251.677 248.519ZM221.565 248.644C221.596 255.959 227.55 261.864 234.865 261.834C242.181 261.804 248.086 255.849 248.055 248.534C248.025 241.219 242.07 235.313 234.755 235.344C227.44 235.374 221.535 241.329 221.565 248.644Z" fill="#58596E"/>
<rect x="202.832" y="96.3789" width="16.1534" height="6.46038" fill="#ADADAD"/>
<rect x="250.635" y="96.3794" width="16.1534" height="6.46038" fill="#ADADAD"/>
<rect x="231.58" y="131.588" width="16.1534" height="6.46038" transform="rotate(-90 231.58 131.588)" fill="#ADADAD"/>
<rect x="231.58" y="83.7842" width="16.1534" height="6.46038" transform="rotate(-90 231.58 83.7842)" fill="#ADADAD"/>
<rect x="209.914" y="119.937" width="16.1534" height="6.46038" transform="rotate(-45 209.914 119.937)" fill="#ADADAD"/>
<rect x="243.716" y="86.1353" width="16.1534" height="6.46038" transform="rotate(-45 243.716 86.1353)" fill="#ADADAD"/>
<rect x="255.138" y="124.505" width="16.1534" height="6.46038" transform="rotate(-135 255.138 124.505)" fill="#ADADAD"/>
<rect x="221.336" y="90.7026" width="16.1534" height="6.46038" transform="rotate(-135 221.336 90.7026)" fill="#ADADAD"/>
<path d="M251.676 99.3754C251.715 108.691 244.195 116.274 234.88 116.312C225.565 116.351 217.982 108.831 217.943 99.5157C217.904 90.2004 225.424 82.6175 234.74 82.5788C244.055 82.54 251.638 90.0601 251.676 99.3754ZM221.565 99.5006C221.595 106.816 227.55 112.721 234.865 112.691C242.18 112.66 248.085 106.706 248.055 99.3905C248.024 92.0754 242.07 86.17 234.755 86.2004C227.44 86.2308 221.534 92.1855 221.565 99.5006Z" fill="#58596E"/>
<defs>
<linearGradient id="paint0_linear_247_297" x1="173.361" y1="0.599121" x2="173.361" y2="347.599" gradientUnits="userSpaceOnUse">
<stop stop-color="#70718E"/>
<stop offset="1" stop-color="#5C5D79"/>
</linearGradient>
</defs>
</svg>
