<svg width="80" height="57" viewBox="0 0 80 57" fill="none" xmlns="http://www.w3.org/2000/svg">
<path fill-rule="evenodd" clip-rule="evenodd" d="M30.6006 47.3009C30.3459 47.9919 30.5992 48.7502 31.15 49.2389L38.6592 55.9005C39.4165 56.5723 40.5564 56.5723 41.3137 55.9005L48.8228 49.2389C49.3737 48.7502 49.627 47.9919 49.3723 47.301C47.9648 43.4824 44.2936 40.7593 39.9864 40.7593C35.6792 40.7593 32.008 43.4824 30.6006 47.3009ZM20.4073 39.7087C21.3761 40.5682 22.8933 40.2897 23.6406 39.2319C27.2619 34.1063 33.2333 30.7593 39.9864 30.7593C46.7396 30.7593 52.7109 34.1063 56.3322 39.2319C57.0796 40.2897 58.5968 40.5682 59.5656 39.7087L64.0101 35.7659C64.7459 35.1132 64.9036 34.0176 64.3279 33.22C58.8796 25.6719 50.0067 20.7593 39.9864 20.7593C29.9662 20.7593 21.0933 25.6719 15.645 33.22C15.0693 34.0176 15.2269 35.1131 15.9628 35.7659L20.4073 39.7087ZM5.45083 26.4405C6.34667 27.2353 7.73256 27.0669 8.47072 26.1239C15.7924 16.7706 27.1874 10.7593 39.9864 10.7593C52.7855 10.7593 64.1805 16.7706 71.5022 26.1239C72.2403 27.0669 73.6262 27.2353 74.522 26.4405L78.9996 22.4684C79.7716 21.7836 79.8991 20.6209 79.2598 19.8108C70.1034 8.20735 55.9147 0.759277 39.9864 0.759277C24.0581 0.759277 9.86945 8.20735 0.71308 19.8108C0.0738169 20.6209 0.201296 21.7835 0.973264 22.4684L5.45083 26.4405Z" fill="black" fill-opacity="0.4"/>
<path fill-rule="evenodd" clip-rule="evenodd" d="M30.6006 47.3009C30.3459 47.9919 30.5992 48.7502 31.15 49.2389L38.6592 55.9005C39.4165 56.5723 40.5564 56.5723 41.3137 55.9005L48.8228 49.2389C49.3737 48.7502 49.627 47.9919 49.3723 47.301C47.9648 43.4824 44.2936 40.7593 39.9864 40.7593C35.6792 40.7593 32.008 43.4824 30.6006 47.3009ZM20.4073 39.7087C21.3761 40.5682 22.8933 40.2897 23.6406 39.2319C27.2619 34.1063 33.2333 30.7593 39.9864 30.7593C46.7396 30.7593 52.7109 34.1063 56.3322 39.2319C57.0796 40.2897 58.5968 40.5682 59.5656 39.7087L64.0101 35.7659C64.7459 35.1132 64.9036 34.0176 64.3279 33.22C58.8796 25.6719 50.0067 20.7593 39.9864 20.7593C29.9662 20.7593 21.0933 25.6719 15.645 33.22C15.0693 34.0176 15.2269 35.1131 15.9628 35.7659L20.4073 39.7087ZM5.45083 26.4405C6.34667 27.2353 7.73256 27.0669 8.47072 26.1239C15.7924 16.7706 27.1874 10.7593 39.9864 10.7593C52.7855 10.7593 64.1805 16.7706 71.5022 26.1239C72.2403 27.0669 73.6262 27.2353 74.522 26.4405L78.9996 22.4684C79.7716 21.7836 79.8991 20.6209 79.2598 19.8108C70.1034 8.20735 55.9147 0.759277 39.9864 0.759277C24.0581 0.759277 9.86945 8.20735 0.71308 19.8108C0.0738169 20.6209 0.201296 21.7835 0.973264 22.4684L5.45083 26.4405Z" fill="white" fill-opacity="0"/>
</svg>
