<svg width="76" height="76" viewBox="0 0 76 76" fill="none" xmlns="http://www.w3.org/2000/svg">
<path fill-rule="evenodd" clip-rule="evenodd" d="M50.5694 51.5912C51.1249 52.2326 52.0996 52.3057 52.6997 51.7059C56.5923 47.8149 59 42.4386 59 36.5C59 24.6259 49.3741 15 37.5 15C25.6259 15 16 24.6259 16 36.5C16 42.4387 18.4078 47.815 22.3004 51.706C22.9005 52.3058 23.8752 52.2327 24.4307 51.5913V51.5913C24.9858 50.9502 24.9112 49.9848 24.3185 49.3783C21.0722 46.0561 19.0715 41.5115 19.0715 36.4997C19.0715 26.3218 27.3222 18.0711 37.5001 18.0711C47.6779 18.0711 55.9286 26.3218 55.9286 36.4997C55.9286 41.5115 53.9279 46.0561 50.6816 49.3783C50.089 49.9848 50.0143 50.9502 50.5694 51.5912V51.5912ZM46.5479 46.9475C47.1034 47.5889 48.0802 47.6633 48.663 47.0466C51.263 44.2956 52.8571 40.584 52.8571 36.5001C52.8571 28.0186 45.9814 21.143 37.4999 21.143C29.0184 21.143 22.1428 28.0186 22.1428 36.5001C22.1428 40.5841 23.737 44.2958 26.337 47.0468C26.9198 47.6634 27.8966 47.5891 28.4521 46.9477V46.9477C29.0072 46.3067 28.9294 45.3427 28.3623 44.7122C26.4052 42.536 25.2142 39.6569 25.2142 36.4997C25.2142 29.7145 30.7147 24.214 37.4999 24.214C44.2851 24.214 49.7856 29.7145 49.7856 36.4997C49.7856 39.6569 48.5947 42.5359 46.6376 44.7121C46.0706 45.3426 45.9928 46.3065 46.5479 46.9475V46.9475ZM30.3951 42.3677C30.9358 43.0217 31.9181 42.9455 32.4736 42.3041V42.3041C33.0288 41.663 32.9392 40.7008 32.4547 40.0048C31.7628 39.0108 31.3572 37.8026 31.3572 36.4997C31.3572 33.1071 34.1075 30.3568 37.5001 30.3568C40.8927 30.3568 43.6429 33.1071 43.6429 36.4997C43.6429 37.8026 43.2373 39.0108 42.5454 40.0048C42.061 40.7008 41.9714 41.663 42.5265 42.304V42.304C43.082 42.9454 44.0643 43.0216 44.605 42.3677C45.9226 40.774 46.7143 38.7296 46.7143 36.5002C46.7143 31.4113 42.5889 27.2859 37.5 27.2859C32.4111 27.2859 28.2857 31.4113 28.2857 36.5002C28.2857 38.7296 29.0775 40.774 30.3951 42.3677Z" fill="black" fill-opacity="0.4"/>
<path d="M37.2685 39.8519C37.3885 39.7064 37.6114 39.7064 37.7314 39.8519L50.3948 55.2054C50.5562 55.4011 50.417 55.6963 50.1633 55.6963H24.8366C24.583 55.6963 24.4438 55.4011 24.6052 55.2054L37.2685 39.8519Z" fill="black" fill-opacity="0.4"/>
</svg>
