<svg width="93" height="47" viewBox="0 0 93 47" fill="none" xmlns="http://www.w3.org/2000/svg">
<rect x="90" y="20" width="2.55592" height="7.05422" rx="1" fill="black" fill-opacity="0.4"/>
<path d="M4.61328 28H3.55859V21.2793C3.30469 21.5215 2.9707 21.7637 2.55664 22.0059C2.14648 22.248 1.77734 22.4297 1.44922 22.5508V21.5312C2.03906 21.2539 2.55469 20.918 2.99609 20.5234C3.4375 20.1289 3.75 19.7461 3.93359 19.375H4.61328V28ZM7.32031 23.7637C7.32031 22.748 7.42383 21.9316 7.63086 21.3145C7.8418 20.6934 8.15234 20.2148 8.5625 19.8789C8.97656 19.543 9.49609 19.375 10.1211 19.375C10.582 19.375 10.9863 19.4688 11.334 19.6562C11.6816 19.8398 11.9688 20.1074 12.1953 20.459C12.4219 20.8066 12.5996 21.2324 12.7285 21.7363C12.8574 22.2363 12.9219 22.9121 12.9219 23.7637C12.9219 24.7715 12.8184 25.5859 12.6113 26.207C12.4043 26.8242 12.0938 27.3027 11.6797 27.6426C11.2695 27.9785 10.75 28.1465 10.1211 28.1465C9.29297 28.1465 8.64258 27.8496 8.16992 27.2559C7.60352 26.541 7.32031 25.377 7.32031 23.7637ZM8.4043 23.7637C8.4043 25.1738 8.56836 26.1133 8.89648 26.582C9.22852 27.0469 9.63672 27.2793 10.1211 27.2793C10.6055 27.2793 11.0117 27.0449 11.3398 26.5762C11.6719 26.1074 11.8379 25.1699 11.8379 23.7637C11.8379 22.3496 11.6719 21.4102 11.3398 20.9453C11.0117 20.4805 10.6016 20.248 10.1094 20.248C9.625 20.248 9.23828 20.4531 8.94922 20.8633C8.58594 21.3867 8.4043 22.3535 8.4043 23.7637ZM14 23.7637C14 22.748 14.1035 21.9316 14.3105 21.3145C14.5215 20.6934 14.832 20.2148 15.2422 19.8789C15.6562 19.543 16.1758 19.375 16.8008 19.375C17.2617 19.375 17.666 19.4688 18.0137 19.6562C18.3613 19.8398 18.6484 20.1074 18.875 20.459C19.1016 20.8066 19.2793 21.2324 19.4082 21.7363C19.5371 22.2363 19.6016 22.9121 19.6016 23.7637C19.6016 24.7715 19.498 25.5859 19.291 26.207C19.084 26.8242 18.7734 27.3027 18.3594 27.6426C17.9492 27.9785 17.4297 28.1465 16.8008 28.1465C15.9727 28.1465 15.3223 27.8496 14.8496 27.2559C14.2832 26.541 14 25.377 14 23.7637ZM15.084 23.7637C15.084 25.1738 15.248 26.1133 15.5762 26.582C15.9082 27.0469 16.3164 27.2793 16.8008 27.2793C17.2852 27.2793 17.6914 27.0449 18.0195 26.5762C18.3516 26.1074 18.5176 25.1699 18.5176 23.7637C18.5176 22.3496 18.3516 21.4102 18.0195 20.9453C17.6914 20.4805 17.2812 20.248 16.7891 20.248C16.3047 20.248 15.918 20.4531 15.6289 20.8633C15.2656 21.3867 15.084 22.3535 15.084 23.7637ZM20.8789 21.4727C20.8789 20.8594 21.0332 20.3379 21.3418 19.9082C21.6504 19.4785 22.0977 19.2637 22.6836 19.2637C23.2227 19.2637 23.668 19.457 24.0195 19.8438C24.375 20.2266 24.5527 20.791 24.5527 21.5371C24.5527 22.2637 24.373 22.8242 24.0137 23.2188C23.6582 23.6094 23.2188 23.8047 22.6953 23.8047C22.1758 23.8047 21.7422 23.6113 21.3945 23.2246C21.0508 22.8379 20.8789 22.2539 20.8789 21.4727ZM22.7129 19.9902C22.4512 19.9902 22.2324 20.1035 22.0566 20.3301C21.8848 20.5566 21.7988 20.9727 21.7988 21.5781C21.7988 22.1289 21.8867 22.5176 22.0625 22.7441C22.2383 22.9668 22.4551 23.0781 22.7129 23.0781C22.9785 23.0781 23.1973 22.9648 23.3691 22.7383C23.5449 22.5117 23.6328 22.0977 23.6328 21.4961C23.6328 20.9414 23.5449 20.5527 23.3691 20.3301C23.1934 20.1035 22.9746 19.9902 22.7129 19.9902ZM22.7188 28.3164L27.418 19.2637H28.2734L23.5918 28.3164H22.7188ZM26.4336 25.9844C26.4336 25.3672 26.5879 24.8457 26.8965 24.4199C27.2051 23.9902 27.6543 23.7754 28.2441 23.7754C28.7832 23.7754 29.2285 23.9688 29.5801 24.3555C29.9355 24.7383 30.1133 25.3027 30.1133 26.0488C30.1133 26.7754 29.9336 27.3359 29.5742 27.7305C29.2188 28.1211 28.7773 28.3164 28.25 28.3164C27.7305 28.3164 27.2969 28.123 26.9492 27.7363C26.6055 27.3457 26.4336 26.7617 26.4336 25.9844ZM28.2734 24.502C28.0078 24.502 27.7871 24.6152 27.6113 24.8418C27.4395 25.0684 27.3535 25.4844 27.3535 26.0898C27.3535 26.6367 27.4414 27.0234 27.6172 27.25C27.793 27.4766 28.0098 27.5898 28.2676 27.5898C28.5371 27.5898 28.7578 27.4766 28.9297 27.25C29.1055 27.0234 29.1934 26.6094 29.1934 26.0078C29.1934 25.4531 29.1055 25.0645 28.9297 24.8418C28.7539 24.6152 28.5352 24.502 28.2734 24.502Z" fill="black" fill-opacity="0.4"/>
<path fill-rule="evenodd" clip-rule="evenodd" d="M48.9733 22.6225L47.8823 22.2535L48.744 21.4893L61.5077 10.1711L72.9778 0L67.1055 10.1711L62.8811 17.488L62.3712 18.3712L63.3372 18.698L78.3572 23.7791L79.4482 24.1481L78.5865 24.9123L64.4802 37.4211L54.3528 46.4016L59.5377 37.4211L64.4495 28.9136L64.9594 28.0304L63.9933 27.7036L48.9733 22.6225ZM45.9295 22.6485L47.5618 23.2007L63.4834 28.5868L58.383 37.4211H38.2208C36.564 37.4211 35.2208 36.0779 35.2208 34.4211V13.1711C35.2208 11.5142 36.564 10.1711 38.2208 10.1711H60.0005L47.2188 21.5053L45.9295 22.6485ZM86.4008 37.4211H65.9875L80.1117 24.8963L81.401 23.7531L79.7687 23.2009L63.8471 17.8148L68.2602 10.1711H86.4008C88.0577 10.1711 89.4008 11.5142 89.4008 13.1711V34.4211C89.4008 36.0779 88.0577 37.4211 86.4008 37.4211Z" fill="black" fill-opacity="0.4"/>
</svg>
