<svg width="117" height="47" viewBox="0 0 117 47" fill="none" xmlns="http://www.w3.org/2000/svg">
<rect x="114" y="20" width="2.55592" height="7.05422" rx="1" fill="black" fill-opacity="0.4"/>
<path d="M7.85547 31H6.09766V19.7988C5.67448 20.2025 5.11784 20.6061 4.42773 21.0098C3.74414 21.4134 3.12891 21.7161 2.58203 21.918V20.2188C3.5651 19.7565 4.42448 19.1966 5.16016 18.5391C5.89583 17.8815 6.41667 17.2435 6.72266 16.625H7.85547V31ZM12.3672 23.9395C12.3672 22.2467 12.5397 20.8861 12.8848 19.8574C13.2363 18.8223 13.7539 18.0247 14.4375 17.4648C15.1276 16.9049 15.9935 16.625 17.0352 16.625C17.8034 16.625 18.4772 16.7812 19.0566 17.0938C19.6361 17.3997 20.1146 17.8457 20.4922 18.4316C20.8698 19.0111 21.166 19.7207 21.3809 20.5605C21.5957 21.3939 21.7031 22.5202 21.7031 23.9395C21.7031 25.6191 21.5306 26.9766 21.1855 28.0117C20.8405 29.0404 20.3229 29.8379 19.6328 30.4043C18.9492 30.9642 18.0833 31.2441 17.0352 31.2441C15.6549 31.2441 14.571 30.7493 13.7832 29.7598C12.8392 28.5684 12.3672 26.6283 12.3672 23.9395ZM14.1738 23.9395C14.1738 26.2897 14.4473 27.8555 14.9941 28.6367C15.5475 29.4115 16.2279 29.7988 17.0352 29.7988C17.8424 29.7988 18.5195 29.4082 19.0664 28.627C19.6198 27.8457 19.8965 26.2832 19.8965 23.9395C19.8965 21.5827 19.6198 20.0169 19.0664 19.2422C18.5195 18.4674 17.8359 18.0801 17.0156 18.0801C16.2083 18.0801 15.5638 18.4219 15.082 19.1055C14.4766 19.9779 14.1738 21.5892 14.1738 23.9395ZM23.5 23.9395C23.5 22.2467 23.6725 20.8861 24.0176 19.8574C24.3691 18.8223 24.8867 18.0247 25.5703 17.4648C26.2604 16.9049 27.1263 16.625 28.168 16.625C28.9362 16.625 29.61 16.7812 30.1895 17.0938C30.7689 17.3997 31.2474 17.8457 31.625 18.4316C32.0026 19.0111 32.2988 19.7207 32.5137 20.5605C32.7285 21.3939 32.8359 22.5202 32.8359 23.9395C32.8359 25.6191 32.6634 26.9766 32.3184 28.0117C31.9733 29.0404 31.4557 29.8379 30.7656 30.4043C30.082 30.9642 29.2161 31.2441 28.168 31.2441C26.7878 31.2441 25.7038 30.7493 24.916 29.7598C23.972 28.5684 23.5 26.6283 23.5 23.9395ZM25.3066 23.9395C25.3066 26.2897 25.5801 27.8555 26.127 28.6367C26.6803 29.4115 27.3607 29.7988 28.168 29.7988C28.9753 29.7988 29.6523 29.4082 30.1992 28.627C30.7526 27.8457 31.0293 26.2832 31.0293 23.9395C31.0293 21.5827 30.7526 20.0169 30.1992 19.2422C29.6523 18.4674 28.9688 18.0801 28.1484 18.0801C27.3411 18.0801 26.6966 18.4219 26.2148 19.1055C25.6094 19.9779 25.3066 21.5892 25.3066 23.9395ZM34.9648 20.1211C34.9648 19.099 35.222 18.2298 35.7363 17.5137C36.2507 16.7975 36.9961 16.4395 37.9727 16.4395C38.8711 16.4395 39.6133 16.7617 40.1992 17.4062C40.7917 18.0443 41.0879 18.985 41.0879 20.2285C41.0879 21.4395 40.7884 22.3737 40.1895 23.0312C39.597 23.6823 38.8646 24.0078 37.9922 24.0078C37.1263 24.0078 36.4036 23.6855 35.8242 23.041C35.2513 22.3965 34.9648 21.4232 34.9648 20.1211ZM38.0215 17.6504C37.5853 17.6504 37.2207 17.8392 36.9277 18.2168C36.6413 18.5944 36.498 19.2878 36.498 20.2969C36.498 21.2148 36.6445 21.8626 36.9375 22.2402C37.2305 22.6113 37.5918 22.7969 38.0215 22.7969C38.4642 22.7969 38.8288 22.6081 39.1152 22.2305C39.4082 21.8529 39.5547 21.1628 39.5547 20.1602C39.5547 19.2357 39.4082 18.5879 39.1152 18.2168C38.8223 17.8392 38.4577 17.6504 38.0215 17.6504ZM38.0312 31.5273L45.8633 16.4395H47.2891L39.4863 31.5273H38.0312ZM44.2227 27.6406C44.2227 26.612 44.4798 25.7428 44.9941 25.0332C45.5085 24.3171 46.2572 23.959 47.2402 23.959C48.1387 23.959 48.8809 24.2812 49.4668 24.9258C50.0592 25.5638 50.3555 26.5046 50.3555 27.748C50.3555 28.959 50.056 29.8932 49.457 30.5508C48.8646 31.2018 48.1289 31.5273 47.25 31.5273C46.3841 31.5273 45.6615 31.2051 45.082 30.5605C44.5091 29.9095 44.2227 28.9362 44.2227 27.6406ZM47.2891 25.1699C46.8464 25.1699 46.4785 25.3587 46.1855 25.7363C45.8991 26.1139 45.7559 26.8073 45.7559 27.8164C45.7559 28.7279 45.9023 29.3724 46.1953 29.75C46.4883 30.1276 46.8496 30.3164 47.2793 30.3164C47.7285 30.3164 48.0964 30.1276 48.3828 29.75C48.6758 29.3724 48.8223 28.6823 48.8223 27.6797C48.8223 26.7552 48.6758 26.1074 48.3828 25.7363C48.0898 25.3587 47.7253 25.1699 47.2891 25.1699Z" fill="black" fill-opacity="0.4"/>
<path fill-rule="evenodd" clip-rule="evenodd" d="M72.9733 22.6226L71.8823 22.2535L72.744 21.4894L85.5077 10.1711L96.9778 7.80225e-05L91.1055 10.1711L86.8811 17.4881L86.3712 18.3713L87.3372 18.698L102.357 23.7791L103.448 24.1482L102.587 24.9124L88.4802 37.4211L78.3528 46.4017L83.5377 37.4211L88.4495 28.9137L88.9594 28.0305L87.9933 27.7037L72.9733 22.6226ZM69.9295 22.6486L71.5618 23.2008L87.4834 28.5869L82.383 37.4211H62.2208C60.564 37.4211 59.2208 36.078 59.2208 34.4211V13.1711C59.2208 11.5143 60.564 10.1711 62.2208 10.1711H84.0005L71.2188 21.5053L69.9295 22.6486ZM110.401 37.4211H89.9875L104.112 24.8964L105.401 23.7532L103.769 23.201L87.8471 17.8149L92.2602 10.1711H110.401C112.058 10.1711 113.401 11.5143 113.401 13.1711V34.4211C113.401 36.078 112.058 37.4211 110.401 37.4211Z" fill="black" fill-opacity="0.4"/>
</svg>
