<svg width="39" height="39" viewBox="0 0 39 39" fill="none" xmlns="http://www.w3.org/2000/svg">
<path fill-rule="evenodd" clip-rule="evenodd" d="M11.0571 12.5054C11.0972 12.8253 11.2397 13.1346 11.4849 13.3799L17.4951 19.3904L11.4849 25.4009C10.8989 25.9866 10.8989 26.9363 11.4849 27.5223C12.0703 28.108 13.0205 28.108 13.606 27.5223L19.6162 21.5118L25.627 27.5223C26.2129 28.108 27.1626 28.108 27.7485 27.5223C28.334 26.9363 28.334 25.9866 27.7485 25.4009L21.7378 19.3902L27.748 13.3799C28.334 12.7943 28.334 11.8445 27.748 11.2586C27.1626 10.6729 26.2129 10.6729 25.627 11.2586L19.6167 17.2691L13.6064 11.2589C13.0205 10.6729 12.0708 10.6729 11.4849 11.2589C11.1445 11.5992 11.002 12.0623 11.0571 12.5054Z" fill="black" fill-opacity="0.33"/>
</svg>
