<svg width="49" height="48" viewBox="0 0 49 48" fill="none" xmlns="http://www.w3.org/2000/svg">
<rect width="49" height="48" rx="10" fill="#CD6F00"/>
<rect x="16" y="8" width="26" height="14" rx="2" fill="#D9D9D9" fill-opacity="0.17"/>
<circle cx="8" cy="12" r="4" fill="#D9D9D9"/>
<path d="M0 9H8C9.65685 9 11 10.3431 11 12C11 13.6569 9.65685 15 8 15H0V9Z" fill="#A6A6A6"/>
<circle cx="8" cy="24" r="4" fill="#D9D9D9"/>
<path d="M0 21H8C9.65685 21 11 22.3431 11 24C11 25.6569 9.65685 27 8 27H0V21Z" fill="#A6A6A6"/>
<circle cx="8" cy="36" r="4" fill="#D9D9D9"/>
<path d="M0 33H8C9.65685 33 11 34.3431 11 36C11 37.6569 9.65685 39 8 39H0V33Z" fill="#A6A6A6"/>
<path d="M25.2738 17.284C25.4498 17.308 25.5378 17.392 25.5378 17.536C25.5298 17.552 25.5178 17.592 25.5018 17.656C25.4858 17.72 25.4578 17.808 25.4178 17.92C25.1458 18.272 24.7538 18.564 24.2418 18.796C23.7378 19.012 23.2458 19.12 22.7658 19.12C22.0138 19.12 21.4378 18.848 21.0378 18.304C20.6858 17.808 20.5098 17.172 20.5098 16.396C20.5098 15.54 20.6738 14.576 21.0018 13.504C21.4098 12.192 21.9218 11.336 22.5378 10.936H22.5258C22.7098 10.824 22.9538 10.768 23.2578 10.768C23.7218 10.768 24.1498 10.892 24.5418 11.14C24.8378 11.332 25.0418 11.548 25.1538 11.788C25.2338 11.956 25.2738 12.26 25.2738 12.7C25.2738 12.852 25.2618 13.028 25.2378 13.228C25.2138 13.42 25.1818 13.636 25.1418 13.876C25.0058 14.564 24.8378 14.908 24.6378 14.908C24.4938 14.908 24.3818 14.82 24.3018 14.644C24.2298 14.5 24.1938 14.352 24.1938 14.2C24.1938 13.992 24.2618 13.624 24.3978 13.096V13.108C24.5258 12.604 24.5898 12.24 24.5898 12.016C24.5898 11.808 24.4418 11.632 24.1458 11.488C23.8898 11.368 23.6458 11.308 23.4138 11.308C22.8858 11.308 22.4018 11.936 21.9618 13.192C21.5378 14.4 21.3258 15.568 21.3258 16.696C21.3258 17.928 21.7618 18.544 22.6338 18.544C23.4658 18.544 24.2458 18.252 24.9738 17.668L25.1658 17.344L25.2738 17.284ZM26.6442 19.144C26.2042 19.144 25.8722 18.84 25.6482 18.232C25.4882 17.792 25.4082 17.312 25.4082 16.792C25.4082 14.88 25.6442 13.18 26.1162 11.692L26.1042 11.704C26.1442 11.112 26.3082 10.816 26.5962 10.816C27.1562 10.816 27.4362 11.244 27.4362 12.1C27.4362 12.764 27.3162 13.532 27.0762 14.404C26.9482 14.86 26.8122 15.268 26.6682 15.628C26.5242 15.98 26.3642 16.288 26.1882 16.552V16.54C26.1802 16.556 26.1682 16.58 26.1522 16.612C26.1362 16.636 26.1202 16.664 26.1042 16.696C26.0802 16.704 26.0602 16.732 26.0442 16.78C25.9962 16.844 25.9722 16.908 25.9722 16.972C25.9722 17.516 26.0842 17.936 26.3082 18.232C26.4522 18.432 26.5722 18.532 26.6682 18.532C26.8842 18.532 27.1882 17.796 27.5802 16.324C27.6122 16.292 27.6282 16.26 27.6282 16.228L27.6162 16.24C27.6322 16.16 27.6482 16.072 27.6642 15.976C27.6882 15.88 27.7162 15.768 27.7482 15.64V15.652C27.7962 15.428 27.8802 15.316 28.0002 15.316C28.1442 15.316 28.2162 15.412 28.2162 15.604C28.2162 15.892 28.0642 16.512 27.7602 17.464C27.3842 18.584 27.0122 19.144 26.6442 19.144ZM26.8722 12.424C26.8722 12.064 26.8562 11.824 26.8242 11.704C26.3362 13.384 26.0642 14.72 26.0082 15.712C26.0962 15.488 26.1842 15.252 26.2722 15.004C26.3602 14.748 26.4482 14.48 26.5362 14.2C26.7602 13.448 26.8722 12.856 26.8722 12.424ZM29.5076 19C29.2356 19 29.0116 18.808 28.8356 18.424C28.6436 18.944 28.3876 19.204 28.0676 19.204C27.5956 19.204 27.3596 18.672 27.3596 17.608V17.452C27.3596 17.108 27.4436 16.604 27.6116 15.94C27.8356 15.092 28.0556 14.668 28.2716 14.668C28.6556 14.668 28.8996 14.78 29.0036 15.004L29.1836 15.376L29.6276 15.52C29.3636 16.36 29.2316 17.068 29.2316 17.644V17.752C29.2316 18.224 29.3036 18.46 29.4476 18.46C29.6476 18.46 29.9556 17.556 30.3716 15.748C30.4356 15.516 30.5276 15.4 30.6476 15.4C30.7836 15.4 30.8516 15.496 30.8516 15.688C30.8516 15.944 30.7116 16.528 30.4316 17.44C30.1116 18.48 29.8036 19 29.5076 19ZM28.8356 15.916L28.7156 15.736C28.6756 15.432 28.6196 15.28 28.5476 15.28C28.4916 15.28 28.4116 15.436 28.3076 15.748L28.2836 15.82C28.2676 15.86 28.2436 15.944 28.2116 16.072C28.1796 16.192 28.1356 16.352 28.0796 16.552C27.9596 17 27.8996 17.56 27.8996 18.232C27.8996 18.512 27.9636 18.668 28.0916 18.7C28.2036 18.612 28.3316 18.332 28.4756 17.86C28.5396 17.652 28.5916 17.472 28.6316 17.32C28.6716 17.16 28.6996 17.024 28.7156 16.912L28.8356 15.916ZM31.5806 17.944C31.5806 18.752 31.3206 19.156 30.8006 19.156C30.7046 19.156 30.6086 19.136 30.5126 19.096C30.4166 19.056 30.3326 19 30.2606 18.928C30.1886 18.856 30.1286 18.776 30.0806 18.688C30.0326 18.6 30.0086 18.508 30.0086 18.412C30.0086 18.204 30.0646 18.088 30.1766 18.064C30.2886 18.064 30.3446 18.16 30.3446 18.352C30.4246 18.568 30.5206 18.676 30.6326 18.676C30.8806 18.676 31.0046 18.42 31.0046 17.908C31.0046 17.684 30.9366 17.292 30.8006 16.732C30.7926 16.668 30.7566 16.544 30.6926 16.36C30.5246 17.096 30.3526 17.464 30.1766 17.464C30.1926 17.464 30.1846 17.464 30.1526 17.464C30.1126 17.456 30.0486 17.448 29.9606 17.44C30.2486 16.208 30.3926 15.328 30.3926 14.8C30.3926 14.52 30.5166 14.38 30.7646 14.38C31.0366 14.38 31.1726 14.492 31.1726 14.716C31.1726 14.788 31.1566 14.892 31.1246 15.028C31.0926 15.156 31.0766 15.252 31.0766 15.316C31.0766 15.596 31.1566 16.032 31.3166 16.624C31.4926 17.248 31.5806 17.688 31.5806 17.944ZM33.3033 17.944C33.3033 18.752 33.0433 19.156 32.5233 19.156C32.4273 19.156 32.3313 19.136 32.2353 19.096C32.1393 19.056 32.0553 19 31.9833 18.928C31.9113 18.856 31.8513 18.776 31.8033 18.688C31.7553 18.6 31.7313 18.508 31.7313 18.412C31.7313 18.204 31.7873 18.088 31.8993 18.064C32.0113 18.064 32.0673 18.16 32.0673 18.352C32.1473 18.568 32.2433 18.676 32.3553 18.676C32.6033 18.676 32.7273 18.42 32.7273 17.908C32.7273 17.684 32.6593 17.292 32.5233 16.732C32.5153 16.668 32.4793 16.544 32.4153 16.36C32.2473 17.096 32.0753 17.464 31.8993 17.464C31.9153 17.464 31.9073 17.464 31.8753 17.464C31.8353 17.456 31.7713 17.448 31.6833 17.44C31.9713 16.208 32.1153 15.328 32.1153 14.8C32.1153 14.52 32.2393 14.38 32.4873 14.38C32.7593 14.38 32.8953 14.492 32.8953 14.716C32.8953 14.788 32.8793 14.892 32.8473 15.028C32.8153 15.156 32.7993 15.252 32.7993 15.316C32.7993 15.596 32.8793 16.032 33.0393 16.624C33.2153 17.248 33.3033 17.688 33.3033 17.944ZM36.3699 15.652C36.3699 15.756 36.3179 16.016 36.2139 16.432C36.0379 17.208 35.8859 17.74 35.7579 18.028C35.4619 18.756 35.1059 19.12 34.6899 19.12C34.3219 19.12 34.0419 18.94 33.8499 18.58C33.6979 18.284 33.6219 17.932 33.6219 17.524C33.6219 17.268 33.6339 17.008 33.6579 16.744C33.6739 16.48 33.7019 16.212 33.7419 15.94C33.8859 15.052 34.1259 14.608 34.4619 14.608C34.6539 14.608 34.8259 14.68 34.9779 14.824C35.1299 14.96 35.2059 15.12 35.2059 15.304C35.2059 15.872 35.0419 16.52 34.7139 17.248C34.6339 17.424 34.5539 17.584 34.4739 17.728C34.4019 17.864 34.3339 17.988 34.2699 18.1C34.2699 18.22 34.3259 18.336 34.4379 18.448C34.5339 18.584 34.6259 18.652 34.7139 18.652C34.9939 18.652 35.3579 17.812 35.8059 16.132C35.9339 15.644 36.0379 15.4 36.1179 15.4C36.2859 15.4 36.3699 15.484 36.3699 15.652ZM34.6899 15.436C34.6899 15.252 34.6739 15.16 34.6419 15.16C34.6259 15.176 34.6139 15.2 34.6059 15.232C34.3739 15.952 34.2419 16.652 34.2099 17.332C34.2579 17.244 34.3019 17.14 34.3419 17.02C34.3899 16.892 34.4339 16.752 34.4739 16.6C34.6179 16.088 34.6899 15.7 34.6899 15.436ZM37.1236 17.944C37.1236 18.752 36.8636 19.156 36.3436 19.156C36.2476 19.156 36.1516 19.136 36.0556 19.096C35.9596 19.056 35.8756 19 35.8036 18.928C35.7316 18.856 35.6716 18.776 35.6236 18.688C35.5756 18.6 35.5516 18.508 35.5516 18.412C35.5516 18.204 35.6076 18.088 35.7196 18.064C35.8316 18.064 35.8876 18.16 35.8876 18.352C35.9676 18.568 36.0636 18.676 36.1756 18.676C36.4236 18.676 36.5476 18.42 36.5476 17.908C36.5476 17.684 36.4796 17.292 36.3436 16.732C36.3356 16.668 36.2996 16.544 36.2356 16.36C36.0676 17.096 35.8956 17.464 35.7196 17.464C35.7356 17.464 35.7276 17.464 35.6956 17.464C35.6556 17.456 35.5916 17.448 35.5036 17.44C35.7916 16.208 35.9356 15.328 35.9356 14.8C35.9356 14.52 36.0596 14.38 36.3076 14.38C36.5796 14.38 36.7156 14.492 36.7156 14.716C36.7156 14.788 36.6996 14.892 36.6676 15.028C36.6356 15.156 36.6196 15.252 36.6196 15.316C36.6196 15.596 36.6996 16.032 36.8596 16.624C37.0356 17.248 37.1236 17.688 37.1236 17.944Z" fill="#955000"/>
<path d="M39.5 24L40.5103 27.1094H43.7798L41.1347 29.0312L42.145 32.1406L39.5 30.2188L36.855 32.1406L37.8653 29.0312L35.2202 27.1094H38.4897L39.5 24Z" fill="#955000"/>
<path d="M19.5 24L20.5103 27.1094H23.7798L21.1347 29.0312L22.145 32.1406L19.5 30.2188L16.855 32.1406L17.8653 29.0312L15.2202 27.1094H18.4897L19.5 24Z" fill="#955000"/>
<path d="M29.5 24L30.5103 27.1094H33.7798L31.1347 29.0312L32.145 32.1406L29.5 30.2188L26.855 32.1406L27.8653 29.0312L25.2202 27.1094H28.4897L29.5 24Z" fill="#955000"/>
</svg>
