<svg width="47" height="44" viewBox="0 0 47 44" fill="none" xmlns="http://www.w3.org/2000/svg">
<path fill-rule="evenodd" clip-rule="evenodd" d="M36.0074 43.3987C35.2224 43.8932 34.2007 43.5786 33.7643 42.7598C33.3284 41.942 33.6423 40.9314 34.4206 40.4283C39.9699 36.841 43.6428 30.5993 43.6428 23.4998C43.6428 12.3752 34.6246 3.35696 23.5 3.35696C12.3754 3.35696 3.35712 12.3752 3.35712 23.4998C3.35712 30.5993 7.03006 36.841 12.5794 40.4283C13.3577 40.9314 13.6715 41.942 13.2357 42.7598C12.7993 43.5786 11.7776 43.8932 10.9925 43.3987C4.3882 39.2388 0 31.8818 0 23.5C0 10.5213 10.5213 0 23.5 0C36.4787 0 47 10.5213 47 23.5C47 31.8818 42.6118 39.2388 36.0074 43.3987ZM32.8364 37.4519C32.0658 37.9687 31.0423 37.6523 30.6059 36.8336C30.1701 36.0158 30.4869 35.0076 31.2436 34.4726C34.6829 32.0409 36.9285 28.0329 36.9285 23.5003C36.9285 16.0839 30.9163 10.0717 23.4999 10.0717C16.0835 10.0717 10.0714 16.0839 10.0714 23.5003C10.0714 28.0329 12.317 32.041 15.7564 34.4727C16.513 35.0076 16.8298 36.0158 16.394 36.8336C15.9576 37.6524 14.9341 37.9687 14.1635 37.452C9.6712 34.4398 6.71424 29.3153 6.71424 23.5003C6.71424 14.2298 14.2295 6.71456 23.5 6.71456C32.7704 6.71456 40.2857 14.2298 40.2857 23.5003C40.2857 29.3153 37.3287 34.4397 32.8364 37.4519ZM29.6473 31.4783C28.9127 32.0452 27.8837 31.7256 27.4473 30.9067C27.0114 30.0888 27.3402 29.085 28.0248 28.4603C29.3702 27.2324 30.2144 25.4645 30.2144 23.4995C30.2144 19.7913 27.2083 16.7852 23.5001 16.7852C19.7919 16.7852 16.7858 19.7913 16.7858 23.4995C16.7858 25.4645 17.6299 27.2323 18.9753 28.4602C19.6598 29.0849 19.9886 30.0887 19.5527 30.9066C19.1163 31.7255 18.0873 32.0451 17.3527 31.4782C14.966 29.6365 13.4286 26.7477 13.4286 23.4999C13.4286 17.9376 17.9378 13.4285 23.5001 13.4285C29.0624 13.4285 33.5715 17.9376 33.5715 23.4999C33.5715 26.7478 32.0341 29.6366 29.6473 31.4783ZM23.5 26.8573C25.3541 26.8573 26.8572 25.3543 26.8572 23.5002C26.8572 21.6461 25.3541 20.143 23.5 20.143C21.6459 20.143 20.1429 21.6461 20.1429 23.5002C20.1429 25.3543 21.6459 26.8573 23.5 26.8573Z" fill="black" fill-opacity="0.4"/>
</svg>
