<svg width="346" height="347" viewBox="0 0 346 347" fill="none" xmlns="http://www.w3.org/2000/svg">
<path fill-rule="evenodd" clip-rule="evenodd" d="M0 60C0 26.8629 26.8629 0 60 0H286C319.137 0 346 26.8629 346 60V287C346 320.137 319.137 347 286 347H60C26.8629 347 0 320.137 0 287V60Z" fill="url(#paint0_linear_417_138)"/>
<path fill-rule="evenodd" clip-rule="evenodd" d="M107.437 70.9284L113.787 58.3865L133.496 50.223L146.855 54.6013L155.859 76.3394C167.276 74.292 178.766 74.3277 189.844 76.2459L198.877 54.4396L212.235 50.0613L231.944 58.2249L238.294 70.7667L229.322 92.4257C238.588 98.8526 246.817 106.916 253.52 116.415L275.193 107.437L287.735 113.787L295.899 133.496L291.52 146.855L270.02 155.76C272.106 167.248 272.082 178.811 270.152 189.959L291.682 198.877L296.06 212.235L287.897 231.944L275.355 238.294L253.972 229.437C247.505 238.76 239.381 247.033 229.806 253.76L238.684 275.193L232.334 287.735L212.625 295.899L199.267 291.52L190.424 270.173C178.904 272.239 167.309 272.184 156.138 270.214L147.245 291.682L133.886 296.061L114.178 287.897L107.828 275.355L116.71 253.912C107.432 247.433 99.2026 239.309 92.5142 229.743L70.9284 238.684L58.3865 232.334L50.223 212.626L54.6013 199.267L76.1871 190.326C74.1599 178.875 74.2263 167.355 76.1843 156.252L54.4396 147.245L50.0613 133.886L58.2249 114.178L70.7668 107.828L92.4862 116.824C98.9243 107.604 106.988 99.4188 116.477 92.7528L107.437 70.9284ZM116.422 196.75C129.397 228.076 165.31 242.952 196.636 229.976C227.962 217.001 242.838 181.088 229.862 149.762C216.886 118.436 180.973 103.56 149.647 116.536C118.322 129.511 103.446 165.425 116.422 196.75Z" fill="black" fill-opacity="0.08"/>
<path fill-rule="evenodd" clip-rule="evenodd" d="M113.149 79.5937L118.985 68.0666L137.099 60.5637L149.376 64.5877L157.652 84.5668C168.145 82.6852 178.705 82.7179 188.887 84.4809L197.189 64.4392L209.466 60.4152L227.58 67.9182L233.416 79.4452L225.171 99.3515C233.686 105.258 241.249 112.669 247.411 121.399L267.33 113.148L278.857 118.985L286.36 137.098L282.336 149.376L262.575 157.561C264.493 168.119 264.471 178.747 262.697 188.992L282.485 197.189L286.509 209.466L279.006 227.58L267.479 233.416L247.826 225.276C241.882 233.845 234.416 241.448 225.615 247.631L233.775 267.33L227.939 278.857L209.825 286.36L197.547 282.336L189.42 262.716C178.832 264.615 168.175 264.564 157.908 262.753L149.735 282.485L137.457 286.509L119.343 279.006L113.507 267.479L121.671 247.77C113.144 241.816 105.58 234.349 99.4327 225.557L79.5936 233.775L68.0666 227.939L60.5636 209.825L64.5876 197.547L84.4268 189.33C82.5636 178.806 82.6247 168.217 84.4242 158.013L64.4391 149.735L60.4151 137.457L67.918 119.343L79.4451 113.507L99.407 121.776C105.324 113.302 112.736 105.779 121.457 99.6521L113.149 79.5937ZM121.406 195.234C133.331 224.025 166.338 237.697 195.129 225.772C223.92 213.846 237.592 180.839 225.667 152.048C213.741 123.257 180.734 109.585 151.943 121.511C123.152 133.436 109.48 166.444 121.406 195.234Z" fill="#C8C8C8"/>
<defs>
<linearGradient id="paint0_linear_417_138" x1="173" y1="0" x2="173" y2="347" gradientUnits="userSpaceOnUse">
<stop stop-color="#70718E"/>
<stop offset="1" stop-color="#5C5D79"/>
</linearGradient>
</defs>
</svg>
