<svg width="347" height="347" viewBox="0 0 347 347" fill="none" xmlns="http://www.w3.org/2000/svg">
<path fill-rule="evenodd" clip-rule="evenodd" d="M0.482666 60C0.482666 26.8629 27.3456 0 60.4827 0H286.483C319.62 0 346.483 26.8629 346.483 60V287C346.483 320.137 319.62 347 286.483 347H60.4827C27.3456 347 0.482666 320.137 0.482666 287V60Z" fill="url(#paint0_linear_243_80)"/>
<rect x="40.4827" y="40.4868" width="266" height="70.1043" rx="20" fill="#5A5A5A"/>
<rect x="40.4827" y="49.7939" width="266" height="60.7975" rx="20" fill="#6B6A6A"/>
<rect x="48.8324" y="131.304" width="49.7945" height="49.7945" rx="15" fill="#B46C00"/>
<rect x="48.8324" y="131.304" width="49.7945" height="43.5722" rx="15" fill="#FF9900"/>
<rect x="115.332" y="131.304" width="49.7945" height="49.7945" rx="15" fill="#6B6A6A"/>
<rect x="181.832" y="131.304" width="49.7945" height="49.7945" rx="15" fill="#6B6A6A"/>
<rect x="248.33" y="131.304" width="49.7945" height="49.7945" rx="15" fill="#6B6A6A"/>
<rect x="48.8297" y="197.804" width="49.7945" height="49.7945" rx="15" fill="#B46C00"/>
<rect x="48.8324" y="264.304" width="49.7945" height="49.7945" rx="15" fill="#B46C00"/>
<rect x="115.332" y="264.304" width="182.798" height="49.7945" rx="15" fill="#279B7F"/>
<rect x="115.332" y="197.804" width="49.7945" height="49.7945" rx="15" fill="#6B6A6A"/>
<rect x="181.835" y="197.804" width="49.7945" height="49.7945" rx="15" fill="#6B6A6A"/>
<rect x="248.335" y="197.804" width="49.7945" height="49.7945" rx="15" fill="#6B6A6A"/>
<rect x="48.8324" y="197.804" width="49.7945" height="43.5722" rx="15" fill="#FF9900"/>
<rect x="48.8297" y="264.304" width="49.7945" height="43.5722" rx="15" fill="#FF9900"/>
<rect x="115.334" y="197.804" width="49.7945" height="43.5722" rx="15" fill="#B4B4B4"/>
<rect x="115.334" y="197.804" width="49.7945" height="43.5722" rx="15" fill="#B4B4B4"/>
<rect x="115.334" y="131.304" width="49.7945" height="43.5722" rx="15" fill="#B4B4B4"/>
<rect x="181.835" y="131.304" width="49.7945" height="43.5722" rx="15" fill="#B4B4B4"/>
<rect x="248.33" y="131.304" width="49.7945" height="43.5722" rx="15" fill="#B4B4B4"/>
<rect x="248.33" y="197.804" width="49.7945" height="43.5722" rx="15" fill="#B4B4B4"/>
<rect x="181.835" y="197.804" width="49.7945" height="43.5722" rx="15" fill="#B4B4B4"/>
<rect x="115.332" y="264.304" width="182.792" height="43.5722" rx="15" fill="#38DAB3"/>
<path d="M58.5577 88.4868V64.7598H77.6977C78.9737 64.7598 80.0627 65.2218 80.9647 66.1458C81.8667 67.0478 82.3177 68.1148 82.3177 69.3468V75.7488C82.3177 77.0028 81.8667 78.0808 80.9647 78.9828C80.0627 79.8848 78.9737 80.3358 77.6977 80.3358L62.9137 80.3688V88.4868H58.5577ZM64.0687 75.9468H76.7737C77.3677 75.9468 77.7087 75.9138 77.7967 75.8478C77.8847 75.7818 77.9287 75.4408 77.9287 74.8248V70.2708C77.9287 69.6548 77.8847 69.3138 77.7967 69.2478C77.7087 69.1598 77.3677 69.1158 76.7737 69.1158H64.0687C63.4527 69.1158 63.1007 69.1598 63.0127 69.2478C62.9467 69.3138 62.9137 69.6548 62.9137 70.2708V74.8248C62.9137 75.4408 62.9467 75.7818 63.0127 75.8478C63.1007 75.9138 63.4527 75.9468 64.0687 75.9468ZM84.6282 88.4868V64.7598H103.768C105.044 64.7598 106.133 65.2218 107.035 66.1458C107.937 67.0478 108.388 68.1148 108.388 69.3468V75.7488C108.388 77.0028 107.937 78.0808 107.035 78.9828C106.133 79.8848 105.044 80.3358 103.768 80.3358H102.481L108.355 87.2658V88.4868H103.603L96.7722 80.3358L88.9842 80.3688V88.4868H84.6282ZM90.1392 75.9468H102.844C103.438 75.9468 103.768 75.9138 103.834 75.8478C103.922 75.7818 103.966 75.4408 103.966 74.8248V70.2708C103.966 69.6548 103.922 69.3138 103.834 69.2478C103.768 69.1598 103.438 69.1158 102.844 69.1158H90.1392C89.5232 69.1158 89.1712 69.1598 89.0832 69.2478C89.0172 69.3138 88.9842 69.6548 88.9842 70.2708V74.8248C88.9842 75.4408 89.0172 75.7818 89.0832 75.8478C89.1712 75.9138 89.5232 75.9468 90.1392 75.9468ZM116.414 88.4868C115.16 88.4868 114.082 88.0358 113.18 87.1338C112.278 86.2318 111.827 85.1538 111.827 83.8998V69.3138C111.827 68.0598 112.278 66.9818 113.18 66.0798C114.082 65.1778 115.16 64.7268 116.414 64.7268H131C132.254 64.7268 133.332 65.1778 134.234 66.0798C135.136 66.9818 135.587 68.0598 135.587 69.3138V83.8998C135.587 85.1538 135.136 86.2318 134.234 87.1338C133.332 88.0358 132.254 88.4868 131 88.4868H116.414ZM117.338 84.0978H130.043C130.637 84.0978 130.978 84.0648 131.066 83.9988C131.154 83.9108 131.198 83.5588 131.198 82.9428V70.2708C131.198 69.6548 131.154 69.3138 131.066 69.2478C130.978 69.1598 130.637 69.1158 130.043 69.1158H117.338C116.722 69.1158 116.37 69.1598 116.282 69.2478C116.216 69.3138 116.183 69.6548 116.183 70.2708V82.9428C116.183 83.5588 116.216 83.9108 116.282 83.9988C116.37 84.0648 116.722 84.0978 117.338 84.0978ZM142.092 88.4868C140.838 88.4868 139.76 88.0358 138.858 87.1338C137.956 86.2318 137.505 85.1538 137.505 83.8998V81.1938H141.861V82.9428C141.861 83.5588 141.894 83.9108 141.96 83.9988C142.048 84.0648 142.4 84.0978 143.016 84.0978H155.721C156.315 84.0978 156.656 84.0648 156.744 83.9988C156.832 83.9108 156.876 83.5588 156.876 82.9428V64.7268H161.265V83.8998C161.265 85.1538 160.814 86.2318 159.912 87.1338C159.01 88.0358 157.932 88.4868 156.678 88.4868H142.092ZM165.036 88.4868V64.7268H186.915V69.1158H169.425V74.3958H183.483V78.8178H169.425V84.0978H186.915V88.4868H165.036ZM194.822 88.4868C193.568 88.4868 192.49 88.0358 191.588 87.1338C190.686 86.2318 190.235 85.1538 190.235 83.8998V69.3138C190.235 68.0598 190.686 66.9818 191.588 66.0798C192.49 65.1778 193.568 64.7268 194.822 64.7268H213.929V69.1158H195.746C195.13 69.1158 194.778 69.1598 194.69 69.2478C194.624 69.3138 194.591 69.6548 194.591 70.2708V82.9428C194.591 83.5588 194.624 83.9108 194.69 83.9988C194.778 84.0648 195.13 84.0978 195.746 84.0978H213.929V88.4868H194.822ZM225.884 88.4868V69.1158H216.182V64.7268H239.942V69.1158H230.273V88.4868H225.884ZM246.898 88.4868C245.644 88.4868 244.566 88.0358 243.664 87.1338C242.762 86.2318 242.311 85.1538 242.311 83.8998V82.0848H246.667V82.9428C246.667 83.5588 246.7 83.9108 246.766 83.9988C246.854 84.0648 247.206 84.0978 247.822 84.0978H260.527C261.143 84.0978 261.484 84.0648 261.55 83.9988C261.638 83.9108 261.682 83.5588 261.682 82.9428V79.9398C261.682 79.3238 261.638 78.9828 261.55 78.9168C261.484 78.8508 261.143 78.8178 260.527 78.8178H246.898C245.644 78.8178 244.566 78.3668 243.664 77.4648C242.762 76.5408 242.311 75.4518 242.311 74.1978V69.3138C242.311 68.0598 242.762 66.9818 243.664 66.0798C244.566 65.1778 245.644 64.7268 246.898 64.7268H261.484C262.738 64.7268 263.816 65.1778 264.718 66.0798C265.62 66.9818 266.071 68.0598 266.071 69.3138V71.1288H261.682V70.2708C261.682 69.6548 261.638 69.3138 261.55 69.2478C261.484 69.1598 261.143 69.1158 260.527 69.1158H247.822C247.206 69.1158 246.854 69.1598 246.766 69.2478C246.7 69.3138 246.667 69.6548 246.667 70.2708V73.2738C246.667 73.8898 246.7 74.2308 246.766 74.2968C246.854 74.3628 247.206 74.3958 247.822 74.3958H261.484C262.738 74.3958 263.816 74.8578 264.718 75.7818C265.62 76.6838 266.071 77.7618 266.071 79.0158V83.8998C266.071 85.1538 265.62 86.2318 264.718 87.1338C263.816 88.0358 262.738 88.4868 261.484 88.4868H246.898ZM269.608 88.4868V84.1638H273.931V88.4868H269.608ZM277.084 88.4868V84.1638H281.407V88.4868H277.084ZM284.561 88.4868V84.1638H288.884V88.4868H284.561Z" fill="#343434"/>
<defs>
<linearGradient id="paint0_linear_243_80" x1="173.483" y1="-105.481" x2="173.483" y2="367.799" gradientUnits="userSpaceOnUse">
<stop stop-color="#434343"/>
<stop offset="1" stop-color="#2B2B2B"/>
</linearGradient>
</defs>
</svg>
