<svg width="70" height="40" viewBox="0 0 70 40" fill="none" xmlns="http://www.w3.org/2000/svg">
<path fill-rule="evenodd" clip-rule="evenodd" d="M22 7C20.8954 7 20 7.89543 20 9V23.9474C20 25.0519 20.8954 25.9474 22 25.9474H26.3158V30.2632C26.3158 31.3677 27.2112 32.2632 28.3158 32.2632H48C49.1046 32.2632 50 31.3677 50 30.2632V15.3158C50 14.2112 49.1046 13.3158 48 13.3158H43.6842V9C43.6842 7.89543 42.7888 7 41.6842 7H22ZM41.3158 13.3158V10.3684C41.3158 9.81614 40.8681 9.36842 40.3158 9.36842H23.3684C22.8161 9.36842 22.3684 9.81614 22.3684 10.3684V22.5789C22.3684 23.1312 22.8161 23.5789 23.3684 23.5789H26.3158V15.3158C26.3158 14.2112 27.2112 13.3158 28.3158 13.3158H41.3158ZM28.6842 16.6841C28.6842 16.1318 29.1319 15.6841 29.6842 15.6841H46.6316C47.1839 15.6841 47.6316 16.1318 47.6316 16.6841V28.8946C47.6316 29.4469 47.1839 29.8946 46.6316 29.8946H29.6842C29.1319 29.8946 28.6842 29.4469 28.6842 28.8946V16.6841Z" fill="black" fill-opacity="0.4"/>
</svg>
