<svg width="346" height="347" viewBox="0 0 346 347" fill="none" xmlns="http://www.w3.org/2000/svg">
<g clip-path="url(#clip0_342_63)">
<path fill-rule="evenodd" clip-rule="evenodd" d="M1.14955 0H344.851C345.486 0 346 0.534234 346 1.19325V345.807C346 346.465 345.486 347 344.851 347H1.14955C0.514672 347 0 346.465 0 345.807V1.19325C0 0.534234 0.514672 0 1.14955 0Z" fill="#763B00"/>
<path fill-rule="evenodd" clip-rule="evenodd" d="M0 0H346V347H0V0Z" fill="#2C302E"/>
<path fill-rule="evenodd" clip-rule="evenodd" d="M60.691 154.352H86.0511C89.0522 154.352 89.7648 156.077 87.6429 158.205L59.0992 186.831C56.9773 188.96 55.2568 188.245 55.2568 185.235V159.802C55.2568 156.792 57.6899 154.352 60.691 154.352Z" fill="#763B00"/>
<path fill-rule="evenodd" clip-rule="evenodd" d="M290.679 160.013L290.807 185.446C290.822 188.456 289.105 189.179 286.972 187.061L258.285 158.581C256.152 156.463 256.856 154.734 259.857 154.719L285.217 154.59C288.218 154.575 290.663 157.003 290.679 160.013Z" fill="#763B00"/>
<path d="M39.3801 130.014C39.9996 126.675 43.1501 124.459 46.5124 124.95L60.4424 126.986C63.9286 127.496 66.3415 130.733 65.8318 134.218L52.6194 224.507C52.119 227.927 48.9374 230.448 45.6374 229.416C45.3141 229.315 45.003 229.208 44.7121 229.094C39.2785 226.973 36.7042 224.217 33.9479 218.925C28.7853 209.012 31.4886 192.381 32.8015 175.258C33.9287 160.558 37.5247 140.014 39.3801 130.014Z" fill="#CBCBC9"/>
<path d="M302.068 116.37C299.501 109.575 293.387 104.755 286.178 103.842L237.343 97.6588C230.422 96.7825 224.107 101.694 223.256 108.614C222.409 115.515 227.319 121.796 234.224 122.643L297.399 130.395C299.968 130.71 302.067 128.375 301.479 125.857L301.085 121.878C301.016 121.182 301.335 120.504 301.915 120.112C302.647 119.619 302.943 118.687 302.631 117.862L302.068 116.37Z" fill="#CBCBC9"/>
<path d="M306.62 130.014C306 126.675 302.85 124.459 299.487 124.95L285.558 126.986C282.071 127.496 279.658 130.733 280.168 134.218L293.381 224.507C293.881 227.927 297.062 230.448 300.362 229.416C300.686 229.315 300.997 229.208 301.288 229.094C306.722 226.973 309.295 224.217 312.052 218.925C317.215 209.012 314.511 192.381 313.198 175.258C312.071 160.558 308.475 140.014 306.62 130.014Z" fill="#CBCBC9"/>
<path d="M43.9308 116.37C46.4972 109.575 52.611 104.755 59.8202 103.842L108.655 97.6588C115.576 96.7825 121.892 101.694 122.742 108.614C123.59 115.515 118.679 121.796 111.774 122.643L48.5989 130.395C46.0303 130.71 43.9313 128.375 44.5191 125.857L44.9133 121.878C44.9823 121.182 44.6637 120.504 44.0835 120.112C43.3518 119.619 43.0553 118.687 43.3671 117.862L43.9308 116.37Z" fill="#CBCBC9"/>
<path d="M44.8345 121.252C46.1337 117.514 48.6642 114.423 52.5124 113.489C58.9078 111.937 69.3189 110.517 78.0188 107.222C90.383 102.538 99.0644 94.3307 111.274 94.3106C160.14 94.2298 185.859 94.2298 234.725 94.3106C246.934 94.3307 255.616 102.538 267.98 107.222C276.348 110.392 286.154 111.826 292.597 113.312C297.018 114.331 299.999 117.798 301.436 122.099C305.894 135.446 308.848 153.673 310.805 173.371C312.62 191.645 315.459 210.083 309.21 220.233C300.149 231.509 289.467 228.203 276.752 233.145C263.496 238.296 256.607 242.437 242.699 246.056C216.356 251.703 208.308 252.113 172.999 252.75C137.691 252.113 129.643 251.703 103.299 246.056C89.3922 242.437 82.5029 238.296 69.2464 233.145C56.5313 228.203 45.8493 231.509 36.7889 220.233C30.5398 210.083 33.3783 191.645 35.1939 173.371C37.1982 153.198 40.1067 134.857 44.8345 121.252Z" fill="#6B5EA0"/>
<path d="M44.8345 121.252C46.1337 117.514 48.6642 114.423 52.5124 113.489C58.9078 111.937 69.3189 110.517 78.0188 107.222C90.383 102.538 99.0644 94.3307 111.274 94.3106C160.14 94.2298 185.859 94.2298 234.725 94.3106C246.934 94.3307 255.616 102.538 267.98 107.222C276.348 110.392 286.154 111.826 292.597 113.312C297.018 114.331 299.999 117.798 301.436 122.099C305.894 135.446 308.848 153.673 310.805 173.371C312.62 191.645 315.459 210.083 309.21 220.233C300.149 231.509 289.467 228.203 276.752 233.145C263.496 238.296 256.607 242.437 242.699 246.056C216.356 251.703 208.308 252.113 172.999 252.75C137.691 252.113 129.643 251.703 103.299 246.056C89.3922 242.437 82.5029 238.296 69.2464 233.145C56.5313 228.203 45.8493 231.509 36.7889 220.233C30.5398 210.083 33.3783 191.645 35.1939 173.371C37.1982 153.198 40.1067 134.857 44.8345 121.252Z" fill="#6B5EA0"/>
<path d="M52.0285 227.353C46.9072 226.213 42.4074 224.384 38.2264 219.222C35.4272 214.605 34.5678 207.934 34.7211 199.882C34.8411 193.583 35.568 186.682 36.3164 179.576C36.5268 177.579 36.7389 175.565 36.9396 173.544C38.9413 153.398 41.835 135.227 46.4917 121.828C47.6692 118.439 49.847 115.94 52.9262 115.193C54.7967 114.739 56.9727 114.305 59.3827 113.825C61.0714 113.489 62.875 113.129 64.7686 112.724C69.2849 111.757 74.1652 110.557 78.6407 108.861C83.1165 107.166 87.1852 104.986 90.9873 102.95C92.5303 102.124 94.0293 101.321 95.4938 100.583C100.656 97.9837 105.583 96.0734 111.277 96.064C160.141 95.9832 185.857 95.9832 234.722 96.064C240.415 96.0734 245.343 97.9837 250.505 100.583C251.969 101.321 253.468 102.124 255.011 102.95C258.813 104.986 262.882 107.166 267.358 108.861C273.664 111.25 280.838 112.69 286.667 113.861C288.709 114.271 290.585 114.647 292.202 115.02C295.866 115.865 298.469 118.755 299.772 122.655C304.166 135.812 307.105 153.881 309.059 173.544C309.26 175.565 309.472 177.579 309.682 179.576C310.43 186.682 311.157 193.583 311.277 199.882C311.431 207.934 310.571 214.605 307.772 219.222C303.591 224.384 299.091 226.213 293.97 227.353C292.347 227.714 290.737 227.993 289.04 228.286C287.934 228.477 286.791 228.675 285.584 228.906C282.602 229.477 279.434 230.221 276.116 231.51C271.636 233.251 267.919 234.857 264.447 236.356C257.469 239.371 251.484 241.955 242.294 244.349C216.146 249.954 208.213 250.361 172.999 250.996C137.786 250.361 129.853 249.954 103.704 244.349C94.5144 241.955 88.5295 239.371 81.5512 236.356C78.0796 234.857 74.3623 233.251 69.8824 231.51C66.5639 230.221 63.3966 229.477 60.4149 228.906C59.2072 228.675 58.0643 228.477 56.9583 228.286C55.2618 227.993 53.6519 227.714 52.0285 227.353Z" stroke="black" stroke-opacity="0.06" stroke-width="11"/>
<path d="M89.0551 207.844L69.8053 202.689C66.8885 201.908 63.8903 203.638 63.1088 206.553L63.1088 206.553C62.3272 209.468 64.0582 212.464 66.975 213.245L86.2248 218.4C89.1416 219.181 92.1398 217.451 92.9213 214.536L92.9213 214.536C93.7029 211.621 91.9719 208.625 89.0551 207.844Z" fill="#5E528F"/>
<path d="M69.1915 206.036L69.0441 206.586C68.9056 206.417 68.7675 206.314 68.6304 206.278C68.4823 206.238 68.3474 206.258 68.2255 206.337C68.105 206.412 68.0223 206.532 67.978 206.698C67.9388 206.844 67.9385 206.978 67.9774 207.101C67.9965 207.166 68.0332 207.253 68.0871 207.362C68.1429 207.472 68.2163 207.606 68.3075 207.763C68.4744 208.058 68.5768 208.3 68.6141 208.492C68.6533 208.679 68.6409 208.891 68.5771 209.129C68.4903 209.452 68.3279 209.694 68.0893 209.855C67.8523 210.01 67.5914 210.049 67.3059 209.973C67.066 209.908 66.8788 209.787 66.7441 209.61L66.8938 209.053C67.0548 209.253 67.2175 209.375 67.3818 209.418C67.5356 209.46 67.6689 209.441 67.7828 209.363C67.897 209.284 67.9777 209.156 68.0246 208.981C68.0651 208.83 68.0683 208.685 68.0338 208.546C68.015 208.479 67.985 208.4 67.9432 208.31C67.9024 208.218 67.8482 208.113 67.7806 207.997C67.6756 207.818 67.5908 207.661 67.526 207.528C67.4612 207.395 67.4169 207.281 67.3936 207.188C67.3496 207.006 67.3598 206.794 67.4249 206.553C67.5123 206.226 67.6667 205.99 67.8877 205.844C68.1107 205.697 68.3669 205.662 68.6559 205.739C68.8562 205.793 69.0348 205.892 69.1915 206.036ZM69.8891 206.13L71.3865 206.531L71.2589 207.008L70.3245 206.758L69.9698 208.081L70.7986 208.303L70.6706 208.779L69.8419 208.557L69.4597 209.983L70.3941 210.234L70.2662 210.71L68.7685 210.309L69.8891 206.13ZM71.9039 206.67L72.4672 206.821L71.4745 210.523L72.3951 210.77L72.2675 211.246L70.7836 210.849L71.9039 206.67ZM73.74 207.161L75.2377 207.562L75.1098 208.039L74.1754 207.789L73.8207 209.112L74.6495 209.334L74.5215 209.81L73.6931 209.588L73.3106 211.015L74.245 211.265L74.1171 211.741L72.6197 211.34L73.74 207.161ZM77.3778 208.208L77.2422 208.714C77.1166 208.605 77.0049 208.538 76.9076 208.512C76.774 208.476 76.6502 208.478 76.5366 208.52C76.4237 208.559 76.3172 208.639 76.217 208.759C76.1191 208.879 76.0262 209.041 75.9388 209.244C75.854 209.446 75.773 209.69 75.6961 209.977C75.4195 211.009 75.5455 211.596 76.0744 211.737C76.1666 211.762 76.2853 211.763 76.4307 211.74L76.2923 212.257C76.1366 212.297 75.9746 212.294 75.8068 212.249C74.9602 212.022 74.7219 211.218 75.0925 209.835C75.2929 209.089 75.5449 208.56 75.8482 208.251C76.1535 207.942 76.5194 207.845 76.9453 207.959C77.1025 208.001 77.2467 208.084 77.3778 208.208ZM77.5395 208.179L79.3728 208.67L79.2407 209.163L78.6098 208.994L77.6215 212.68L77.069 212.532L78.0573 208.846L77.4075 208.672L77.5395 208.179Z" fill="#7D71AE"/>
<path d="M86.289 217.517C88.7416 218.174 91.2626 216.719 91.9198 214.268C92.577 211.817 91.1215 209.298 88.6689 208.641C86.2163 207.984 83.6953 209.439 83.0381 211.89C82.3809 214.341 83.8364 216.86 86.289 217.517Z" fill="#58507E"/>
<path d="M86.4519 216.909C88.5685 217.476 90.7441 216.22 91.3112 214.105C91.8783 211.99 90.6223 209.816 88.5057 209.249C86.3891 208.682 84.2136 209.937 83.6465 212.053C83.0793 214.168 84.3354 216.342 86.4519 216.909Z" fill="#B8B8B6"/>
<path d="M89.0551 192.224L69.8053 187.069C66.8885 186.288 63.8903 188.018 63.1088 190.933L63.1088 190.933C62.3272 193.848 64.0582 196.844 66.975 197.625L86.2248 202.78C89.1416 203.561 92.1398 201.831 92.9213 198.916L92.9213 198.916C93.7029 196.001 91.9719 193.005 89.0551 192.224Z" fill="#5E528F"/>
<path d="M69.1915 190.416L69.0441 190.965C68.9056 190.796 68.7675 190.694 68.6304 190.657C68.4823 190.617 68.3474 190.637 68.2255 190.717C68.105 190.791 68.0223 190.911 67.978 191.077C67.9388 191.223 67.9385 191.358 67.9774 191.48C67.9965 191.545 68.0332 191.632 68.0871 191.742C68.1429 191.851 68.2163 191.985 68.3075 192.143C68.4744 192.437 68.5768 192.68 68.6141 192.872C68.6533 193.058 68.6409 193.271 68.5771 193.509C68.4903 193.832 68.3279 194.073 68.0893 194.234C67.8523 194.389 67.5911 194.428 67.3059 194.352C67.0657 194.288 66.8784 194.167 66.7441 193.99L66.8938 193.432C67.0548 193.632 67.2175 193.754 67.3818 193.798C67.5352 193.839 67.6689 193.821 67.7828 193.743C67.897 193.663 67.9777 193.536 68.0246 193.361C68.0651 193.209 68.0683 193.064 68.0338 192.925C68.015 192.858 67.9847 192.78 67.9432 192.689C67.9021 192.597 67.8479 192.493 67.7806 192.376C67.6756 192.197 67.5908 192.041 67.526 191.907C67.4612 191.774 67.4169 191.661 67.3936 191.567C67.3496 191.386 67.3598 191.174 67.4249 190.932C67.5123 190.605 67.6667 190.369 67.8874 190.223C68.1107 190.076 68.3669 190.041 68.6559 190.119C68.8562 190.172 69.0348 190.271 69.1915 190.416ZM69.6263 190.439L71.4598 190.93L71.3278 191.423L70.6965 191.254L69.7082 194.94L69.1557 194.792L70.1443 191.106L69.4942 190.932L69.6263 190.439ZM72.2883 191.152L72.7272 191.27L72.5029 195.688L71.9453 195.539L72.0066 194.682L71.1778 194.46L70.7998 195.232L70.2582 195.087L72.2883 191.152ZM72.042 194.225L72.0962 193.526C72.1345 193.051 72.1964 192.549 72.2819 192.021C72.1894 192.265 72.0886 192.51 71.9798 192.758C71.8713 193.003 71.7514 193.263 71.62 193.537L71.3734 194.046L72.042 194.225ZM73.9566 191.599L74.6986 191.797C75.0055 191.88 75.2144 192.014 75.3251 192.2C75.4638 192.44 75.4808 192.755 75.3764 193.145C75.2961 193.445 75.1809 193.672 75.031 193.827C74.8833 193.981 74.7107 194.055 74.5132 194.048L74.7372 196.287L74.1659 196.134L73.948 193.882L73.3996 195.928L72.8363 195.778L73.9566 191.599ZM74.0236 193.601C74.2421 193.66 74.4099 193.65 74.5273 193.573C74.6447 193.497 74.7356 193.338 74.7997 193.098C74.8348 192.968 74.8546 192.855 74.8594 192.757C74.8661 192.66 74.8562 192.578 74.83 192.509C74.8058 192.44 74.7649 192.384 74.7072 192.339C74.6514 192.295 74.579 192.262 74.4906 192.238L74.3959 192.213L74.0236 193.601ZM76.0176 192.151L77.8509 192.642L77.7188 193.134L77.0878 192.965L76.0996 196.651L75.5471 196.503L76.5353 192.817L75.8856 192.643L76.0176 192.151Z" fill="#7D71AE"/>
<path d="M86.289 201.897C88.7416 202.554 91.2626 201.099 91.9198 198.648C92.577 196.197 91.1215 193.677 88.6689 193.021C86.2163 192.364 83.6953 193.819 83.0381 196.27C82.3809 198.721 83.8364 201.24 86.289 201.897Z" fill="#58507E"/>
<path d="M86.4519 201.288C88.5685 201.855 90.7441 200.6 91.3112 198.484C91.8783 196.369 90.6223 194.195 88.5057 193.628C86.3891 193.062 84.2136 194.317 83.6465 196.432C83.0793 198.547 84.3354 200.721 86.4519 201.288Z" fill="#B8B8B6"/>
<path d="M86.5966 200.749C88.4151 201.236 90.2844 200.158 90.7717 198.34C91.2589 196.523 90.1797 194.655 88.3612 194.168C86.5426 193.681 84.6733 194.759 84.1861 196.577C83.6988 198.394 84.778 200.262 86.5966 200.749Z" fill="#D9D9D9"/>
<path d="M86.5966 216.369C88.4151 216.856 90.2844 215.778 90.7717 213.96C91.2589 212.143 90.1797 210.275 88.3612 209.788C86.5426 209.301 84.6733 210.38 84.1861 212.197C83.6988 214.014 84.778 215.882 86.5966 216.369Z" fill="#D9D9D9"/>
<path d="M103.607 121.596C104.208 118.106 106.723 115.23 110.168 114.401C127.682 110.191 151.538 109.552 172.724 109.552C193.911 109.552 217.767 110.191 235.28 114.401C238.725 115.23 241.241 118.106 241.841 121.596C244.777 138.653 246.098 152.438 246.89 172.514C247.595 190.372 249.126 209.047 246.571 218.26C240.389 232.985 199.748 235.475 172.724 235.475C145.699 235.475 105.059 232.985 98.8771 218.26C96.3219 209.047 97.8531 190.372 98.5581 172.514C99.3504 152.438 100.671 138.653 103.607 121.596Z" fill="#2C302E"/>
<path d="M229.824 127.034H115.624C114.743 127.034 114.029 127.747 114.029 128.628V201.592C114.029 202.472 114.743 203.186 115.624 203.186H229.824C230.705 203.186 231.419 202.472 231.419 201.592V128.628C231.419 127.747 230.705 127.034 229.824 127.034Z" fill="#3C423F"/>
<path fill-rule="evenodd" clip-rule="evenodd" d="M65.1642 140.044C64.2832 140.044 63.5693 140.758 63.5693 141.638V152.477H52.7234C51.8425 152.477 51.1284 153.191 51.1284 154.071V164.272C51.1284 165.153 51.8425 165.866 52.7234 165.866H63.5693V176.705C63.5693 177.586 64.2832 178.299 65.1642 178.299H75.372C76.2528 178.299 76.967 177.586 76.967 176.705V165.866H87.8128C88.6936 165.866 89.4078 165.153 89.4078 164.272V154.071C89.4078 153.191 88.6936 152.477 87.8128 152.477H76.967V141.638C76.967 140.758 76.2528 140.044 75.372 140.044H65.1642Z" fill="#5E528F"/>
<path fill-rule="evenodd" clip-rule="evenodd" d="M66.121 141.638C65.5924 141.638 65.164 142.066 65.164 142.594V154.071H53.6801C53.1516 154.071 52.7231 154.499 52.7231 155.027V163.316C52.7231 163.844 53.1516 164.272 53.6801 164.272H65.164V175.748C65.164 176.277 65.5924 176.705 66.121 176.705H74.4148C74.9434 176.705 75.3718 176.277 75.3718 175.748V164.272H86.8556C87.3842 164.272 87.8126 163.844 87.8126 163.316V155.027C87.8126 154.499 87.3842 154.071 86.8556 154.071H75.3718V142.594C75.3718 142.066 74.9434 141.638 74.4148 141.638H66.121Z" fill="#CBCBC9"/>
<path d="M70.2679 163.168C72.4764 163.168 74.2668 161.379 74.2668 159.172C74.2668 156.965 72.4764 155.175 70.2679 155.175C68.0594 155.175 66.269 156.965 66.269 159.172C66.269 161.379 68.0594 163.168 70.2679 163.168Z" fill="#B8B8B6"/>
<path d="M69.8014 143.95C69.9858 143.631 70.4461 143.631 70.6302 143.95L73.3097 148.588C73.4941 148.906 73.2638 149.305 72.8953 149.305H67.5363C67.1681 149.305 66.9378 148.906 67.1219 148.588L69.8014 143.95Z" fill="#B8B8B6"/>
<path d="M55.0347 159.585C54.7157 159.401 54.7157 158.941 55.0347 158.757L59.6757 156.079C59.9947 155.895 60.3934 156.126 60.3934 156.494V161.849C60.3934 162.217 59.9947 162.448 59.6757 162.263L55.0347 159.585Z" fill="#B8B8B6"/>
<path d="M85.4984 158.809C85.8174 158.993 85.8174 159.454 85.4984 159.638L80.8574 162.316C80.5384 162.5 80.1396 162.27 80.1396 161.901V156.546C80.1396 156.178 80.5384 155.948 80.8574 156.132L85.4984 158.809Z" fill="#B8B8B6"/>
<path d="M70.7342 174.394C70.5501 174.713 70.0898 174.713 69.9054 174.394L67.2259 169.756C67.0418 169.438 67.2721 169.039 67.6403 169.039H72.9994C73.3678 169.039 73.5981 169.438 73.4137 169.756L70.7342 174.394Z" fill="#B8B8B6"/>
<path d="M262.631 174.011C268.057 174.011 272.456 169.615 272.456 164.192C272.456 158.77 268.057 154.374 262.631 154.374C257.205 154.374 252.807 158.77 252.807 164.192C252.807 169.615 257.205 174.011 262.631 174.011Z" fill="#5E528F"/>
<path d="M262.631 172.417C267.177 172.417 270.861 168.735 270.861 164.192C270.861 159.65 267.177 155.967 262.631 155.967C258.086 155.967 254.401 159.65 254.401 164.192C254.401 168.735 258.086 172.417 262.631 172.417Z" fill="#D9D9D9"/>
<path d="M259.745 159.988H261.283C262.486 159.988 263.087 160.735 263.087 162.227C263.087 162.798 263.009 163.221 262.853 163.497C262.696 163.773 262.42 163.982 262.024 164.124C262.478 164.305 262.789 164.537 262.956 164.821C263.127 165.1 263.212 165.522 263.212 166.085C263.212 167.628 262.551 168.4 261.228 168.4H259.745V159.988ZM260.814 163.693C261.254 163.693 261.559 163.592 261.73 163.388C261.901 163.174 261.986 162.798 261.986 162.26C261.986 161.352 261.659 160.898 261.005 160.898H260.917H260.868C260.839 160.898 260.821 160.9 260.814 160.904V163.693ZM260.814 167.43C261.279 167.43 261.601 167.331 261.779 167.131C261.957 166.931 262.046 166.57 262.046 166.047C262.046 165.509 261.953 165.133 261.768 164.919C261.586 164.701 261.268 164.592 260.814 164.592V167.43Z" fill="#B8B8B6"/>
<path d="M288.277 165.279C293.703 165.279 298.102 160.883 298.102 155.461C298.102 150.038 293.703 145.642 288.277 145.642C282.851 145.642 278.453 150.038 278.453 155.461C278.453 160.883 282.851 165.279 288.277 165.279Z" fill="#5E528F"/>
<path d="M288.277 163.686C292.823 163.686 296.507 160.003 296.507 155.461C296.507 150.918 292.823 147.236 288.277 147.236C283.732 147.236 280.047 150.918 280.047 155.461C280.047 160.003 283.732 163.686 288.277 163.686Z" fill="#D9D9D9"/>
<path d="M286.612 151.257H287.495L289.3 159.669H288.177L287.861 158.029H286.193L285.871 159.669H284.781L286.612 151.257ZM287.697 157.152L287.447 155.812C287.279 154.9 287.143 153.927 287.038 152.891C286.987 153.396 286.921 153.909 286.841 154.428C286.761 154.944 286.667 155.492 286.558 156.073L286.351 157.152H287.697Z" fill="#B8B8B6"/>
<path d="M283.157 185.994L253.885 193.832C253.289 193.992 252.936 194.604 253.096 195.199C253.255 195.794 253.867 196.147 254.463 195.988L283.735 188.149C284.33 187.99 284.684 187.378 284.524 186.783C284.365 186.188 283.753 185.834 283.157 185.994Z" fill="#5E528F"/>
<path d="M283.157 191.976L253.885 199.814C253.289 199.974 252.936 200.586 253.096 201.181C253.255 201.776 253.867 202.129 254.463 201.97L283.735 194.131C284.33 193.972 284.684 193.36 284.524 192.765C284.365 192.17 283.753 191.816 283.157 191.976Z" fill="#5E528F"/>
<path d="M283.157 197.843L253.885 205.681C253.289 205.841 252.936 206.453 253.096 207.048C253.255 207.643 253.867 207.996 254.463 207.837L283.735 199.999C284.33 199.839 284.684 199.227 284.524 198.632C284.365 198.037 283.753 197.684 283.157 197.843Z" fill="#5E528F"/>
<path d="M283.157 203.129L253.885 210.967C253.289 211.127 252.936 211.738 253.096 212.334C253.255 212.929 253.867 213.282 254.463 213.123L283.735 205.284C284.33 205.125 284.684 204.513 284.524 203.918C284.365 203.322 283.753 202.969 283.157 203.129Z" fill="#5E528F"/>
<path d="M283.157 208.414L253.885 216.253C253.289 216.412 252.936 217.024 253.096 217.619C253.255 218.214 253.867 218.568 254.463 218.408L283.735 210.57C284.33 210.41 284.684 209.799 284.524 209.203C284.365 208.608 283.753 208.255 283.157 208.414Z" fill="#5E528F"/>
<path d="M262.239 125.905C264.998 125.905 267.235 123.669 267.235 120.912C267.235 118.155 264.998 115.919 262.239 115.919C259.48 115.919 257.243 118.155 257.243 120.912C257.243 123.669 259.48 125.905 262.239 125.905Z" fill="#7D71AE"/>
<path d="M262.239 124.632C264.294 124.632 265.96 122.966 265.96 120.912C265.96 118.858 264.294 117.192 262.239 117.192C260.183 117.192 258.517 118.858 258.517 120.912C258.517 122.966 260.183 124.632 262.239 124.632Z" fill="#53544B"/>
<path d="M270.938 118.729H271.707C272.077 118.729 272.346 118.823 272.514 119.01C272.682 119.198 272.767 119.497 272.767 119.906C272.767 120.481 272.598 120.853 272.259 121.021C272.089 121.098 271.843 121.136 271.522 121.136V123.055H270.938V118.729ZM271.522 120.637C271.763 120.637 271.929 120.589 272.021 120.492C272.114 120.393 272.161 120.217 272.161 119.965C272.161 119.707 272.116 119.519 272.027 119.399C271.937 119.279 271.796 119.22 271.603 119.22H271.522V120.637ZM275.382 120.999C275.382 121.763 275.297 122.306 275.127 122.627C274.957 122.948 274.672 123.109 274.272 123.109C273.852 123.109 273.556 122.936 273.383 122.59C273.213 122.252 273.128 121.652 273.128 120.789C273.128 120.019 273.212 119.475 273.381 119.155C273.551 118.834 273.838 118.673 274.244 118.673C274.607 118.673 274.876 118.798 275.052 119.046C275.167 119.212 275.252 119.449 275.304 119.755C275.356 120.039 275.382 120.453 275.382 120.999ZM274.771 121.061C274.771 120.312 274.738 119.815 274.67 119.57C274.603 119.323 274.466 119.2 274.258 119.2C274.051 119.2 273.912 119.313 273.843 119.539C273.776 119.767 273.742 120.225 273.742 120.912C273.742 121.545 273.778 121.984 273.849 122.229C273.922 122.461 274.058 122.576 274.258 122.576C274.454 122.576 274.589 122.468 274.662 122.251C274.735 122.037 274.771 121.64 274.771 121.061ZM275.638 118.729H276.201L276.495 120.738L276.543 121.035C276.566 121.196 276.582 121.343 276.594 121.475L276.625 121.842C276.626 121.852 276.628 121.868 276.63 121.893C276.632 121.917 276.635 121.948 276.639 121.985L276.652 121.845C276.675 121.6 276.698 121.375 276.722 121.17C276.749 120.964 276.777 120.775 276.807 120.601L277.118 118.729H277.567L277.858 120.548C277.901 120.817 277.937 121.066 277.965 121.296C277.995 121.526 278.019 121.745 278.037 121.954C278.056 121.734 278.077 121.521 278.099 121.316C278.123 121.11 278.149 120.908 278.175 120.71L278.217 120.422L278.466 118.729H279.024L278.259 123.055H277.805L277.499 121.187C277.497 121.179 277.493 121.148 277.485 121.094C277.478 121.04 277.466 120.962 277.451 120.862L277.393 120.43C277.389 120.397 277.382 120.346 277.373 120.279C277.366 120.212 277.357 120.127 277.348 120.024L277.334 119.845C277.33 119.887 277.326 119.925 277.323 119.957C277.319 119.988 277.316 120.014 277.314 120.035C277.305 120.158 277.296 120.255 277.289 120.324C277.283 120.391 277.279 120.432 277.278 120.447L277.219 120.862C277.206 120.957 277.196 121.032 277.188 121.086C277.181 121.14 277.175 121.174 277.171 121.187L276.854 123.055H276.386L275.638 118.729ZM279.366 118.729H280.917V119.223H279.949V120.593H280.808V121.086H279.949V122.562H280.917V123.055H279.366V118.729ZM281.452 118.729H282.221C282.538 118.729 282.775 118.805 282.93 118.956C283.126 119.152 283.224 119.452 283.224 119.856C283.224 120.166 283.172 120.415 283.067 120.604C282.965 120.791 282.817 120.906 282.624 120.951L283.42 123.055H282.829L282.035 120.937V123.055H281.452V118.729ZM282.035 120.646C282.261 120.646 282.421 120.594 282.515 120.489C282.608 120.384 282.655 120.208 282.655 119.959C282.655 119.825 282.645 119.71 282.624 119.615C282.606 119.52 282.575 119.442 282.532 119.382C282.491 119.322 282.436 119.279 282.369 119.251C282.304 119.223 282.225 119.208 282.134 119.208H282.035V120.646Z" fill="#7D71AE"/>
<path d="M137.942 214.799C137.563 214.631 137.17 214.533 136.728 214.533C135.984 214.533 135.184 214.855 134.58 215.388C133.991 215.907 133.612 216.602 133.492 217.324C133.373 218.109 133.527 218.797 134.026 219.323C134.496 219.821 135.156 220.101 135.893 220.101C136.321 220.101 136.664 219.996 137.142 219.856L137.408 218.208C137.065 218.551 136.58 218.769 136.131 218.769C135.275 218.769 134.791 218.166 134.924 217.331C135.057 216.51 135.724 215.865 136.566 215.865C137.036 215.865 137.465 216.069 137.682 216.447L137.942 214.799ZM141.501 214.498C139.978 214.498 138.399 215.62 138.146 217.219C137.873 218.93 138.911 220.136 140.609 220.136C142.308 220.136 143.725 218.93 143.999 217.219C144.252 215.62 143.024 214.498 141.501 214.498ZM141.29 215.83C142.111 215.83 142.68 216.496 142.567 217.226C142.42 218.138 141.641 218.804 140.82 218.804C139.999 218.804 139.43 218.138 139.578 217.226C139.69 216.496 140.469 215.83 141.29 215.83ZM144.201 219.961H146.152C147.618 219.961 149.022 218.804 149.261 217.317C149.492 215.83 148.461 214.673 146.987 214.673H145.036L144.201 219.961ZM146.229 215.837H146.552C147.436 215.837 147.976 216.37 147.829 217.317C147.661 218.348 146.889 218.797 146.067 218.797H145.759L146.229 215.837ZM153.141 215.837L153.324 214.673H150.313L149.478 219.961H152.489L152.671 218.797H151.036L151.183 217.885H152.734L152.917 216.721H151.366L151.506 215.837H153.141ZM157.763 214.673L157.216 218.159C157.167 218.453 157.103 218.937 156.696 218.937C156.514 218.937 156.331 218.699 156.212 218.488L155.286 219.323C155.524 219.807 155.938 220.101 156.528 220.101C157.7 220.101 158.402 219.358 158.577 218.243L159.139 214.673H157.763ZM162.699 214.498C161.176 214.498 159.597 215.62 159.344 217.219C159.07 218.93 160.109 220.136 161.807 220.136C163.506 220.136 164.923 218.93 165.197 217.219C165.45 215.62 164.221 214.498 162.699 214.498ZM162.488 215.83C163.309 215.83 163.878 216.496 163.765 217.226C163.618 218.138 162.839 218.804 162.018 218.804C161.197 218.804 160.628 218.138 160.776 217.226C160.888 216.496 161.667 215.83 162.488 215.83ZM167.167 217.422L166.767 219.961H168.142L168.542 217.422L170.928 214.673H169.279L168.065 216.111L167.3 214.673H165.651L167.167 217.422Z" fill="#D9D9D9"/>
<path d="M176.495 219.337L174.93 216.558L173.825 218.529H174.93V219.337H172.107L172.451 218.772L174.404 215.511H175.452L177.629 219.337H176.495ZM181.777 219.337H178.523V215.511H181.777C182.482 215.511 182.974 215.828 183.255 216.463C183.373 216.724 183.443 217.04 183.466 217.41C183.443 217.786 183.373 218.106 183.255 218.371C182.974 219.015 182.482 219.337 181.777 219.337ZM182.557 217.419C182.541 217.202 182.499 217.016 182.432 216.86C182.266 216.487 181.976 216.3 181.561 216.3H179.47V218.553H181.556C181.971 218.553 182.263 218.364 182.432 217.988C182.499 217.829 182.541 217.639 182.557 217.419ZM186.719 219.337H187.47L189.877 215.511H188.762L187.097 218.022L185.566 215.511H184.522L186.719 219.337ZM195.139 219.337L193.575 216.558L192.469 218.529H193.575V219.337H190.752L191.096 218.772L193.048 215.511H194.096L196.273 219.337H195.139ZM201.124 219.337H202.096V215.511H201.124V217.969L198.119 215.511H197.167V219.337H198.119L198.124 216.807L201.124 219.337ZM206.731 216.329H204.128V218.538H206.741V217.73H207.679L207.683 218.777C207.712 219.01 207.596 219.173 207.334 219.265C207.222 219.306 207.088 219.33 206.932 219.337C206.524 219.34 205.463 219.34 203.75 219.337C203.406 219.337 203.221 219.152 203.195 218.782C203.202 218.317 203.202 217.378 203.195 215.966C203.195 215.685 203.438 215.534 203.922 215.511H206.937C207.393 215.511 207.639 215.663 207.674 215.966V217.022H206.731V216.329ZM212.715 219.337V218.495H209.653V217.811H211.452V216.979H209.648V216.295H212.725V215.511H208.658V219.337H212.715Z" fill="#D9D9D9"/>
<path fill-rule="evenodd" clip-rule="evenodd" d="M158.48 99.5259C156.278 99.5259 154.492 101.31 154.492 103.511C154.492 105.712 156.278 107.496 158.48 107.496H187.189C189.391 107.496 191.177 105.712 191.177 103.511C191.177 101.31 189.391 99.5259 187.189 99.5259H158.48ZM158.529 100.642C156.943 100.642 155.658 101.926 155.658 103.511C155.658 105.095 156.943 106.38 158.529 106.38H187.239C188.824 106.38 190.109 105.095 190.109 103.511C190.109 101.926 188.824 100.642 187.239 100.642H158.529Z" fill="#5E528F"/>
<path d="M164.722 102.163V104.945H164.134V102.163H164.722ZM165.775 103.739V104.945H165.196V102.859H165.748V103.227H165.772C165.818 103.105 165.896 103.009 166.005 102.939C166.113 102.867 166.245 102.831 166.4 102.831C166.545 102.831 166.672 102.863 166.78 102.927C166.887 102.99 166.971 103.08 167.031 103.198C167.091 103.315 167.121 103.455 167.121 103.617V104.945H166.542V103.72C166.543 103.592 166.51 103.493 166.444 103.421C166.378 103.349 166.286 103.312 166.171 103.312C166.092 103.312 166.024 103.329 165.964 103.363C165.905 103.396 165.859 103.445 165.825 103.509C165.793 103.573 165.776 103.649 165.775 103.739ZM170.044 103.137H169.449C169.438 103.06 169.416 102.992 169.382 102.932C169.349 102.871 169.306 102.82 169.253 102.777C169.201 102.735 169.14 102.702 169.071 102.679C169.003 102.657 168.929 102.645 168.849 102.645C168.705 102.645 168.58 102.681 168.473 102.753C168.366 102.823 168.283 102.927 168.224 103.062C168.165 103.197 168.136 103.361 168.136 103.554C168.136 103.752 168.165 103.919 168.224 104.054C168.284 104.189 168.367 104.291 168.474 104.36C168.581 104.429 168.705 104.463 168.845 104.463C168.924 104.463 168.997 104.453 169.064 104.432C169.132 104.411 169.192 104.381 169.245 104.341C169.298 104.3 169.341 104.251 169.376 104.193C169.411 104.135 169.435 104.069 169.449 103.994L170.044 103.997C170.029 104.125 169.99 104.248 169.929 104.367C169.868 104.484 169.786 104.59 169.683 104.683C169.58 104.775 169.458 104.849 169.316 104.903C169.174 104.957 169.014 104.983 168.836 104.983C168.588 104.983 168.366 104.927 168.17 104.815C167.975 104.703 167.821 104.54 167.707 104.327C167.595 104.114 167.539 103.857 167.539 103.554C167.539 103.251 167.596 102.993 167.71 102.78C167.825 102.567 167.979 102.405 168.175 102.293C168.371 102.181 168.591 102.125 168.836 102.125C168.997 102.125 169.147 102.148 169.284 102.193C169.423 102.238 169.546 102.304 169.653 102.391C169.76 102.477 169.847 102.583 169.914 102.708C169.982 102.833 170.025 102.976 170.044 103.137ZM171.399 104.986C171.188 104.986 171.005 104.941 170.851 104.852C170.698 104.761 170.58 104.635 170.496 104.474C170.413 104.312 170.371 104.124 170.371 103.91C170.371 103.695 170.413 103.506 170.496 103.345C170.58 103.183 170.698 103.057 170.851 102.967C171.005 102.877 171.188 102.831 171.399 102.831C171.61 102.831 171.792 102.877 171.945 102.967C172.099 103.057 172.218 103.183 172.301 103.345C172.385 103.506 172.426 103.695 172.426 103.91C172.426 104.124 172.385 104.312 172.301 104.474C172.218 104.635 172.099 104.761 171.945 104.852C171.792 104.941 171.61 104.986 171.399 104.986ZM171.401 104.538C171.498 104.538 171.578 104.511 171.642 104.456C171.706 104.401 171.755 104.326 171.788 104.231C171.821 104.136 171.838 104.027 171.838 103.906C171.838 103.785 171.821 103.676 171.788 103.581C171.755 103.486 171.706 103.411 171.642 103.356C171.578 103.301 171.498 103.273 171.401 103.273C171.304 103.273 171.223 103.301 171.157 103.356C171.092 103.411 171.042 103.486 171.009 103.581C170.976 103.676 170.96 103.785 170.96 103.906C170.96 104.027 170.976 104.136 171.009 104.231C171.042 104.326 171.092 104.401 171.157 104.456C171.223 104.511 171.304 104.538 171.401 104.538ZM173.573 104.979C173.414 104.979 173.27 104.938 173.142 104.857C173.014 104.775 172.912 104.654 172.837 104.494C172.763 104.334 172.726 104.137 172.726 103.905C172.726 103.666 172.764 103.467 172.841 103.308C172.918 103.149 173.021 103.03 173.148 102.951C173.277 102.871 173.418 102.831 173.571 102.831C173.688 102.831 173.785 102.851 173.863 102.891C173.942 102.93 174.006 102.979 174.054 103.038C174.103 103.096 174.14 103.153 174.165 103.209H174.183V102.163H174.76V104.945H174.189V104.611H174.165C174.138 104.669 174.099 104.727 174.05 104.784C174.001 104.84 173.937 104.886 173.858 104.923C173.78 104.961 173.685 104.979 173.573 104.979ZM173.756 104.519C173.849 104.519 173.928 104.493 173.993 104.443C174.058 104.391 174.107 104.319 174.142 104.227C174.177 104.134 174.195 104.026 174.195 103.902C174.195 103.778 174.178 103.67 174.144 103.579C174.109 103.487 174.059 103.416 173.994 103.367C173.929 103.317 173.849 103.292 173.756 103.292C173.661 103.292 173.58 103.318 173.515 103.369C173.45 103.421 173.401 103.493 173.367 103.584C173.334 103.676 173.317 103.781 173.317 103.902C173.317 104.023 173.334 104.131 173.367 104.224C173.402 104.316 173.451 104.389 173.515 104.441C173.58 104.493 173.661 104.519 173.756 104.519ZM176.188 104.986C175.973 104.986 175.789 104.943 175.634 104.856C175.479 104.768 175.361 104.644 175.278 104.483C175.194 104.322 175.152 104.132 175.152 103.911C175.152 103.697 175.194 103.508 175.278 103.346C175.361 103.184 175.478 103.058 175.629 102.967C175.782 102.877 175.96 102.831 176.165 102.831C176.303 102.831 176.431 102.854 176.55 102.898C176.669 102.941 176.774 103.007 176.862 103.095C176.952 103.183 177.022 103.293 177.072 103.426C177.122 103.559 177.147 103.714 177.147 103.891V104.05H175.383V103.691H176.601C176.601 103.608 176.583 103.534 176.547 103.47C176.511 103.406 176.46 103.355 176.396 103.319C176.333 103.282 176.259 103.263 176.175 103.263C176.087 103.263 176.009 103.284 175.941 103.325C175.874 103.364 175.821 103.418 175.783 103.486C175.745 103.553 175.725 103.628 175.725 103.71V104.051C175.725 104.155 175.744 104.244 175.782 104.319C175.821 104.394 175.876 104.452 175.946 104.493C176.017 104.534 176.101 104.554 176.198 104.554C176.262 104.554 176.321 104.545 176.375 104.527C176.428 104.509 176.474 104.482 176.512 104.445C176.55 104.409 176.579 104.365 176.599 104.312L177.134 104.347C177.107 104.476 177.051 104.588 176.967 104.684C176.884 104.779 176.776 104.854 176.643 104.907C176.512 104.96 176.361 104.986 176.188 104.986ZM178.522 104.945H177.535V102.163H178.53C178.81 102.163 179.052 102.219 179.253 102.33C179.456 102.441 179.611 102.6 179.72 102.807C179.83 103.014 179.884 103.263 179.884 103.551C179.884 103.841 179.83 104.09 179.72 104.299C179.611 104.507 179.455 104.667 179.251 104.778C179.048 104.89 178.805 104.945 178.522 104.945ZM178.124 104.441H178.498C178.672 104.441 178.818 104.41 178.937 104.349C179.056 104.286 179.146 104.19 179.206 104.059C179.267 103.928 179.297 103.759 179.297 103.551C179.297 103.346 179.267 103.178 179.206 103.047C179.146 102.917 179.057 102.821 178.938 102.759C178.819 102.698 178.673 102.667 178.499 102.667H178.124V104.441ZM181.253 104.986C181.042 104.986 180.859 104.941 180.705 104.852C180.552 104.761 180.433 104.635 180.35 104.474C180.267 104.312 180.225 104.124 180.225 103.91C180.225 103.695 180.267 103.506 180.35 103.345C180.433 103.183 180.552 103.057 180.705 102.967C180.859 102.877 181.042 102.831 181.253 102.831C181.464 102.831 181.646 102.877 181.799 102.967C181.953 103.057 182.072 103.183 182.155 103.345C182.239 103.506 182.28 103.695 182.28 103.91C182.28 104.124 182.239 104.312 182.155 104.474C182.072 104.635 181.953 104.761 181.799 104.852C181.646 104.941 181.464 104.986 181.253 104.986ZM181.255 104.538C181.351 104.538 181.432 104.511 181.496 104.456C181.56 104.401 181.609 104.326 181.641 104.231C181.675 104.136 181.692 104.027 181.692 103.906C181.692 103.785 181.675 103.676 181.641 103.581C181.609 103.486 181.56 103.411 181.496 103.356C181.432 103.301 181.351 103.273 181.255 103.273C181.158 103.273 181.077 103.301 181.011 103.356C180.945 103.411 180.896 103.486 180.863 103.581C180.83 103.676 180.814 103.785 180.814 103.906C180.814 104.027 180.83 104.136 180.863 104.231C180.896 104.326 180.945 104.401 181.011 104.456C181.077 104.511 181.158 104.538 181.255 104.538Z" fill="#5E528F"/>
</g>
<defs>
<clipPath id="clip0_342_63">
<rect width="346" height="347" fill="white"/>
</clipPath>
</defs>
</svg>
