<svg width="346" height="347" viewBox="0 0 346 347" fill="none" xmlns="http://www.w3.org/2000/svg">
<path fill-rule="evenodd" clip-rule="evenodd" d="M1.14955 0H344.851C345.486 0 346 0.534234 346 1.19325V345.807C346 346.465 345.486 347 344.851 347H1.14955C0.514672 347 0 346.465 0 345.807V1.19325C0 0.534234 0.514672 0 1.14955 0Z" fill="#763B00"/>
<path fill-rule="evenodd" clip-rule="evenodd" d="M0 0H346V347H0V0Z" fill="#763B00"/>
<rect x="37.1425" y="247.89" width="271.715" height="67.8628" rx="30" fill="black" fill-opacity="0.09"/>
<path fill-rule="evenodd" clip-rule="evenodd" d="M308.857 171.259V265.217C308.857 284.42 293.335 299.988 274.187 299.988H71.8132C52.6653 299.988 37.1426 284.42 37.1426 265.217V171.259C37.1426 152.055 52.6653 136.488 71.8132 136.488H274.187C293.335 136.488 308.857 152.055 308.857 171.259Z" fill="#A35B12"/>
<path fill-rule="evenodd" clip-rule="evenodd" d="M155.838 154.655C150.832 154.655 146.772 158.727 146.772 163.748V180.183C130.553 189.612 119.61 207.167 119.61 227.321C119.61 257.421 143.94 281.821 173.953 281.821C203.966 281.821 228.296 257.421 228.296 227.321C228.296 207.155 217.35 189.589 201.115 180.164V163.748C201.115 158.727 197.054 154.655 192.048 154.655H155.838Z" fill="#9E9E9E"/>
<path fill-rule="evenodd" clip-rule="evenodd" d="M128.068 227.321C128.068 202.922 148.613 183.142 173.956 183.142C199.299 183.142 219.844 202.922 219.844 227.321C219.844 251.721 199.299 271.501 173.956 271.501C148.613 271.501 128.068 251.721 128.068 227.321Z" fill="#B9B9B9"/>
<path fill-rule="evenodd" clip-rule="evenodd" d="M159.523 226.505C159.523 219.041 165.557 212.99 173 212.99C180.443 212.99 186.477 219.041 186.477 226.505C186.477 233.97 180.443 240.021 173 240.021C165.557 240.021 159.523 233.97 159.523 226.505Z" fill="#636363"/>
<path fill-rule="evenodd" clip-rule="evenodd" d="M173 222.756L183.455 251.136H162.545L173 222.756Z" fill="#636363"/>
<path fill-rule="evenodd" clip-rule="evenodd" d="M60.6912 154.352H86.0513C89.0524 154.352 89.765 156.077 87.6431 158.205L59.0994 186.831C56.9775 188.96 55.257 188.245 55.257 185.235V159.802C55.257 156.792 57.6901 154.352 60.6912 154.352Z" fill="#763B00"/>
<path fill-rule="evenodd" clip-rule="evenodd" d="M55.257 276.371V250.938C55.257 247.928 56.9775 247.213 59.0994 249.342L87.6431 277.967C89.765 280.096 89.0524 281.821 86.0513 281.821H60.6912C57.6901 281.821 55.257 279.381 55.257 276.371Z" fill="#763B00"/>
<path fill-rule="evenodd" clip-rule="evenodd" d="M290.679 160.013L290.807 185.446C290.822 188.456 289.105 189.179 286.972 187.061L258.285 158.581C256.152 156.463 256.856 154.734 259.857 154.719L285.217 154.59C288.218 154.575 290.663 157.003 290.679 160.013Z" fill="#763B00"/>
<path fill-rule="evenodd" clip-rule="evenodd" d="M285.217 281.757L259.857 281.885C256.856 281.901 256.135 280.179 258.246 278.04L286.645 249.27C288.757 247.13 290.481 247.837 290.496 250.846L290.624 276.279C290.639 279.289 288.218 281.742 285.217 281.757Z" fill="#763B00"/>
<path fill-rule="evenodd" clip-rule="evenodd" d="M153.792 160.599H192.208C192.924 160.599 193.504 161.213 193.504 161.97C193.504 162.727 192.924 163.34 192.208 163.34H153.792C153.076 163.34 152.495 162.727 152.495 161.97C152.495 161.213 153.076 160.599 153.792 160.599Z" fill="white" fill-opacity="0.350177"/>
<path fill-rule="evenodd" clip-rule="evenodd" d="M105.477 127.491C99.3279 127.491 94.343 122.506 94.343 116.357V63.9452L94.343 63.9451C94.343 57.7959 99.3279 52.811 105.477 52.811L105.528 52.8111H240.472C240.489 52.8111 240.506 52.811 240.523 52.811C243.598 52.811 246.381 54.0573 248.396 56.0722C250.411 58.0871 251.657 60.8706 251.657 63.9452C251.657 63.9514 251.657 63.9576 251.657 63.9638V116.357C251.657 122.506 246.672 127.491 240.523 127.491C234.374 127.491 229.389 122.506 229.389 116.357V80.0792C229.389 77.3178 227.15 75.0792 224.389 75.0792H121.611C118.85 75.0792 116.611 77.3178 116.611 80.0792L116.611 116.357C116.611 122.506 111.626 127.491 105.477 127.491Z" fill="black" fill-opacity="0.09"/>
<path fill-rule="evenodd" clip-rule="evenodd" d="M105.477 118.024C99.3278 118.024 94.3429 113.039 94.3429 106.89V54.4779L94.3429 54.4778C94.3429 48.3286 99.3278 43.3438 105.477 43.3438L105.528 43.3439H240.472C240.489 43.3438 240.506 43.3438 240.523 43.3438C243.597 43.3438 246.381 44.59 248.396 46.6049C250.411 48.6198 251.657 51.4033 251.657 54.4779C251.657 54.4841 251.657 54.4903 251.657 54.4965V106.89C251.657 113.039 246.672 118.024 240.523 118.024C234.374 118.024 229.389 113.039 229.389 106.89V70.6119C229.389 67.8505 227.15 65.6119 224.389 65.6119H121.611C118.85 65.6119 116.611 67.8505 116.611 70.6119L116.611 106.89C116.611 113.039 111.626 118.024 105.477 118.024Z" fill="#9E9E9E"/>
</svg>
