<svg width="50" height="49" viewBox="0 0 50 49" fill="none" xmlns="http://www.w3.org/2000/svg">
<rect x="0.665527" y="0.291992" width="49" height="48" rx="10" fill="white"/>
<path fill-rule="evenodd" clip-rule="evenodd" d="M40.1655 21.2117C40.1655 21.1295 40.1618 21.0521 40.1545 20.9795C40.1545 20.9794 40.1545 20.9794 40.1545 20.9794C40.1618 20.8345 40.1655 20.6887 40.1655 20.542C40.1655 15.8476 36.3599 12.042 31.6655 12.042C29.384 12.042 27.3124 12.9409 25.7856 14.4039C25.4435 14.7317 24.8876 14.7317 24.5455 14.4039V14.4039C23.0187 12.9409 20.9471 12.042 18.6655 12.042C13.9711 12.042 10.1655 15.8476 10.1655 20.542C10.1655 20.5818 10.1658 20.6216 10.1663 20.6612C10.1668 20.6916 10.1673 20.722 10.1681 20.7523C10.1718 20.9035 10.1658 21.055 10.1655 21.2063C10.1655 21.2081 10.1655 21.2099 10.1655 21.2117C10.1655 21.2117 10.1655 21.2117 10.1655 21.2118C10.1655 23.2159 11.4159 25.89 13.2365 28.5367C16.7122 33.5894 22.266 38.542 25.1655 38.542C28.1037 38.542 33.7676 33.4562 37.2326 28.3342C38.9781 25.7541 40.1655 23.1648 40.1655 21.2118C40.1655 21.2117 40.1655 21.2117 40.1655 21.2117ZM25.1655 26.1724C25.1664 26.1724 25.1674 26.1724 25.1683 26.1724C25.2191 26.1724 25.245 26.1126 25.2119 26.074V26.074C25.1875 26.0456 25.1435 26.0456 25.1192 26.074V26.074C25.0861 26.1126 25.1119 26.1724 25.1628 26.1724C25.1637 26.1724 25.1646 26.1724 25.1655 26.1724Z" fill="#DC528C"/>
</svg>
