<svg width="50" height="49" viewBox="0 0 50 49" fill="none" xmlns="http://www.w3.org/2000/svg">
<rect x="0.665527" y="0.291992" width="49" height="48" rx="10" fill="white"/>
<path fill-rule="evenodd" clip-rule="evenodd" d="M40.1655 20.2117C40.1655 20.1295 40.1618 20.0521 40.1545 19.9795C40.1545 19.9794 40.1545 19.9794 40.1545 19.9794C40.1618 19.8345 40.1655 19.6887 40.1655 19.542C40.1655 14.8476 36.3599 11.042 31.6655 11.042C29.384 11.042 27.3124 11.9409 25.7856 13.4039C25.4435 13.7317 24.8876 13.7317 24.5455 13.4039V13.4039C23.0187 11.9409 20.9471 11.042 18.6655 11.042C13.9711 11.042 10.1655 14.8476 10.1655 19.542C10.1655 19.5818 10.1658 19.6216 10.1663 19.6612C10.1668 19.6916 10.1673 19.722 10.1681 19.7523C10.1718 19.9035 10.1658 20.055 10.1655 20.2063C10.1655 20.2081 10.1655 20.2099 10.1655 20.2117C10.1655 20.2117 10.1655 20.2117 10.1655 20.2118C10.1655 22.2159 11.4159 24.89 13.2365 27.5367C16.7122 32.5894 22.266 37.542 25.1655 37.542C28.1037 37.542 33.7676 32.4562 37.2326 27.3342C38.9781 24.7541 40.1655 22.1648 40.1655 20.2118C40.1655 20.2117 40.1655 20.2117 40.1655 20.2117ZM25.1655 25.1724C25.1664 25.1724 25.1674 25.1724 25.1683 25.1724C25.2191 25.1724 25.245 25.1126 25.2119 25.074V25.074C25.1875 25.0456 25.1435 25.0456 25.1192 25.074V25.074C25.0861 25.1126 25.1119 25.1724 25.1628 25.1724C25.1637 25.1724 25.1646 25.1724 25.1655 25.1724Z" fill="#DC528C"/>
</svg>
