<svg width="1441" height="254" viewBox="0 0 1441 254" fill="none" xmlns="http://www.w3.org/2000/svg">
<path d="M0.127563 125.396L10.1276 120.096C20.1276 114.396 40.1276 104.396 60.1276 88.0959C80.1276 72.3959 100.128 50.396 120.128 45.396C140.128 40.396 160.128 50.3959 180.128 72.0959C200.128 93.3959 220.128 125.396 240.128 125.396C260.128 125.396 280.128 93.396 300.128 82.696C320.128 72.396 340.128 82.3959 360.128 72.0959C380.128 61.3959 400.128 29.3959 420.128 40.0959C440.128 50.3959 460.128 104.396 480.128 141.396C500.128 178.396 520.128 200.396 540.128 173.396C560.128 146.396 580.128 72.3959 600.128 40.0959C620.128 8.39595 640.128 18.3959 660.128 24.0959C680.128 29.3959 700.128 29.396 720.128 29.396C740.128 29.396 760.128 29.396 780.128 18.696C800.128 8.39595 820.128 -13.604 840.128 13.396C860.128 40.396 880.128 114.396 900.128 130.696C920.128 146.396 940.128 104.396 960.128 88.0959C980.128 72.3959 1000.13 82.3959 1020.13 72.0959C1040.13 61.3959 1060.13 29.396 1080.13 34.696C1100.13 40.396 1120.13 82.3959 1140.13 104.096C1160.13 125.396 1180.13 125.396 1200.13 104.096C1220.13 82.3959 1240.13 40.3959 1260.13 24.0959C1280.13 8.39595 1300.13 18.396 1320.13 50.696C1340.13 82.396 1360.13 136.396 1380.13 173.396C1400.13 210.396 1420.13 232.396 1430.13 242.696L1440.13 253.396H1430.13C1420.13 253.396 1400.13 253.396 1380.13 253.396C1360.13 253.396 1340.13 253.396 1320.13 253.396C1300.13 253.396 1280.13 253.396 1260.13 253.396C1240.13 253.396 1220.13 253.396 1200.13 253.396C1180.13 253.396 1160.13 253.396 1140.13 253.396C1120.13 253.396 1100.13 253.396 1080.13 253.396C1060.13 253.396 1040.13 253.396 1020.13 253.396C1000.13 253.396 980.128 253.396 960.128 253.396C940.128 253.396 920.128 253.396 900.128 253.396C880.128 253.396 860.128 253.396 840.128 253.396C820.128 253.396 800.128 253.396 780.128 253.396C760.128 253.396 740.128 253.396 720.128 253.396C700.128 253.396 680.128 253.396 660.128 253.396C640.128 253.396 620.128 253.396 600.128 253.396C580.128 253.396 560.128 253.396 540.128 253.396C520.128 253.396 500.128 253.396 480.128 253.396C460.128 253.396 440.128 253.396 420.128 253.396C400.128 253.396 380.128 253.396 360.128 253.396C340.128 253.396 320.128 253.396 300.128 253.396C280.128 253.396 260.128 253.396 240.128 253.396C220.128 253.396 200.128 253.396 180.128 253.396C160.128 253.396 140.128 253.396 120.128 253.396C100.128 253.396 80.1276 253.396 60.1276 253.396C40.1276 253.396 20.1276 253.396 10.1276 253.396H0.127563V125.396Z" fill="url(#paint0_linear_7_48)"/>
<defs>
<linearGradient id="paint0_linear_7_48" x1="720.128" y1="0.450439" x2="720.128" y2="253.396" gradientUnits="userSpaceOnUse">
<stop id="Pulse_Colour" stop-color="#E04F8C"/>
<stop id="Pulse_Colour" offset="1" stop-color="#E04F8C" stop-opacity="0"/>
</linearGradient>
</defs>
</svg>
