<svg width="2881" height="254" viewBox="0 0 2881 254" fill="none" xmlns="http://www.w3.org/2000/svg">
<path d="M1440.4 125.502L1450.4 120.202C1460.4 114.502 1480.4 104.502 1500.4 88.2017C1520.4 72.5017 1540.4 50.5017 1560.4 45.5017C1580.4 40.5017 1600.4 50.5017 1620.4 72.2017C1640.4 93.5017 1660.4 125.502 1680.4 125.502C1700.4 125.502 1720.4 93.5017 1740.4 82.8017C1760.4 72.5017 1780.4 82.5017 1800.4 72.2017C1820.4 61.5017 1840.4 29.5017 1860.4 40.2017C1880.4 50.5017 1900.4 104.502 1920.4 141.502C1940.4 178.502 1960.4 200.502 1980.4 173.502C2000.4 146.502 2020.4 72.5017 2040.4 40.2017C2060.4 8.50166 2080.4 18.5017 2100.4 24.2017C2120.4 29.5017 2140.4 29.5017 2160.4 29.5017C2180.4 29.5017 2200.4 29.5017 2220.4 18.8017C2240.4 8.50167 2260.4 -13.4983 2280.4 13.5017C2300.4 40.5017 2320.4 114.502 2340.4 130.802C2360.4 146.502 2380.4 104.502 2400.4 88.2017C2420.4 72.5017 2440.4 82.5017 2460.4 72.2017C2480.4 61.5017 2500.4 29.5017 2520.4 34.8017C2540.4 40.5017 2560.4 82.5017 2580.4 104.202C2600.4 125.502 2620.4 125.502 2640.4 104.202C2660.4 82.5017 2680.4 40.5017 2700.4 24.2017C2720.4 8.50166 2740.4 18.5017 2760.4 50.8017C2780.4 82.5017 2800.4 136.502 2820.4 173.502C2840.4 210.502 2860.4 232.502 2870.4 242.802L2880.4 253.502H2870.4C2860.4 253.502 2840.4 253.502 2820.4 253.502C2800.4 253.502 2780.4 253.502 2760.4 253.502C2740.4 253.502 2720.4 253.502 2700.4 253.502C2680.4 253.502 2660.4 253.502 2640.4 253.502C2620.4 253.502 2600.4 253.502 2580.4 253.502C2560.4 253.502 2540.4 253.502 2520.4 253.502C2500.4 253.502 2480.4 253.502 2460.4 253.502C2440.4 253.502 2420.4 253.502 2400.4 253.502C2380.4 253.502 2360.4 253.502 2340.4 253.502C2320.4 253.502 2300.4 253.502 2280.4 253.502C2260.4 253.502 2240.4 253.502 2220.4 253.502C2200.4 253.502 2180.4 253.502 2160.4 253.502C2140.4 253.502 2120.4 253.502 2100.4 253.502C2080.4 253.502 2060.4 253.502 2040.4 253.502C2020.4 253.502 2000.4 253.502 1980.4 253.502C1960.4 253.502 1940.4 253.502 1920.4 253.502C1900.4 253.502 1880.4 253.502 1860.4 253.502C1840.4 253.502 1820.4 253.502 1800.4 253.502C1780.4 253.502 1760.4 253.502 1740.4 253.502C1720.4 253.502 1700.4 253.502 1680.4 253.502C1660.4 253.502 1640.4 253.502 1620.4 253.502C1600.4 253.502 1580.4 253.502 1560.4 253.502C1540.4 253.502 1520.4 253.502 1500.4 253.502C1480.4 253.502 1460.4 253.502 1450.4 253.502H1440.4V125.502Z" fill="url(#paint0_linear_7_56)"/>
<path d="M1440.4 125.502L1430.4 120.202C1420.4 114.502 1400.4 104.502 1380.4 88.2017C1360.4 72.5017 1340.4 50.5017 1320.4 45.5017C1300.4 40.5017 1280.4 50.5017 1260.4 72.2017C1240.4 93.5017 1220.4 125.502 1200.4 125.502C1180.4 125.502 1160.4 93.5017 1140.4 82.8017C1120.4 72.5017 1100.4 82.5017 1080.4 72.2017C1060.4 61.5017 1040.4 29.5017 1020.4 40.2017C1000.4 50.5017 980.397 104.502 960.397 141.502C940.397 178.502 920.397 200.502 900.397 173.502C880.397 146.502 860.397 72.5017 840.397 40.2017C820.397 8.50166 800.397 18.5017 780.397 24.2017C760.397 29.5017 740.397 29.5017 720.397 29.5017C700.397 29.5017 680.397 29.5017 660.397 18.8017C640.397 8.50167 620.397 -13.4983 600.397 13.5017C580.397 40.5017 560.397 114.502 540.397 130.802C520.397 146.502 500.397 104.502 480.397 88.2017C460.397 72.5017 440.397 82.5017 420.397 72.2017C400.397 61.5017 380.397 29.5017 360.397 34.8017C340.397 40.5017 320.397 82.5017 300.397 104.202C280.397 125.502 260.397 125.502 240.397 104.202C220.397 82.5017 200.397 40.5017 180.397 24.2017C160.397 8.50166 140.397 18.5017 120.397 50.8017C100.397 82.5017 80.3967 136.502 60.3967 173.502C40.3967 210.502 20.3967 232.502 10.3967 242.802L0.396729 253.502H10.3967C20.3967 253.502 40.3967 253.502 60.3967 253.502C80.3967 253.502 100.397 253.502 120.397 253.502C140.397 253.502 160.397 253.502 180.397 253.502C200.397 253.502 220.397 253.502 240.397 253.502C260.397 253.502 280.397 253.502 300.397 253.502C320.397 253.502 340.397 253.502 360.397 253.502C380.397 253.502 400.397 253.502 420.397 253.502C440.397 253.502 460.397 253.502 480.397 253.502C500.397 253.502 520.397 253.502 540.397 253.502C560.397 253.502 580.397 253.502 600.397 253.502C620.397 253.502 640.397 253.502 660.397 253.502C680.397 253.502 700.397 253.502 720.397 253.502C740.397 253.502 760.397 253.502 780.397 253.502C800.397 253.502 820.397 253.502 840.397 253.502C860.397 253.502 880.397 253.502 900.397 253.502C920.397 253.502 940.397 253.502 960.397 253.502C980.397 253.502 1000.4 253.502 1020.4 253.502C1040.4 253.502 1060.4 253.502 1080.4 253.502C1100.4 253.502 1120.4 253.502 1140.4 253.502C1160.4 253.502 1180.4 253.502 1200.4 253.502C1220.4 253.502 1240.4 253.502 1260.4 253.502C1280.4 253.502 1300.4 253.502 1320.4 253.502C1340.4 253.502 1360.4 253.502 1380.4 253.502C1400.4 253.502 1420.4 253.502 1430.4 253.502H1440.4V125.502Z" fill="url(#paint1_linear_7_56)"/>
<defs>
<linearGradient id="paint0_linear_7_56" x1="2160.4" y1="0.556152" x2="2160.4" y2="253.502" gradientUnits="userSpaceOnUse">
<stop stop-color="#E04F8C"/>
<stop offset="1" stop-color="#E04F8C" stop-opacity="0"/>
</linearGradient>
<linearGradient id="paint1_linear_7_56" x1="720.397" y1="0.556152" x2="720.397" y2="253.502" gradientUnits="userSpaceOnUse">
<stop stop-color="#E04F8C"/>
<stop offset="1" stop-color="#E04F8C" stop-opacity="0"/>
</linearGradient>
</defs>
</svg>
