<svg width="485" height="485" viewBox="0 0 485 485" fill="none" xmlns="http://www.w3.org/2000/svg">
<g clip-path="url(#clip0_301_6)">
<path d="M242.5 121.25H452.477C431.199 84.3837 400.591 53.7693 363.728 32.4849C326.866 11.2005 285.05 -0.0034576 242.484 -0.000487691C199.918 0.00248221 158.103 11.2123 121.244 32.5018C84.3848 53.7913 53.7803 84.4101 32.5081 121.279L137.496 303.125L137.59 303.101C126.91 284.684 121.274 263.776 121.25 242.486C121.226 221.197 126.815 200.277 137.454 181.836C148.093 163.394 163.405 148.084 181.847 137.447C200.29 126.811 221.21 121.224 242.5 121.25Z" fill="black" fill-opacity="0.4"/>
<path d="M242.5 338.49C295.514 338.49 338.49 295.514 338.49 242.5C338.49 189.486 295.514 146.51 242.5 146.51C189.486 146.51 146.51 189.486 146.51 242.5C146.51 295.514 189.486 338.49 242.5 338.49Z" fill="black" fill-opacity="0.2"/>
<path d="M347.495 303.154L242.507 485C285.073 485.006 326.89 473.805 363.753 452.523C400.617 431.241 431.228 400.629 452.508 363.765C473.788 326.9 484.987 285.083 484.98 242.517C484.972 199.952 473.758 158.138 452.465 121.281H242.489L242.464 121.375C263.753 121.334 284.678 126.907 303.128 137.531C321.577 148.155 336.9 163.455 347.551 181.889C358.202 200.323 363.805 221.239 363.796 242.529C363.786 263.819 358.164 284.73 347.495 303.154Z" fill="black" fill-opacity="0.3"/>
<path d="M137.504 303.156L32.5153 121.311C11.2271 158.171 0.0186763 199.986 0.01709 242.552C0.0155037 285.117 11.2208 326.933 32.5063 363.795C53.7918 400.656 84.4071 431.264 121.274 452.541C158.141 473.817 199.96 485.012 242.525 485L347.514 303.154L347.446 303.086C336.836 321.543 321.548 336.878 303.122 347.544C284.697 358.209 263.785 363.829 242.495 363.836C221.205 363.843 200.29 358.238 181.857 347.585C163.424 336.931 148.126 321.607 137.504 303.156Z" fill="black" fill-opacity="0.15"/>
</g>
<defs>
<clipPath id="clip0_301_6">
<rect width="485" height="485" fill="white"/>
</clipPath>
</defs>
</svg>
