<svg width="513" height="526" viewBox="0 0 513 526" fill="none" xmlns="http://www.w3.org/2000/svg">
<path fill-rule="evenodd" clip-rule="evenodd" d="M0.761963 85C0.761963 38.0558 38.8178 0 85.762 0H427.762C474.706 0 512.762 38.0558 512.762 85V440.35C512.762 487.294 474.706 525.35 427.762 525.35H85.762C38.8178 525.35 0.761963 487.294 0.761963 440.35V85ZM223.317 158.095C223.317 140.529 202.79 130.973 189.349 142.283L73.5435 239.719C59.296 251.707 59.296 273.643 73.5435 285.63L189.349 383.067C202.79 394.376 223.317 384.821 223.317 367.255C223.317 361.156 220.623 355.369 215.957 351.443L137.737 285.63C123.49 273.643 123.49 251.707 137.737 239.719L215.957 173.907C220.623 169.98 223.317 164.193 223.317 158.095ZM324.175 142.283C310.734 130.973 290.206 140.529 290.206 158.095C290.206 164.193 292.9 169.98 297.567 173.907L375.786 239.719C390.034 251.707 390.034 273.643 375.786 285.63L297.567 351.443C292.9 355.369 290.206 361.156 290.206 367.255C290.206 384.821 310.734 394.376 324.175 383.067L439.98 285.63C454.227 273.643 454.227 251.707 439.98 239.719L324.175 142.283Z" fill="black" fill-opacity="0.4"/>
</svg>
