<svg width="594" height="318" viewBox="0 0 594 318" fill="none" xmlns="http://www.w3.org/2000/svg">
<g clip-path="url(#clip0_114_86)">
<path d="M30.1092 71.911C31.3462 65.2444 37.637 60.8199 44.3505 61.8011L72.1651 65.8663C79.1264 66.8835 83.9443 73.3483 82.9264 80.3051L56.5447 260.59C55.5455 267.418 49.1927 272.454 42.6034 270.392C41.9578 270.19 41.3367 269.976 40.7559 269.749C29.9063 265.513 24.7662 260.01 19.2625 249.444C8.95415 229.651 14.3518 196.442 16.9735 162.253C19.2243 132.9 26.4045 91.8794 30.1092 71.911Z" fill="#CBCBC9"/>
<path d="M554.629 44.6667C549.504 31.1004 537.296 21.4758 522.902 19.6531L425.391 7.30611C411.571 5.5563 398.961 15.3634 397.263 29.1804C395.57 42.9598 405.375 55.5017 419.163 57.1936L545.308 72.6723C550.436 73.3018 554.628 68.6391 553.454 63.6101L552.666 55.6652C552.529 54.275 553.165 52.9214 554.324 52.1397C555.785 51.154 556.377 49.2943 555.754 47.6462L554.629 44.6667Z" fill="#CBCBC9"/>
<path d="M563.719 71.911C562.482 65.2444 556.191 60.8199 549.477 61.8011L521.663 65.8663C514.702 66.8835 509.883 73.3483 510.902 80.3051L537.284 260.59C538.282 267.418 544.635 272.454 551.224 270.392C551.87 270.19 552.491 269.976 553.072 269.749C563.922 265.513 569.062 260.01 574.565 249.444C584.874 229.651 579.476 196.442 576.855 162.253C574.604 132.9 567.423 91.8794 563.719 71.911Z" fill="#CBCBC9"/>
<path d="M39.1959 44.6667C44.3204 31.1004 56.5282 21.4758 70.9231 19.6531L168.434 7.30611C182.253 5.5563 194.864 15.3634 196.561 29.1804C198.254 42.9598 188.449 55.5017 174.661 57.1936L48.5171 72.6723C43.3882 73.3018 39.197 68.6391 40.3708 63.6101L41.1579 55.6652C41.2956 54.275 40.6594 52.9214 39.5008 52.1397C38.0399 51.154 37.4479 49.2943 38.0704 47.6462L39.1959 44.6667Z" fill="#CBCBC9"/>
<path d="M40.9997 54.4169C43.5939 46.9522 48.6468 40.7797 56.3306 38.9153C69.1007 35.8169 89.8888 32.9817 107.26 26.4011C131.948 17.0489 149.283 0.661191 173.662 0.620913C271.236 0.45971 322.589 0.459681 420.162 0.620913C444.541 0.661198 461.876 17.0489 486.564 26.4011C503.272 32.7305 522.854 35.595 535.718 38.5613C544.546 40.5969 550.498 47.5199 553.367 56.1079C562.269 82.7583 568.167 119.152 572.074 158.484C575.7 194.972 581.367 231.789 568.889 252.057C550.798 274.571 529.469 267.97 504.08 277.837C477.611 288.123 463.855 296.392 436.086 303.617C383.484 314.893 367.414 315.711 296.912 316.984C226.411 315.711 210.341 314.893 157.739 303.617C129.97 296.392 116.214 288.123 89.7442 277.837C64.3554 267.97 43.0261 274.571 24.9348 252.057C12.457 231.789 18.1247 194.972 21.75 158.484C25.7521 118.205 31.5595 81.5813 40.9997 54.4169Z" fill="#6B5EA0"/>
<path d="M40.9997 54.4169C43.5939 46.9522 48.6468 40.7797 56.3306 38.9153C69.1007 35.8169 89.8888 32.9817 107.26 26.4011C131.948 17.0489 149.283 0.661191 173.662 0.620913C271.236 0.45971 322.589 0.459681 420.162 0.620913C444.541 0.661198 461.876 17.0489 486.564 26.4011C503.272 32.7305 522.854 35.595 535.718 38.5613C544.546 40.5969 550.498 47.5199 553.367 56.1079C562.269 82.7583 568.167 119.152 572.074 158.484C575.7 194.972 581.367 231.789 568.889 252.057C550.798 274.571 529.469 267.97 504.08 277.837C477.611 288.123 463.855 296.392 436.086 303.617C383.484 314.893 367.414 315.711 296.912 316.984C226.411 315.711 210.341 314.893 157.739 303.617C129.97 296.392 116.214 288.123 89.7442 277.837C64.3554 267.97 43.0261 274.571 24.9348 252.057C12.457 231.789 18.1247 194.972 21.75 158.484C25.7521 118.205 31.5595 81.5813 40.9997 54.4169Z" fill="#6B5EA0"/>
<path d="M55.3648 266.272C45.1387 263.996 36.1538 260.343 27.8055 250.037C22.2162 240.818 20.5002 227.497 20.8063 211.42C21.0458 198.842 22.4973 185.062 23.9917 170.873C24.4118 166.886 24.8352 162.865 25.2361 158.83C29.233 118.603 35.0108 82.321 44.3091 55.5654C46.6604 48.7995 51.0089 43.8092 57.1572 42.3174C60.8921 41.4112 65.237 40.5453 70.0491 39.5863C73.4211 38.9143 77.0224 38.1966 80.8034 37.3874C89.8213 35.4574 99.566 33.0598 108.502 29.6747C117.439 26.2892 125.564 21.9376 133.156 17.8715C136.236 16.2213 139.229 14.6181 142.154 13.1455C152.461 7.95514 162.3 4.14067 173.668 4.12188C271.238 3.96069 322.587 3.96066 420.156 4.12188C431.525 4.14067 441.364 7.95514 451.671 13.1455C454.595 14.618 457.588 16.2213 460.669 17.8715C468.26 21.9376 476.385 26.2891 485.322 29.6747C497.914 34.4444 512.238 37.3204 523.878 39.6574C527.955 40.4759 531.702 41.2282 534.931 41.9727C542.245 43.6594 547.443 49.4298 550.044 57.2164C558.819 83.4878 564.688 119.567 568.588 158.83C568.99 162.865 569.413 166.886 569.833 170.873C571.327 185.062 572.779 198.842 573.018 211.42C573.325 227.497 571.608 240.818 566.019 250.037C557.671 260.343 548.686 263.996 538.46 266.272C535.218 266.994 532.004 267.55 528.616 268.135C526.408 268.517 524.125 268.912 521.714 269.373C515.76 270.513 509.436 271.998 502.811 274.573C493.865 278.05 486.442 281.256 479.511 284.25C465.576 290.269 453.627 295.43 435.277 300.209C383.065 311.4 367.224 312.213 296.912 313.482C226.6 312.213 210.76 311.4 158.548 300.209C140.198 295.43 128.248 290.269 114.314 284.25C107.382 281.256 99.9596 278.05 91.0143 274.573C84.3881 271.998 78.0638 270.513 72.1103 269.373C69.6988 268.912 67.4166 268.517 65.2083 268.135C61.8207 267.55 58.6062 266.994 55.3648 266.272Z" stroke="black" stroke-opacity="0.06" stroke-width="11"/>
<path d="M129.297 227.318L90.8604 217.025C85.0362 215.466 79.0497 218.92 77.4891 224.74L77.4891 224.74C75.9286 230.561 79.3849 236.543 85.209 238.103L123.646 248.396C129.47 249.955 135.457 246.501 137.017 240.681L137.017 240.681C138.578 234.86 135.121 228.877 129.297 227.318Z" fill="#5E528F"/>
<path d="M89.6353 223.709L89.3411 224.805C89.0646 224.469 88.7888 224.264 88.5149 224.191C88.2194 224.111 87.95 224.151 87.7066 224.31C87.4659 224.458 87.3009 224.697 87.2124 225.029C87.134 225.321 87.1334 225.589 87.2111 225.834C87.2493 225.964 87.3226 226.138 87.4302 226.356C87.5417 226.575 87.6882 226.842 87.8703 227.157C88.2035 227.744 88.4079 228.229 88.4825 228.613C88.5608 228.985 88.536 229.409 88.4086 229.884C88.2353 230.529 87.9111 231.012 87.4347 231.333C86.9614 231.642 86.4404 231.72 85.8703 231.568C85.3913 231.44 85.0174 231.198 84.7487 230.845L85.0474 229.732C85.3691 230.131 85.6939 230.374 86.0219 230.462C86.3289 230.544 86.5952 230.507 86.8226 230.352C87.0506 230.193 87.2117 229.939 87.3054 229.589C87.3863 229.286 87.3926 228.997 87.3238 228.72C87.2863 228.586 87.2264 228.429 87.143 228.248C87.0614 228.064 86.9531 227.856 86.8181 227.623C86.6086 227.265 86.4391 226.953 86.3098 226.687C86.1805 226.421 86.092 226.194 86.0455 226.008C85.9576 225.645 85.978 225.222 86.1079 224.739C86.2824 224.087 86.5907 223.615 87.0321 223.324C87.4774 223.03 87.9888 222.961 88.5659 223.115C88.9659 223.222 89.3226 223.42 89.6353 223.709ZM91.0283 223.896L94.0182 224.697L93.7634 225.648L91.8978 225.149L91.1895 227.791L92.8443 228.234L92.5889 229.185L90.9341 228.742L90.171 231.59L92.0366 232.089L91.7812 233.04L88.7907 232.24L91.0283 223.896ZM95.0513 224.974L96.1762 225.275L94.194 232.667L96.0322 233.16L95.7774 234.111L92.8144 233.317L95.0513 224.974ZM98.7176 225.955L101.708 226.756L101.453 227.707L99.587 227.208L98.8787 229.85L100.534 230.293L100.278 231.244L98.624 230.801L97.8603 233.649L99.7259 234.149L99.4705 235.1L96.4806 234.299L98.7176 225.955ZM105.981 228.045L105.711 229.056C105.46 228.838 105.237 228.703 105.043 228.651C104.776 228.58 104.528 228.585 104.302 228.667C104.076 228.746 103.864 228.905 103.664 229.145C103.468 229.385 103.283 229.709 103.108 230.114C102.939 230.517 102.777 231.004 102.623 231.577C102.071 233.638 102.323 234.809 103.379 235.092C103.563 235.142 103.8 235.143 104.09 235.097L103.814 236.13C103.503 236.209 103.179 236.203 102.844 236.113C101.154 235.661 100.678 234.055 101.418 231.294C101.818 229.803 102.321 228.748 102.927 228.131C103.537 227.514 104.267 227.32 105.118 227.548C105.432 227.632 105.72 227.797 105.981 228.045ZM106.304 227.987L109.965 228.967L109.701 229.951L108.441 229.613L106.468 236.974L105.365 236.678L107.338 229.318L106.041 228.97L106.304 227.987Z" fill="#7D71AE"/>
<path d="M123.774 246.632C128.671 247.944 133.705 245.039 135.017 240.145C136.329 235.251 133.423 230.221 128.526 228.909C123.628 227.598 118.595 230.502 117.282 235.396C115.97 240.29 118.877 245.321 123.774 246.632Z" fill="#58507E"/>
<path d="M124.099 245.418C128.326 246.55 132.67 244.043 133.802 239.82C134.934 235.596 132.426 231.255 128.2 230.123C123.974 228.992 119.63 231.498 118.498 235.722C117.365 239.945 119.873 244.286 124.099 245.418Z" fill="#B8B8B6"/>
<path d="M129.297 196.128L90.8604 185.836C85.0362 184.276 79.0497 187.73 77.4891 193.551L77.4891 193.551C75.9286 199.371 79.3849 205.354 85.209 206.913L123.646 217.206C129.47 218.766 135.457 215.312 137.017 209.491L137.017 209.491C138.578 203.671 135.121 197.688 129.297 196.128Z" fill="#5E528F"/>
<path d="M89.6353 192.518L89.3411 193.615C89.0646 193.278 88.7888 193.073 88.5149 193C88.2194 192.92 87.95 192.96 87.7066 193.119C87.4659 193.267 87.3009 193.507 87.2124 193.838C87.134 194.13 87.1334 194.398 87.2111 194.643C87.2493 194.773 87.3226 194.947 87.4302 195.165C87.5417 195.384 87.6882 195.651 87.8703 195.966C88.2035 196.554 88.4079 197.039 88.4825 197.422C88.5608 197.794 88.536 198.218 88.4086 198.694C88.2353 199.339 87.9111 199.821 87.4347 200.142C86.9614 200.451 86.4398 200.53 85.8703 200.377C85.3907 200.249 85.0168 200.008 84.7487 199.654L85.0474 198.541C85.3691 198.94 85.6939 199.183 86.0219 199.271C86.3283 199.353 86.5952 199.316 86.8226 199.161C87.0506 199.002 87.2117 198.748 87.3054 198.398C87.3863 198.095 87.3926 197.806 87.3238 197.529C87.2863 197.395 87.2258 197.238 87.143 197.057C87.0608 196.873 86.9525 196.665 86.8181 196.432C86.6086 196.074 86.4391 195.763 86.3098 195.496C86.1805 195.23 86.092 195.004 86.0455 194.817C85.9576 194.454 85.978 194.031 86.1079 193.549C86.2824 192.896 86.5907 192.424 87.0315 192.134C87.4773 191.839 87.9888 191.77 88.5659 191.925C88.9659 192.032 89.3226 192.23 89.6353 192.518ZM90.5035 192.565L94.1647 193.545L93.901 194.529L92.6405 194.192L90.6672 201.552L89.564 201.257L91.5379 193.896L90.2398 193.549L90.5035 192.565ZM95.8188 193.988L96.6953 194.223L96.2475 203.046L95.1341 202.748L95.2564 201.037L93.6016 200.594L92.8468 202.135L91.7653 201.846L95.8188 193.988ZM95.3271 200.124L95.4354 198.728C95.5118 197.779 95.6354 196.777 95.8061 195.722C95.6214 196.21 95.4201 196.7 95.2029 197.194C94.9864 197.685 94.7469 198.204 94.4844 198.751L93.9921 199.766L95.3271 200.124ZM99.1501 194.88L100.632 195.277C101.244 195.441 101.662 195.709 101.883 196.081C102.16 196.561 102.193 197.19 101.985 197.968C101.825 198.566 101.595 199.02 101.295 199.33C101 199.637 100.656 199.784 100.262 199.771L100.709 204.241L99.5679 203.935L99.1329 199.44L98.038 203.525L96.9131 203.224L99.1501 194.88ZM99.2838 198.878C99.7202 198.995 100.055 198.976 100.29 198.823C100.524 198.67 100.706 198.353 100.834 197.874C100.904 197.615 100.943 197.388 100.953 197.193C100.966 197 100.946 196.834 100.894 196.697C100.846 196.561 100.764 196.448 100.649 196.359C100.537 196.271 100.393 196.204 100.216 196.157L100.027 196.106L99.2838 198.878ZM103.265 195.982L106.926 196.962L106.662 197.946L105.402 197.609L103.429 204.969L102.326 204.674L104.299 197.313L103.002 196.966L103.265 195.982Z" fill="#7D71AE"/>
<path d="M123.774 215.443C128.671 216.754 133.705 213.85 135.017 208.956C136.329 204.062 133.423 199.031 128.526 197.72C123.628 196.408 118.595 199.313 117.282 204.207C115.97 209.101 118.877 214.131 123.774 215.443Z" fill="#58507E"/>
<path d="M124.099 214.228C128.326 215.36 132.67 212.853 133.802 208.63C134.934 204.406 132.426 200.065 128.2 198.933C123.974 197.801 119.63 200.308 118.498 204.531C117.365 208.755 119.873 213.096 124.099 214.228Z" fill="#B8B8B6"/>
<path d="M124.388 213.152C128.019 214.124 131.752 211.971 132.725 208.342C133.698 204.713 131.543 200.983 127.912 200.01C124.28 199.038 120.548 201.192 119.575 204.821C118.602 208.45 120.757 212.18 124.388 213.152Z" fill="#D9D9D9"/>
<path d="M124.388 244.341C128.019 245.314 131.752 243.16 132.725 239.531C133.698 235.902 131.543 232.172 127.912 231.2C124.28 230.228 120.548 232.381 119.575 236.01C118.602 239.639 120.757 243.369 124.388 244.341Z" fill="#D9D9D9"/>
<path d="M158.354 55.1024C159.553 48.1335 164.576 42.3904 171.455 40.7365C206.425 32.3297 254.059 31.0542 296.363 31.0542C338.667 31.0542 386.302 32.3297 421.271 40.7365C428.151 42.3904 433.173 48.1335 434.372 55.1024C440.235 89.16 442.871 116.686 444.454 156.772C445.862 192.43 448.919 229.72 443.817 248.116C431.473 277.519 350.324 282.49 296.363 282.49C242.401 282.49 161.253 277.519 148.909 248.116C143.807 229.72 146.865 192.43 148.272 156.772C149.855 116.686 152.491 89.16 158.354 55.1024Z" fill="#2C302E"/>
<path d="M410.377 65.9612H182.349C180.59 65.9612 179.164 67.3861 179.164 69.1439V214.835C179.164 216.592 180.59 218.017 182.349 218.017H410.377C412.136 218.017 413.562 216.592 413.562 214.835V69.1439C413.562 67.3861 412.136 65.9612 410.377 65.9612Z" fill="#3C423F"/>
<path fill-rule="evenodd" clip-rule="evenodd" d="M81.5932 91.9386C79.8339 91.9386 78.4084 93.3638 78.4084 95.1213V116.764H56.752C54.9931 116.764 53.5673 118.189 53.5673 119.947V140.316C53.5673 142.074 54.9931 143.499 56.752 143.499H78.4084V165.141C78.4084 166.9 79.8339 168.324 81.5932 168.324H101.976C103.734 168.324 105.16 166.9 105.16 165.141V143.499H126.817C128.575 143.499 130.001 142.074 130.001 140.316V119.947C130.001 118.189 128.575 116.764 126.817 116.764H105.16V95.1213C105.16 93.3638 103.734 91.9386 101.976 91.9386H81.5932Z" fill="#5E528F"/>
<path fill-rule="evenodd" clip-rule="evenodd" d="M83.5041 95.1213C82.4487 95.1213 81.5932 95.9769 81.5932 97.031V119.947H58.6629C57.6076 119.947 56.7521 120.802 56.7521 121.856V138.406C56.7521 139.461 57.6076 140.316 58.6629 140.316H81.5932V163.232C81.5932 164.287 82.4487 165.141 83.5041 165.141H100.065C101.12 165.141 101.976 164.287 101.976 163.232V140.316H124.906C125.961 140.316 126.817 139.461 126.817 138.406V121.856C126.817 120.802 125.961 119.947 124.906 119.947H101.976V97.031C101.976 95.9769 101.12 95.1213 100.065 95.1213H83.5041Z" fill="#CBCBC9"/>
<path d="M91.7844 138.111C96.1943 138.111 99.7692 134.538 99.7692 130.131C99.7692 125.724 96.1943 122.152 91.7844 122.152C87.3746 122.152 83.7997 125.724 83.7997 130.131C83.7997 134.538 87.3746 138.111 91.7844 138.111Z" fill="#B8B8B6"/>
<path d="M90.8526 99.7375C91.2207 99.101 92.1399 99.101 92.5074 99.7375L97.8578 108.999C98.2259 109.635 97.766 110.431 97.0304 110.431H86.3296C85.5946 110.431 85.1347 109.635 85.5022 108.999L90.8526 99.7375Z" fill="#B8B8B6"/>
<path d="M61.367 130.958C60.73 130.591 60.73 129.672 61.367 129.305L70.6339 123.958C71.2709 123.59 72.067 124.05 72.067 124.785V135.478C72.067 136.214 71.2709 136.673 70.6339 136.305L61.367 130.958Z" fill="#B8B8B6"/>
<path d="M122.196 129.409C122.833 129.776 122.833 130.695 122.196 131.063L112.929 136.41C112.292 136.777 111.495 136.318 111.495 135.583V124.889C111.495 124.154 112.292 123.695 112.929 124.062L122.196 129.409Z" fill="#B8B8B6"/>
<path d="M92.7156 160.528C92.3481 161.164 91.429 161.164 91.0608 160.528L85.7105 151.267C85.3429 150.63 85.8028 149.834 86.5379 149.834H97.2386C97.9743 149.834 98.4342 150.63 98.066 151.267L92.7156 160.528Z" fill="#B8B8B6"/>
<path d="M475.885 159.762C486.719 159.762 495.502 150.984 495.502 140.157C495.502 129.33 486.719 120.552 475.885 120.552C465.05 120.552 456.267 129.33 456.267 140.157C456.267 150.984 465.05 159.762 475.885 159.762Z" fill="#5E528F"/>
<path d="M475.885 156.58C484.961 156.58 492.318 149.227 492.318 140.157C492.318 131.087 484.961 123.734 475.885 123.734C466.809 123.734 459.451 131.087 459.451 140.157C459.451 149.227 466.809 156.58 475.885 156.58Z" fill="#D9D9D9"/>
<path d="M470.122 131.763H473.192C475.594 131.763 476.794 133.254 476.794 136.234C476.794 137.373 476.638 138.217 476.327 138.769C476.015 139.32 475.463 139.737 474.672 140.02C475.579 140.382 476.199 140.846 476.533 141.412C476.875 141.97 477.045 142.812 477.045 143.936C477.045 147.018 475.724 148.559 473.083 148.559H470.122V131.763ZM472.255 139.161C473.134 139.161 473.743 138.958 474.084 138.551C474.425 138.123 474.596 137.373 474.596 136.299C474.596 134.487 473.943 133.58 472.636 133.58H472.462H472.364C472.306 133.58 472.27 133.583 472.255 133.591V139.161ZM472.255 146.623C473.184 146.623 473.827 146.424 474.182 146.025C474.538 145.626 474.715 144.904 474.715 143.86C474.715 142.787 474.531 142.036 474.16 141.608C473.797 141.173 473.162 140.955 472.255 140.955V146.623Z" fill="#B8B8B6"/>
<path d="M527.093 142.327C537.927 142.327 546.71 133.549 546.71 122.722C546.71 111.894 537.927 103.117 527.093 103.117C516.259 103.117 507.476 111.894 507.476 122.722C507.476 133.549 516.259 142.327 527.093 142.327Z" fill="#5E528F"/>
<path d="M527.093 139.145C536.169 139.145 543.526 131.792 543.526 122.722C543.526 113.652 536.169 106.299 527.093 106.299C518.017 106.299 510.66 113.652 510.66 122.722C510.66 131.792 518.017 139.145 527.093 139.145Z" fill="#D9D9D9"/>
<path d="M523.769 114.328H525.532L529.135 131.124H526.893L526.262 127.85H522.93L522.288 131.124H520.111L523.769 114.328ZM525.935 126.099L525.434 123.423C525.101 121.602 524.828 119.659 524.618 117.591C524.516 118.6 524.385 119.623 524.226 120.66C524.066 121.69 523.878 122.784 523.66 123.945L523.246 126.099H525.935Z" fill="#B8B8B6"/>
<path d="M516.869 183.689L458.421 199.34C457.231 199.658 456.526 200.88 456.844 202.069C457.163 203.257 458.385 203.962 459.575 203.644L518.023 187.993C519.212 187.674 519.918 186.452 519.599 185.264C519.281 184.075 518.058 183.37 516.869 183.689Z" fill="#5E528F"/>
<path d="M516.869 195.633L458.421 211.285C457.231 211.603 456.526 212.825 456.844 214.013C457.163 215.202 458.385 215.907 459.575 215.589L518.023 199.937C519.212 199.619 519.918 198.397 519.599 197.209C519.281 196.02 518.058 195.315 516.869 195.633Z" fill="#5E528F"/>
<path d="M516.869 207.348L458.421 223C457.231 223.318 456.526 224.54 456.844 225.728C457.163 226.917 458.385 227.622 459.575 227.304L518.023 211.652C519.212 211.334 519.918 210.112 519.599 208.924C519.281 207.735 518.058 207.03 516.869 207.348Z" fill="#5E528F"/>
<path d="M516.869 217.902L458.421 233.554C457.231 233.872 456.526 235.094 456.844 236.282C457.163 237.471 458.385 238.176 459.575 237.858L518.023 222.206C519.212 221.888 519.918 220.666 519.599 219.478C519.281 218.289 518.058 217.584 516.869 217.902Z" fill="#5E528F"/>
<path d="M516.869 228.457L458.421 244.108C457.231 244.427 456.526 245.648 456.844 246.837C457.163 248.025 458.385 248.731 459.575 248.412L518.023 232.761C519.212 232.442 519.918 231.221 519.599 230.032C519.281 228.844 518.058 228.138 516.869 228.457Z" fill="#5E528F"/>
<path d="M475.101 63.706C480.61 63.706 485.076 59.2427 485.076 53.737C485.076 48.2312 480.61 43.7679 475.101 43.7679C469.591 43.7679 465.125 48.2312 465.125 53.737C465.125 59.2427 469.591 63.706 475.101 63.706Z" fill="#7D71AE"/>
<path d="M475.101 61.164C479.205 61.164 482.532 57.8388 482.532 53.737C482.532 49.6351 479.205 46.3099 475.101 46.3099C470.996 46.3099 467.669 49.6351 467.669 53.737C467.669 57.8388 470.996 61.164 475.101 61.164Z" fill="#53544B"/>
<path d="M492.472 49.3791H494.007C494.745 49.3791 495.282 49.5656 495.619 49.9386C495.954 50.3153 496.123 50.912 496.123 51.7289C496.123 52.8776 495.785 53.6199 495.109 53.9555C494.77 54.1085 494.279 54.1849 493.637 54.1849V58.0172H492.472V49.3791ZM493.637 53.189C494.118 53.189 494.451 53.0921 494.633 52.8981C494.82 52.7005 494.913 52.3499 494.913 51.8464C494.913 51.3317 494.824 50.955 494.645 50.7162C494.465 50.4775 494.184 50.3582 493.799 50.3582H493.637V53.189ZM501.345 53.9108C501.345 55.4362 501.175 56.5198 500.836 57.1613C500.496 57.8028 499.927 58.1235 499.129 58.1235C498.289 58.1235 497.698 57.7785 497.354 57.0885C497.014 56.4135 496.845 55.2143 496.845 53.4911C496.845 51.9545 497.012 50.8673 497.349 50.2295C497.688 49.588 498.263 49.2672 499.073 49.2672C499.796 49.2672 500.334 49.5153 500.685 50.0113C500.916 50.3432 501.084 50.815 501.189 51.4268C501.293 51.9937 501.345 52.8217 501.345 53.9108ZM500.125 54.0339C500.125 52.5382 500.058 51.5461 499.924 51.0575C499.789 50.5652 499.515 50.319 499.101 50.319C498.686 50.319 498.41 50.5446 498.272 50.9959C498.138 51.451 498.07 52.3648 498.07 53.7374C498.07 55.0017 498.142 55.8782 498.283 56.3668C498.429 56.8293 498.702 57.0606 499.101 57.0606C499.493 57.0606 499.761 56.8442 499.907 56.4116C500.053 55.9826 500.125 55.1901 500.125 54.0339ZM501.855 49.3791H502.98L503.568 53.3904L503.663 53.9835C503.708 54.3043 503.742 54.5971 503.764 54.8619L503.826 55.5947C503.829 55.6134 503.833 55.647 503.837 55.6954C503.84 55.7439 503.846 55.8055 503.854 55.8801L503.881 55.6003C503.926 55.1117 503.973 54.6623 504.021 54.2521C504.074 53.8418 504.13 53.4632 504.189 53.1163L504.811 49.3791H505.707L506.289 53.01C506.375 53.5471 506.446 54.0451 506.502 54.5038C506.561 54.9626 506.61 55.4008 506.647 55.8185C506.684 55.3784 506.725 54.9532 506.77 54.543C506.819 54.1327 506.869 53.7298 506.921 53.3346L507.005 52.7583L507.504 49.3791H508.618L507.09 58.0172H506.183L505.572 54.2856C505.568 54.2707 505.559 54.2092 505.544 54.101C505.529 53.9928 505.507 53.8381 505.477 53.6367L505.36 52.775C505.352 52.7079 505.339 52.6072 505.32 52.4729C505.305 52.3387 505.288 52.169 505.27 51.9638L505.242 51.6058C505.235 51.6916 505.227 51.7662 505.219 51.8296C505.212 51.893 505.207 51.9452 505.203 51.9862C505.184 52.2324 505.167 52.4245 505.153 52.5625C505.141 52.6967 505.133 52.7788 505.13 52.8086L505.012 53.6367C504.986 53.8269 504.966 53.9761 504.951 54.0842C504.936 54.1924 504.925 54.2595 504.917 54.2856L504.284 58.0172H503.35L501.855 49.3791ZM509.3 49.3791H512.397V50.3638H510.465V53.0995H512.178V54.0842H510.465V57.0326H512.397V58.0172H509.3V49.3791ZM513.465 49.3791H515C515.634 49.3791 516.106 49.5302 516.416 49.8323C516.807 50.2239 517.004 50.8225 517.004 51.6282C517.004 52.2473 516.899 52.7452 516.69 53.1219C516.485 53.4949 516.19 53.7262 515.806 53.8157L517.395 58.0172H516.214L514.63 53.7877V58.0172H513.465V49.3791ZM514.63 53.2058C515.081 53.2058 515.4 53.1014 515.587 52.8925C515.774 52.6837 515.867 52.3312 515.867 51.8352C515.867 51.5666 515.847 51.3373 515.806 51.147C515.769 50.9568 515.707 50.802 515.621 50.6826C515.539 50.5633 515.43 50.4756 515.296 50.4197C515.165 50.3638 515.009 50.3358 514.826 50.3358H514.63V53.2058Z" fill="#7D71AE"/>
<path d="M226.911 241.205C226.155 240.869 225.37 240.673 224.487 240.673C223.002 240.673 221.404 241.317 220.199 242.382C219.022 243.418 218.265 244.804 218.027 246.247C217.789 247.815 218.097 249.188 219.092 250.238C220.031 251.232 221.348 251.792 222.82 251.792C223.674 251.792 224.361 251.582 225.314 251.302L225.846 248.011C225.16 248.698 224.193 249.132 223.296 249.132C221.586 249.132 220.62 247.927 220.886 246.261C221.152 244.622 222.483 243.334 224.165 243.334C225.104 243.334 225.958 243.74 226.393 244.496L226.911 241.205ZM234.018 240.603C230.977 240.603 227.824 242.844 227.32 246.037C226.773 249.454 228.847 251.863 232.238 251.863C235.629 251.863 238.46 249.454 239.006 246.037C239.511 242.844 237.059 240.603 234.018 240.603ZM233.597 243.264C235.237 243.264 236.372 244.594 236.148 246.051C235.853 247.871 234.298 249.202 232.659 249.202C231.019 249.202 229.884 247.871 230.178 246.051C230.402 244.594 231.958 243.264 233.597 243.264ZM239.409 251.512H243.305C246.233 251.512 249.036 249.202 249.512 246.233C249.975 243.264 247.915 240.953 244.972 240.953H241.076L239.409 251.512ZM243.459 243.278H244.103C245.869 243.278 246.948 244.342 246.654 246.233C246.317 248.291 244.776 249.188 243.136 249.188H242.52L243.459 243.278ZM257.261 243.278L257.625 240.953H251.614L249.946 251.512H255.958L256.322 249.188H253.057L253.351 247.367H256.448L256.812 245.043H253.715L253.996 243.278H257.261ZM266.489 240.953L265.396 247.913C265.298 248.502 265.172 249.468 264.36 249.468C263.995 249.468 263.631 248.992 263.393 248.572L261.543 250.238C262.019 251.204 262.846 251.792 264.023 251.792C266.363 251.792 267.765 250.308 268.115 248.081L269.236 240.953H266.489ZM276.344 240.603C273.304 240.603 270.151 242.844 269.646 246.037C269.1 249.454 271.174 251.863 274.565 251.863C277.956 251.863 280.786 249.454 281.333 246.037C281.837 242.844 279.385 240.603 276.344 240.603ZM275.924 243.264C277.563 243.264 278.699 244.594 278.474 246.051C278.18 247.871 276.625 249.202 274.985 249.202C273.346 249.202 272.211 247.871 272.505 246.051C272.729 244.594 274.284 243.264 275.924 243.264ZM285.266 246.443L284.467 251.512H287.214L288.013 246.443L292.777 240.953H289.484L287.06 243.824L285.532 240.953H282.239L285.266 246.443Z" fill="#D9D9D9"/>
<path d="M303.892 250.267L300.768 244.719L298.561 248.653H300.768V250.267H295.131L295.819 249.14L299.717 242.628H301.809L306.156 250.267H303.892ZM314.438 250.267H307.942V242.628H314.438C315.846 242.628 316.83 243.262 317.391 244.528C317.626 245.05 317.767 245.68 317.811 246.419C317.767 247.17 317.626 247.81 317.391 248.338C316.83 249.624 315.846 250.267 314.438 250.267ZM315.996 246.438C315.964 246.005 315.881 245.633 315.747 245.321C315.416 244.576 314.837 244.204 314.009 244.204H309.833V248.701H313.999C314.827 248.701 315.41 248.325 315.747 247.574C315.881 247.256 315.964 246.877 315.996 246.438ZM324.307 250.267H325.807L330.613 242.628H328.386L325.062 247.641L322.004 242.628H319.921L324.307 250.267ZM341.12 250.267L337.996 244.719L335.789 248.653H337.996V250.267H332.359L333.047 249.14L336.945 242.628H339.037L343.385 250.267H341.12ZM353.071 250.267H355.01V242.628H353.071V247.536L347.071 242.628H345.169V250.267H347.071L347.08 245.216L353.071 250.267ZM364.266 244.261H359.069V248.672H364.286V247.059H366.158L366.168 249.15C366.225 249.614 365.993 249.939 365.47 250.124C365.247 250.206 364.98 250.254 364.668 250.267C363.852 250.273 361.735 250.273 358.314 250.267C357.626 250.267 357.257 249.898 357.206 249.159C357.219 248.23 357.219 246.355 357.206 243.535C357.206 242.975 357.69 242.673 358.658 242.628H364.677C365.588 242.628 366.079 242.931 366.149 243.535V245.645H364.266V244.261ZM376.215 250.267V248.586H370.1V247.221H373.693V245.559H370.091V244.194H376.234V242.628H368.113V250.267H376.215Z" fill="#D9D9D9"/>
<path fill-rule="evenodd" clip-rule="evenodd" d="M267.92 11.0344C263.523 11.0344 259.958 14.5969 259.958 18.9913C259.958 23.3857 263.523 26.9481 267.92 26.9481H325.246C329.643 26.9481 333.207 23.3857 333.207 18.9913C333.207 14.5969 329.643 11.0344 325.246 11.0344H267.92ZM268.019 13.2623C264.853 13.2623 262.286 15.8273 262.286 18.9913C262.286 22.1553 264.853 24.7202 268.019 24.7202H325.344C328.511 24.7202 331.077 22.1553 331.077 18.9913C331.077 15.8273 328.511 13.2623 325.344 13.2623H268.019Z" fill="#5E528F"/>
<path d="M280.385 16.3003V21.8556H279.21V16.3003H280.385ZM282.487 19.4469V21.8556H281.33V17.6892H282.432V18.4243H282.481C282.574 18.1819 282.728 17.9903 282.946 17.8492C283.163 17.7064 283.426 17.6349 283.735 17.6349C284.025 17.6349 284.278 17.6982 284.493 17.8248C284.708 17.9514 284.876 18.1322 284.995 18.3673C285.114 18.6006 285.174 18.8791 285.174 19.2028V21.8556H284.018V19.4089C284.02 19.1539 283.955 18.955 283.822 18.8122C283.69 18.6675 283.508 18.5952 283.277 18.5952C283.121 18.5952 282.983 18.6286 282.864 18.6955C282.746 18.7624 282.654 18.8601 282.587 18.9885C282.522 19.115 282.488 19.2679 282.487 19.4469ZM291.011 18.2452H289.823C289.801 18.0915 289.757 17.955 289.69 17.8357C289.623 17.7145 289.537 17.6114 289.432 17.5264C289.327 17.4414 289.206 17.3763 289.068 17.3311C288.932 17.2859 288.785 17.2633 288.626 17.2633C288.338 17.2633 288.088 17.3347 287.874 17.4776C287.66 17.6187 287.495 17.8248 287.377 18.0961C287.26 18.3655 287.201 18.6928 287.201 19.078C287.201 19.474 287.26 19.8068 287.377 20.0762C287.497 20.3457 287.663 20.5491 287.877 20.6866C288.09 20.824 288.337 20.8927 288.618 20.8927C288.775 20.8927 288.921 20.8719 289.055 20.8303C289.19 20.7887 289.311 20.7281 289.416 20.6486C289.521 20.5672 289.608 20.4686 289.676 20.3529C289.747 20.2372 289.795 20.1051 289.823 19.9569L291.011 19.9623C290.981 20.2173 290.904 20.4632 290.781 20.7001C290.66 20.9352 290.496 21.1459 290.29 21.3321C290.085 21.5165 289.841 21.6631 289.557 21.7715C289.274 21.8782 288.955 21.9316 288.599 21.9316C288.103 21.9316 287.66 21.8195 287.269 21.5952C286.879 21.371 286.572 21.0464 286.346 20.6214C286.122 20.1965 286.009 19.682 286.009 19.078C286.009 18.4722 286.123 17.9568 286.351 17.5318C286.579 17.1069 286.888 16.7832 287.279 16.5607C287.671 16.3365 288.11 16.2244 288.599 16.2244C288.921 16.2244 289.22 16.2696 289.494 16.36C289.771 16.4504 290.016 16.5824 290.23 16.7561C290.443 16.9278 290.617 17.1385 290.751 17.3881C290.887 17.6376 290.974 17.9234 291.011 18.2452ZM293.716 21.937C293.295 21.937 292.93 21.8475 292.623 21.6685C292.316 21.4876 292.081 21.2363 291.914 20.9144C291.748 20.5907 291.664 20.2154 291.664 19.7887C291.664 19.3583 291.748 18.9821 291.914 18.6602C292.081 18.3366 292.316 18.0852 292.623 17.9062C292.93 17.7253 293.295 17.6349 293.716 17.6349C294.138 17.6349 294.502 17.7253 294.808 17.9062C295.115 18.0852 295.352 18.3366 295.518 18.6602C295.685 18.9821 295.768 19.3583 295.768 19.7887C295.768 20.2154 295.685 20.5907 295.518 20.9144C295.352 21.2363 295.115 21.4876 294.808 21.6685C294.502 21.8475 294.138 21.937 293.716 21.937ZM293.722 21.0419C293.914 21.0419 294.074 20.9876 294.202 20.8791C294.331 20.7688 294.427 20.6187 294.493 20.4288C294.56 20.2389 294.593 20.0229 294.593 19.7806C294.593 19.5382 294.56 19.3221 294.493 19.1322C294.427 18.9424 294.331 18.7923 294.202 18.6819C294.074 18.5716 293.914 18.5165 293.722 18.5165C293.528 18.5165 293.366 18.5716 293.233 18.6819C293.103 18.7923 293.004 18.9424 292.937 19.1322C292.873 19.3221 292.839 19.5382 292.839 19.7806C292.839 20.0229 292.873 20.2389 292.937 20.4288C293.004 20.6187 293.103 20.7688 293.233 20.8791C293.366 20.9876 293.528 21.0419 293.722 21.0419ZM298.057 21.9235C297.74 21.9235 297.453 21.8421 297.196 21.6793C296.941 21.5148 296.738 21.2733 296.588 20.955C296.439 20.635 296.366 20.2426 296.366 19.7778C296.366 19.3004 296.443 18.9035 296.596 18.587C296.75 18.2688 296.955 18.0309 297.21 17.8736C297.467 17.7145 297.748 17.6349 298.054 17.6349C298.287 17.6349 298.482 17.6747 298.638 17.7542C298.795 17.832 298.922 17.9297 299.017 18.0472C299.115 18.163 299.189 18.2769 299.24 18.389H299.275V16.3003H300.429V21.8556H299.289V21.1883H299.24C299.186 21.3041 299.109 21.4189 299.01 21.5328C298.911 21.645 298.784 21.7381 298.627 21.8122C298.471 21.8864 298.281 21.9235 298.057 21.9235ZM298.423 21.0039C298.61 21.0039 298.767 20.9533 298.896 20.852C299.025 20.7489 299.125 20.6051 299.194 20.4207C299.264 20.2363 299.3 20.0202 299.3 19.7724C299.3 19.5247 299.266 19.3095 299.197 19.1268C299.128 18.9442 299.028 18.8031 298.898 18.7036C298.767 18.6042 298.61 18.5544 298.423 18.5544C298.233 18.5544 298.073 18.606 297.943 18.7091C297.812 18.8122 297.713 18.955 297.646 19.1376C297.58 19.3203 297.546 19.5319 297.546 19.7724C297.546 20.0147 297.58 20.229 297.646 20.4153C297.715 20.5997 297.814 20.7444 297.943 20.8493C298.073 20.9524 298.233 21.0039 298.423 21.0039ZM303.28 21.937C302.85 21.937 302.482 21.8502 302.172 21.6766C301.864 21.5012 301.627 21.2535 301.461 20.9334C301.294 20.6115 301.211 20.2309 301.211 19.7914C301.211 19.3628 301.294 18.9867 301.461 18.663C301.627 18.3393 301.862 18.087 302.164 17.9062C302.468 17.7253 302.824 17.6349 303.233 17.6349C303.508 17.6349 303.764 17.6792 304.001 17.7678C304.24 17.8546 304.448 17.9858 304.626 18.1611C304.805 18.3366 304.944 18.5572 305.044 18.823C305.143 19.087 305.193 19.3963 305.193 19.7507V20.0681H301.673V19.352H304.104C304.104 19.1856 304.068 19.0382 303.996 18.9098C303.924 18.7814 303.823 18.6811 303.695 18.6087C303.568 18.5346 303.42 18.4975 303.252 18.4975C303.077 18.4975 302.921 18.5382 302.785 18.6196C302.652 18.6991 302.547 18.8067 302.471 18.9424C302.395 19.0762 302.355 19.2254 302.354 19.3899V20.0708C302.354 20.2769 302.392 20.455 302.468 20.6051C302.546 20.7552 302.655 20.871 302.796 20.9524C302.938 21.0337 303.105 21.0744 303.299 21.0744C303.427 21.0744 303.545 21.0563 303.652 21.0202C303.758 20.984 303.85 20.9298 303.925 20.8574C304.001 20.7851 304.059 20.6965 304.099 20.5916L305.169 20.6621C305.114 20.9189 305.003 21.1431 304.835 21.3348C304.668 21.5247 304.453 21.673 304.189 21.7797C303.926 21.8846 303.624 21.937 303.28 21.937ZM307.94 21.8556H305.969V16.3003H307.956C308.515 16.3003 308.997 16.4116 309.4 16.634C309.804 16.8546 310.114 17.172 310.331 17.5861C310.55 18.0002 310.659 18.4957 310.659 19.0726C310.659 19.6512 310.55 20.1485 310.331 20.5645C310.114 20.9804 309.802 21.2995 309.395 21.522C308.989 21.7444 308.505 21.8556 307.94 21.8556ZM307.145 20.8493H307.891C308.238 20.8493 308.531 20.7878 308.768 20.6648C309.006 20.5401 309.185 20.3475 309.305 20.0871C309.426 19.8249 309.487 19.4867 309.487 19.0726C309.487 18.6621 309.426 18.3266 309.305 18.0662C309.185 17.8058 309.008 17.6141 308.77 17.4912C308.533 17.3682 308.241 17.3067 307.894 17.3067H307.145V20.8493ZM313.392 21.937C312.971 21.937 312.606 21.8475 312.298 21.6685C311.992 21.4876 311.756 21.2363 311.59 20.9144C311.424 20.5907 311.34 20.2154 311.34 19.7887C311.34 19.3583 311.424 18.9821 311.59 18.6602C311.756 18.3366 311.992 18.0852 312.298 17.9062C312.606 17.7253 312.971 17.6349 313.392 17.6349C313.814 17.6349 314.177 17.7253 314.484 17.9062C314.791 18.0852 315.028 18.3366 315.194 18.6602C315.361 18.9821 315.444 19.3583 315.444 19.7887C315.444 20.2154 315.361 20.5907 315.194 20.9144C315.028 21.2363 314.791 21.4876 314.484 21.6685C314.177 21.8475 313.814 21.937 313.392 21.937ZM313.398 21.0419C313.589 21.0419 313.75 20.9876 313.878 20.8791C314.006 20.7688 314.103 20.6187 314.168 20.4288C314.235 20.2389 314.269 20.0229 314.269 19.7806C314.269 19.5382 314.235 19.3221 314.168 19.1322C314.103 18.9424 314.006 18.7923 313.878 18.6819C313.75 18.5716 313.589 18.5165 313.398 18.5165C313.204 18.5165 313.041 18.5716 312.909 18.6819C312.778 18.7923 312.68 18.9424 312.613 19.1322C312.548 19.3221 312.515 19.5382 312.515 19.7806C312.515 20.0229 312.548 20.2389 312.613 20.4288C312.68 20.6187 312.778 20.7688 312.909 20.8791C313.041 20.9876 313.204 21.0419 313.398 21.0419Z" fill="#5E528F"/>
</g>
<defs>
<clipPath id="clip0_114_86">
<rect width="593" height="317" fill="white" transform="translate(0.5 0.5)"/>
</clipPath>
</defs>
</svg>
