<svg width="1417" height="1418" viewBox="0 0 1417 1418" fill="none" xmlns="http://www.w3.org/2000/svg">
<path d="M1217.28 496.727C1209.54 502.731 1072.92 579.716 1072.92 750.897C1072.92 948.896 1246.77 1018.94 1251.97 1020.68C1251.17 1024.95 1224.35 1116.61 1160.31 1210C1103.2 1292.19 1043.56 1374.25 952.836 1374.25C862.108 1374.25 838.759 1321.55 734.022 1321.55C631.954 1321.55 595.663 1375.98 512.674 1375.98C429.686 1375.98 371.78 1299.93 305.202 1206.54C228.084 1096.86 165.776 926.481 165.776 764.773C165.776 505.4 334.422 367.841 500.399 367.841C588.592 367.841 662.108 425.746 717.478 425.746C770.18 425.746 852.368 364.372 952.702 364.372C990.727 364.372 1127.35 367.841 1217.28 496.727ZM905.07 254.565C946.565 205.332 975.918 137.02 975.918 68.7076C975.918 59.2346 975.117 49.6282 973.383 41.8896C905.871 44.4247 825.55 86.8531 777.118 143.024C739.093 186.253 703.602 254.565 703.602 323.812C703.602 334.219 705.337 344.625 706.137 347.961C710.407 348.762 717.345 349.696 724.283 349.696C784.856 349.696 861.041 309.135 905.07 254.565Z" fill="black" fill-opacity="0.4"/>
</svg>
