<svg width="512" height="512" viewBox="0 0 512 512" fill="none" xmlns="http://www.w3.org/2000/svg">
<g clip-path="url(#clip0_301_2)">
<path fill-rule="evenodd" clip-rule="evenodd" d="M435.2 0H511.85C511.933 0 512 0.0671573 512 0.15V511.85C512 511.933 511.933 512 511.85 512H435.2C455.569 512 475.103 503.909 489.506 489.506C503.909 475.103 512 455.569 512 435.2V76.8C512 56.4314 503.909 36.897 489.506 22.4942C475.103 8.09141 455.569 0 435.2 0ZM274.4 0H0.15C0.0671573 0 0 0.0671573 0 0.15V511.85C0 511.933 0.0671573 512 0.15 512H311.3C297.148 443.502 290.741 373.63 292.2 303.7C292.24 302.375 292.014 301.055 291.534 299.819C291.055 298.583 290.332 297.456 289.409 296.505C288.485 295.554 287.38 294.797 286.159 294.281C284.938 293.765 283.626 293.499 282.3 293.5H223.6C222.274 293.514 220.96 293.261 219.734 292.757C218.508 292.253 217.395 291.508 216.463 290.566C215.53 289.624 214.796 288.504 214.304 287.273C213.813 286.042 213.573 284.725 213.6 283.4C215.127 136.615 249.809 56.6871 271.399 6.93106C272.431 4.55313 273.433 2.24411 274.4 0Z" fill="black" fill-opacity="0.4"/>
<path d="M435.2 0H274.4C253.2 49.2 215.2 129.6 213.6 283.4C213.573 284.725 213.813 286.042 214.304 287.273C214.796 288.504 215.53 289.624 216.463 290.566C217.395 291.508 218.508 292.253 219.734 292.757C220.96 293.261 222.274 293.514 223.6 293.5H282.3C283.626 293.499 284.938 293.765 286.159 294.281C287.38 294.797 288.485 295.554 289.409 296.505C290.332 297.456 291.055 298.583 291.534 299.819C292.014 301.055 292.24 302.375 292.2 303.7C290.741 373.63 297.148 443.502 311.3 512H435.2C455.569 512 475.103 503.909 489.506 489.506C503.909 475.103 512 455.569 512 435.2V76.8C512 56.4314 503.909 36.897 489.506 22.4942C475.103 8.09141 455.569 0 435.2 0Z" fill="black" fill-opacity="0.25"/>
<path d="M371 149V183M142 149V183M405.4 330.2C365.288 368.89 311.731 390.511 256 390.511C200.269 390.511 146.712 368.89 106.6 330.2" stroke="black" stroke-opacity="0.5" stroke-width="20" stroke-linecap="round"/>
</g>
<defs>
<clipPath id="clip0_301_2">
<rect width="512" height="512" rx="85" fill="white"/>
</clipPath>
</defs>
</svg>
