<svg width="513" height="526" viewBox="0 0 513 526" fill="none" xmlns="http://www.w3.org/2000/svg">
<rect x="0.761963" width="512" height="525.35" rx="85" fill="black" fill-opacity="0.5"/>
<path fill-rule="evenodd" clip-rule="evenodd" d="M223.317 158.095C223.317 140.529 202.79 130.973 189.349 142.283L73.5435 239.719C59.296 251.707 59.296 273.643 73.5435 285.63L189.349 383.067C202.79 394.376 223.317 384.821 223.317 367.255V367.255C223.317 361.156 220.623 355.369 215.957 351.443L137.737 285.63C123.49 273.643 123.49 251.707 137.737 239.719L215.957 173.907C220.623 169.98 223.317 164.193 223.317 158.095V158.095Z" fill="white" fill-opacity="0.45"/>
<path fill-rule="evenodd" clip-rule="evenodd" d="M290.206 158.095C290.206 140.529 310.734 130.973 324.175 142.283L439.98 239.719C454.227 251.707 454.227 273.643 439.98 285.63L324.175 383.067C310.734 394.376 290.206 384.821 290.206 367.255V367.255C290.206 361.156 292.9 355.369 297.567 351.443L375.786 285.63C390.034 273.643 390.034 251.707 375.786 239.719L297.567 173.907C292.9 169.98 290.206 164.193 290.206 158.095V158.095Z" fill="white" fill-opacity="0.45"/>
</svg>
